<svg xmlns="http://www.w3.org/2000/svg" viewBox="0 0 500 500"><g id="freepik--background-complete--inject-17"><rect x="336.27" y="58.21" width="103.8" height="108.2" style="fill:#e0e0e0"></rect><rect x="329.24" y="58.21" width="103.8" height="108.2" style="fill:#fafafa"></rect><path d="M433.06,166.44H329.21V58.18H433.06Zm-103.79-.06H433V58.24H329.27Z" style="fill:#e0e0e0"></path><rect x="343.19" y="72.75" width="75.89" height="79.11" style="fill:#fff"></rect><path d="M343.19,152.39a12.42,12.42,0,0,1-1.87,2.18c-1.21,1.28-2.92,3-4.83,4.89s-3.66,3.55-4.95,4.74a11.88,11.88,0,0,1-2.2,1.83,12.07,12.07,0,0,1,1.87-2.17c1.21-1.28,2.91-3,4.83-4.9s3.67-3.56,5-4.75A11.86,11.86,0,0,1,343.19,152.39Z" style="fill:#e0e0e0"></path><path d="M419.08,152.19a12.82,12.82,0,0,1,2.18,1.88c1.28,1.21,3,2.91,4.89,4.82s3.55,3.67,4.74,5a12.06,12.06,0,0,1,1.83,2.19,11.7,11.7,0,0,1-2.17-1.86c-1.28-1.21-3-2.92-4.9-4.83s-3.56-3.68-4.75-5A12.08,12.08,0,0,1,419.08,152.19Z" style="fill:#e0e0e0"></path><path d="M418.87,73a12,12,0,0,1,1.87-2.18c1.22-1.28,2.92-3,4.83-4.89s3.66-3.56,5-4.75a11.32,11.32,0,0,1,2.19-1.82,12.29,12.29,0,0,1-1.86,2.16c-1.21,1.28-2.92,3-4.84,4.9s-3.67,3.57-5,4.76A12.08,12.08,0,0,1,418.87,73Z" style="fill:#e0e0e0"></path><path d="M343,73.16a12.19,12.19,0,0,1-2.17-1.87c-1.28-1.21-3-2.92-4.89-4.83s-3.56-3.66-4.75-4.95a12.43,12.43,0,0,1-1.83-2.2,12.22,12.22,0,0,1,2.17,1.86c1.28,1.22,3,2.92,4.9,4.84s3.57,3.67,4.75,5A11.86,11.86,0,0,1,343,73.16Z" style="fill:#e0e0e0"></path><path d="M418.87,151.86s0-.13,0-.38,0-.63,0-1.11c0-1,0-2.41,0-4.27,0-3.74,0-9.2-.07-16.12,0-13.85-.09-33.59-.15-57.23l.29.3-75.67,0h0l.34-.34c0,29,0,56.2,0,79.11l-.29-.29,54.8.15,15.39.08,4.07,0,1.06,0h.36a1.77,1.77,0,0,1-.33,0l-1,0-4,0-15.33.07-55,.15h-.29v-.29c0-22.91,0-50.07,0-79.11v-.33h.35l75.67,0h.3v.29c-.07,23.72-.12,43.52-.15,57.42,0,6.89-.06,12.32-.08,16.06,0,1.82,0,3.23,0,4.21,0,.46,0,.81,0,1.07A2.06,2.06,0,0,1,418.87,151.86Z" style="fill:#e0e0e0"></path><path d="M396.84,96.89a28.45,28.45,0,0,0-28.58-3.59s-1.42,18.8-1.32,27,8.29,9.46,8.29,9.46l0,8.86,19.89.75,3-41.52Z" style="fill:#f5f5f5"></path><path d="M375.22,129.62a19.05,19.05,0,0,0,10.67-3s-2.53,5.89-10.69,5.15Z" style="fill:#e0e0e0"></path><path d="M397.05,106.3c.14-.06,5.62-1.66,5.44,3.94s-5.76,4.26-5.76,4.1S397.05,106.3,397.05,106.3Z" style="fill:#f5f5f5"></path><path d="M398.51,112.27s.09.07.25.16a1,1,0,0,0,.73,0,2.4,2.4,0,0,0,1.19-2.12,3.22,3.22,0,0,0-.23-1.41,1.13,1.13,0,0,0-.71-.77.48.48,0,0,0-.58.25c-.08.15-.05.26-.08.27s-.12-.09-.07-.32a.71.71,0,0,1,.23-.35.77.77,0,0,1,.55-.12,1.37,1.37,0,0,1,1,.9,3.34,3.34,0,0,1,.29,1.57,2.55,2.55,0,0,1-1.5,2.37,1,1,0,0,1-.89-.18C398.51,112.41,398.49,112.28,398.51,112.27Z" style="fill:#e0e0e0"></path><path d="M370.94,105.89a1.17,1.17,0,0,0,1.13,1.18,1.12,1.12,0,0,0,1.21-1,1.17,1.17,0,0,0-1.13-1.18A1.13,1.13,0,0,0,370.94,105.89Z" style="fill:#e0e0e0"></path><path d="M369.81,104.81c.14.16,1-.5,2.29-.5s2.18.64,2.31.48-.08-.34-.48-.63a3.15,3.15,0,0,0-1.85-.57,3,3,0,0,0-1.82.58C369.87,104.47,369.74,104.75,369.81,104.81Z" style="fill:#e0e0e0"></path><path d="M383.31,106.42a1.16,1.16,0,0,0,1.13,1.18,1.11,1.11,0,0,0,1.2-1,1.16,1.16,0,0,0-1.13-1.18A1.11,1.11,0,0,0,383.31,106.42Z" style="fill:#e0e0e0"></path><path d="M382.17,105.05c.15.15,1-.5,2.29-.5s2.18.63,2.32.48-.08-.35-.49-.64a3.22,3.22,0,0,0-1.85-.57,3,3,0,0,0-1.82.59C382.23,104.7,382.1,105,382.17,105.05Z" style="fill:#e0e0e0"></path><path d="M377.61,114.38a8.4,8.4,0,0,0-2.05-.37c-.32,0-.62-.1-.67-.32a1.55,1.55,0,0,1,.21-1l.95-2.45a41.8,41.8,0,0,0,2.13-6.39,42.76,42.76,0,0,0-2.64,6.21l-.91,2.46a1.89,1.89,0,0,0-.17,1.26.84.84,0,0,0,.53.47,2.36,2.36,0,0,0,.55.07A8.48,8.48,0,0,0,377.61,114.38Z" style="fill:#e0e0e0"></path><path d="M381.85,100.12c.12.34,1.38.18,2.85.36s2.67.58,2.87.27c.09-.15-.12-.47-.6-.8a4.83,4.83,0,0,0-2.13-.74,4.72,4.72,0,0,0-2.23.26C382.07,99.69,381.79,100,381.85,100.12Z" style="fill:#e0e0e0"></path><path d="M370.27,101.17c.22.29,1.09,0,2.13,0s1.93.19,2.13-.11c.09-.14,0-.43-.44-.7a2.94,2.94,0,0,0-1.73-.47,3,3,0,0,0-1.7.58C370.29,100.74,370.17,101,370.27,101.17Z" style="fill:#e0e0e0"></path><path d="M364.27,88.13a3,3,0,0,1,1.12-2.7,2.14,2.14,0,0,1,2.77.21,2.5,2.5,0,0,1,2.15-3c1.34-.09,2.48.92,3.77,1.27a6,6,0,0,0,3.82-.44c1.21-.48,2.34-1.16,3.57-1.61A10.47,10.47,0,0,1,394.86,88a4.63,4.63,0,0,1,4.92,1.87A7.57,7.57,0,0,1,401,95.22a17.33,17.33,0,0,1-.93,3.67c0,.1,0,.21,0,.31-.08,4.5-.59,9.79-2.51,9.82-3.35,0-2.55-6.25-2.55-6.25-4.11-1.59-2.58-7.75-3.6-8.68s-3.18-3.1-11.78,1.29a16.63,16.63,0,0,1-10.2,1.11l-.21,0h-.05a.15.15,0,0,1-.07,0,7.81,7.81,0,0,1-2.21-.93,4.34,4.34,0,0,1-1.82-2,2.39,2.39,0,0,1,.47-2.56A5.32,5.32,0,0,1,364.27,88.13Z" style="fill:#e0e0e0"></path><path d="M377.62,120.47a4.21,4.21,0,0,0,1.44-.18,2.07,2.07,0,0,0,1.09-1,2.17,2.17,0,0,0,0-1.77,2.6,2.6,0,0,0-.23-.4c-.11-.11-.09-.11-.21-.09s-.28.11-.43.17l-.44.18c-.58.24-1.1.44-1.55.6a5.08,5.08,0,0,1-1.47.45,5.08,5.08,0,0,1,1.34-.76l1.5-.7.44-.19a4.79,4.79,0,0,1,.49-.21.65.65,0,0,1,.7.25,2.67,2.67,0,0,1,.31.51,2.53,2.53,0,0,1-.09,2.16,2.34,2.34,0,0,1-2.54,1.16C377.73,120.59,377.61,120.49,377.62,120.47Z" style="fill:#e0e0e0"></path><rect x="406.55" y="184.11" width="56.47" height="58.86" style="fill:#e0e0e0"></rect><rect x="402.72" y="184.11" width="56.47" height="58.86" style="fill:#fafafa"></rect><path d="M459.21,243H402.7v-58.9h56.51Zm-56.47,0h56.43V184.12H402.74Z" style="fill:#e0e0e0"></path><rect x="410.31" y="192.02" width="41.29" height="43.04" style="fill:#fafafa"></rect><path d="M410.31,235.34a6.91,6.91,0,0,1-1,1.19c-.66.69-1.58,1.64-2.62,2.66s-2,1.93-2.7,2.58a6.18,6.18,0,0,1-1.19,1,6.36,6.36,0,0,1,1-1.17c.66-.7,1.59-1.64,2.63-2.67s2-1.94,2.7-2.59A7.87,7.87,0,0,1,410.31,235.34Z" style="fill:#e0e0e0"></path><path d="M451.6,235.24a6.67,6.67,0,0,1,1.18,1c.7.66,1.64,1.58,2.66,2.62s1.94,2,2.59,2.7a6.71,6.71,0,0,1,1,1.19,6.19,6.19,0,0,1-1.18-1c-.7-.66-1.64-1.59-2.67-2.63s-1.93-2-2.58-2.7A6.56,6.56,0,0,1,451.6,235.24Z" style="fill:#e0e0e0"></path><path d="M451.49,192.13a7,7,0,0,1,1-1.18c.65-.7,1.58-1.64,2.62-2.66s2-1.94,2.7-2.58a6.68,6.68,0,0,1,1.19-1,5.85,5.85,0,0,1-1,1.18c-.66.7-1.59,1.64-2.63,2.67s-2,1.94-2.71,2.59A6.5,6.5,0,0,1,451.49,192.13Z" style="fill:#e0e0e0"></path><path d="M410.2,192.24a6.91,6.91,0,0,1-1.19-1c-.69-.66-1.63-1.58-2.66-2.62s-1.93-2-2.58-2.7a6.71,6.71,0,0,1-1-1.19,6.58,6.58,0,0,1,1.18,1c.69.66,1.64,1.59,2.66,2.63s1.94,2,2.59,2.7A6.56,6.56,0,0,1,410.2,192.24Z" style="fill:#e0e0e0"></path><path d="M451.49,235.06a.77.77,0,0,1,0-.21c0-.15,0-.35,0-.6,0-.54,0-1.32,0-2.33,0-2,0-5,0-8.77,0-7.53-.05-18.27-.08-31.13l.16.16-41.17,0h0l.19-.18c0,15.8,0,30.57,0,43l-.16-.16,29.81.08,8.38,0,2.21,0h-2.15l-8.34,0-29.91.08h-.15v-.16c0-12.47,0-27.24,0-43v-.18h.19l41.17,0h.16V192c0,12.9-.07,23.67-.09,31.24,0,3.75,0,6.7,0,8.73,0,1,0,1.76,0,2.29v.59C451.49,235,451.49,235.06,451.49,235.06Z" style="fill:#e0e0e0"></path><rect x="424.07" y="206.65" width="13.78" height="13.78" style="fill:#ebebeb"></rect><rect x="147.74" y="342.67" width="172.99" height="79.78" style="fill:#f5f5f5"></rect><path d="M316.62,418.69H151.7V346.86H316.62Zm-163.84-1.08H315.55V347.94H152.78Z" style="fill:#e0e0e0"></path><rect x="320.74" y="342.67" width="42.26" height="79.78" style="fill:#e0e0e0"></rect><path d="M152.24,369.09H316.08a.22.22,0,0,0,0-.43H152.24a.22.22,0,0,0,0,.43Z" style="fill:#e0e0e0"></path><path d="M234.7,368.87a178,178,0,0,0,.05-21.67.22.22,0,0,0-.44,0,180.08,180.08,0,0,0,.06,21.67.17.17,0,1,0,.33,0Z" style="fill:#e0e0e0"></path><path d="M278.8,358a2.24,2.24,0,1,1-2.23-2.23A2.23,2.23,0,0,1,278.8,358Z" style="fill:#e0e0e0"></path><path d="M192.81,358a2.23,2.23,0,1,1-2.23-2.23A2.23,2.23,0,0,1,192.81,358Z" style="fill:#e0e0e0"></path><path d="M236.4,382.78a2.24,2.24,0,1,1-2.24-2.24A2.23,2.23,0,0,1,236.4,382.78Z" style="fill:#e0e0e0"></path><polygon points="168.43 422.45 159.52 472.54 164.53 472.54 180.95 422.45 168.43 422.45" style="fill:#e0e0e0"></polygon><polygon points="308.5 422.45 315.95 472.63 310.94 472.63 295.98 422.45 308.5 422.45" style="fill:#e0e0e0"></polygon><polygon points="341.94 422.45 350.38 472.63 345.37 472.63 329.42 422.45 341.94 422.45" style="fill:#e0e0e0"></polygon><path d="M236.25,405.36a2.24,2.24,0,1,1-2.24-2.24A2.23,2.23,0,0,1,236.25,405.36Z" style="fill:#e0e0e0"></path><path d="M152.24,393.8H316.08a.22.22,0,0,0,0-.44H152.24a.22.22,0,0,0,0,.44Z" style="fill:#e0e0e0"></path><rect x="237.02" y="284.25" width="10.65" height="52.31" transform="translate(551.47 66.42) rotate(89.7)" style="fill:#e0e0e0"></rect><rect x="237.35" y="305.18" width="16.54" height="58.3" transform="translate(578.64 86.94) rotate(89.7)" style="fill:#f5f5f5"></rect><path d="M263.58,342.33a60.36,60.36,0,0,1-.28-8.27,60.45,60.45,0,0,1,.28-8.28,60.45,60.45,0,0,1,.28,8.28A60.36,60.36,0,0,1,263.58,342.33Z" style="fill:#e0e0e0"></path><path d="M266,342.33a60.36,60.36,0,0,1-.28-8.27,60.45,60.45,0,0,1,.28-8.28,60.45,60.45,0,0,1,.28,8.28A60.36,60.36,0,0,1,266,342.33Z" style="fill:#e0e0e0"></path><path d="M225.29,342.33a59.33,59.33,0,0,1-.29-8.27,59.42,59.42,0,0,1,.29-8.28,62.43,62.43,0,0,1,.28,8.28A62.33,62.33,0,0,1,225.29,342.33Z" style="fill:#e0e0e0"></path><path d="M227.73,342.33a62.33,62.33,0,0,1-.28-8.27,62.43,62.43,0,0,1,.28-8.28,59.42,59.42,0,0,1,.29,8.28A59.33,59.33,0,0,1,227.73,342.33Z" style="fill:#e0e0e0"></path><path d="M233.08,334.32c0-.16,5.88-.28,13.13-.28s13.14.12,13.14.28-5.88.29-13.14.29S233.08,334.48,233.08,334.32Z" style="fill:#e0e0e0"></path><rect x="255.38" y="284.7" width="10.65" height="71.94" transform="translate(580 58.27) rotate(89.7)" style="fill:#ebebeb"></rect><path d="M286.4,324.48a3.44,3.44,0,1,1,3.4-3.44A3.43,3.43,0,0,1,286.4,324.48Z" style="fill:#e0e0e0"></path><rect x="251.91" y="296.96" width="2.13" height="48.15" transform="translate(574.02 68.06) rotate(90)" style="fill:#e0e0e0"></rect></g><g id="freepik--Floor--inject-17"><path d="M468,472.62c0,.15-97.6.27-218,.27s-218-.12-218-.27,97.58-.26,218-.26S468,472.48,468,472.62Z" style="fill:#263238"></path></g><g id="freepik--Character--inject-17"><path d="M405.43,351.59a66.37,66.37,0,0,1,49,34.05c2-1.55,4.06-3.15,6.51-3.74s5.41.08,6.7,2.25c2.4,4-2.18,8.39-5.06,12.1-10.32,13.34.41,35.27-10,48.51-1.46,1.85-3.29,3.44-4.4,5.51s-1.32,4.93.38,6.57c2,2,5.79,1.32,7.65,3.47,1.53,1.77,1.92,6.58.26,8.22s-5.49,3.09-7.76,3.66l-84.39.43" style="fill:#455a64"></path><path d="M448.07,438.08a1.91,1.91,0,0,1-.32.49l-1,1.35A25.57,25.57,0,0,1,445,442c-.7.77-1.46,1.69-2.42,2.59L441.12,446c-.52.5-1.1,1-1.68,1.49-1.14,1-2.47,2-3.85,3.09a62.08,62.08,0,0,1-20.31,9.76c-1.69.41-3.29.84-4.82,1.08-.77.13-1.5.29-2.21.38l-2.05.25c-1.3.18-2.5.2-3.54.27a24.91,24.91,0,0,1-2.68,0l-1.69,0a2.16,2.16,0,0,1-.59,0,2.81,2.81,0,0,1,.59-.05l1.69-.06c.73,0,1.63,0,2.66-.13s2.22-.14,3.52-.35l2-.28c.71-.1,1.43-.27,2.18-.41,1.52-.25,3.11-.69,4.78-1.12a63.74,63.74,0,0,0,20.16-9.68c1.37-1,2.71-2,3.85-3,.58-.51,1.17-1,1.69-1.45l1.48-1.42c1-.88,1.75-1.77,2.47-2.52s1.3-1.43,1.77-2l1.09-1.28A3.43,3.43,0,0,1,448.07,438.08Z" style="fill:#263238"></path><path d="M449,460.85a26.13,26.13,0,0,1-3.57.16c-2.21.06-5.25.14-8.61.32s-6.4.39-8.6.56a28.67,28.67,0,0,1-3.57.2,3.24,3.24,0,0,1,.94-.21c.61-.1,1.5-.22,2.6-.36,2.19-.26,5.23-.54,8.6-.71s6.43-.2,8.64-.16c1.1,0,2,.05,2.61.09A3.42,3.42,0,0,1,449,460.85Z" style="fill:#263238"></path><path d="M428.25,414.56c0,.1-1.61-.39-4.24-.74a33.33,33.33,0,0,0-4.65-.29,36.37,36.37,0,0,0-5.66.53,37.1,37.1,0,0,0-5.5,1.5,34.27,34.27,0,0,0-4.25,1.9c-2.33,1.26-3.65,2.27-3.71,2.19a5.43,5.43,0,0,1,.89-.75,11.7,11.7,0,0,1,1.11-.8c.45-.29.94-.64,1.54-1a30.38,30.38,0,0,1,4.25-2,34.28,34.28,0,0,1,5.57-1.56,35.15,35.15,0,0,1,5.76-.5,31,31,0,0,1,4.7.4c.67.09,1.26.25,1.78.36a12,12,0,0,1,1.32.36A5.42,5.42,0,0,1,428.25,414.56Z" style="fill:#263238"></path><path d="M427.25,396.54a9.12,9.12,0,0,1-1.43.44c-.46.13-1,.28-1.67.51s-1.38.43-2.17.75a45.65,45.65,0,0,0-5.46,2.48,48.46,48.46,0,0,0-6.13,4,47.82,47.82,0,0,0-5.39,5,44.38,44.38,0,0,0-3.73,4.68c-.51.69-.9,1.36-1.26,1.93s-.67,1.08-.9,1.5a8.87,8.87,0,0,1-.78,1.27,8.07,8.07,0,0,1,.6-1.37c.21-.43.47-1,.83-1.55s.71-1.28,1.2-2a40.41,40.41,0,0,1,3.69-4.8,44.51,44.51,0,0,1,5.42-5.07,45,45,0,0,1,6.23-4,38.77,38.77,0,0,1,5.55-2.4c.81-.31,1.57-.5,2.22-.69a16.57,16.57,0,0,1,1.7-.42A7.21,7.21,0,0,1,427.25,396.54Z" style="fill:#263238"></path><path d="M428.42,455s0-.16,0-.47.09-.81.14-1.34a19.1,19.1,0,0,0,.15-2.11c0-.83.09-1.77,0-2.81,0-.53-.05-1.07-.07-1.64s-.12-1.15-.18-1.76c-.1-1.22-.38-2.5-.63-3.85a44.66,44.66,0,0,0-2.82-8.49,45.43,45.43,0,0,0-4.57-7.68c-.86-1.07-1.65-2.12-2.51-3-.42-.45-.8-.9-1.21-1.29l-1.19-1.12a27.86,27.86,0,0,0-2.14-1.83,19.52,19.52,0,0,0-1.7-1.27l-1.1-.77-.38-.28s.15.08.4.25l1.13.73a18.32,18.32,0,0,1,1.72,1.25,25.31,25.31,0,0,1,2.17,1.81l1.2,1.11c.42.39.8.85,1.23,1.29.86.88,1.66,1.92,2.53,3a44.41,44.41,0,0,1,4.61,7.71,45,45,0,0,1,2.82,8.53c.24,1.36.51,2.64.61,3.87.06.61.15,1.2.17,1.77s0,1.12,0,1.64c.07,1.05,0,2,0,2.82a16.31,16.31,0,0,1-.19,2.12l-.18,1.34C428.45,454.83,428.42,455,428.42,455Z" style="fill:#fafafa"></path><path d="M421.23,462.34a3.73,3.73,0,0,1-2.84-3.57,5.61,5.61,0,0,0,1,2.14A5.78,5.78,0,0,0,421.23,462.34Z" style="fill:#fafafa"></path><path d="M438.82,472.54s.08-.63.08-1.65a11.77,11.77,0,0,0-.66-3.88,12,12,0,0,0-1.92-3.44c-.65-.78-1.13-1.2-1.1-1.23a2.06,2.06,0,0,1,.35.28,7.6,7.6,0,0,1,.86.86,10.78,10.78,0,0,1,2.62,7.42,7.54,7.54,0,0,1-.13,1.21A2.05,2.05,0,0,1,438.82,472.54Z" style="fill:#fafafa"></path><path d="M450.18,448.81a1,1,0,0,1-.34-.08,4.76,4.76,0,0,1-.87-.36,7.5,7.5,0,0,1-3.85-4.7,6,6,0,0,1-.18-.92,1.36,1.36,0,0,1,0-.35s.09.49.33,1.23a8.25,8.25,0,0,0,3.78,4.61C449.72,448.62,450.19,448.77,450.18,448.81Z" style="fill:#fafafa"></path><path d="M448.54,433.14a1.24,1.24,0,0,1-.06-.25l-.15-.72a10.89,10.89,0,0,0-.26-1.14c-.13-.44-.24-.94-.44-1.48a22.83,22.83,0,0,0-1.6-3.68,25.52,25.52,0,0,0-2.79-4,25.85,25.85,0,0,0-3.57-3.37,22.11,22.11,0,0,0-3.4-2.14,14.14,14.14,0,0,0-1.4-.66,10.42,10.42,0,0,0-1.08-.43l-.69-.26-.24-.1a17.59,17.59,0,0,1,3.48,1.32,21.64,21.64,0,0,1,3.44,2.11,22.8,22.8,0,0,1,6.42,7.48,22,22,0,0,1,1.57,3.73A17.33,17.33,0,0,1,448.54,433.14Z" style="fill:#fafafa"></path><path d="M420.41,399.39a3.18,3.18,0,0,1,.29.5,10.22,10.22,0,0,1,.64,1.42,14.65,14.65,0,0,1,.06,10.11,10.62,10.62,0,0,1-.63,1.43,3.9,3.9,0,0,1-.28.5s.35-.74.77-2a15.65,15.65,0,0,0,.8-5,15.48,15.48,0,0,0-.86-5C420.77,400.13,420.37,399.41,420.41,399.39Z" style="fill:#fafafa"></path><path d="M437.23,397.52a8.55,8.55,0,0,1,1.44,1.81,11.83,11.83,0,0,1,.71,10.79,8.31,8.31,0,0,1-1.19,2c-.05,0,.5-.73,1.05-2a12.17,12.17,0,0,0-.7-10.65A22.66,22.66,0,0,0,437.23,397.52Z" style="fill:#fafafa"></path><path d="M428,358.66l-.3.3-.88.85a16.38,16.38,0,0,0-1.35,1.38,24.07,24.07,0,0,0-1.67,1.95l-.91,1.17c-.31.41-.59.88-.9,1.34a34.37,34.37,0,0,0-1.82,3.06A36.74,36.74,0,0,0,416,384.34a34.44,34.44,0,0,0,.05,3.55c0,.56.05,1.1.12,1.61s.14,1,.2,1.48a25.06,25.06,0,0,0,.48,2.51,16.13,16.13,0,0,0,.48,1.87c.14.46.25.85.35,1.17s.11.42.11.42-.06-.14-.15-.4l-.38-1.17a13.21,13.21,0,0,1-.52-1.86,24.24,24.24,0,0,1-.51-2.52l-.22-1.48c-.07-.51-.09-1.06-.13-1.62a32,32,0,0,1-.07-3.57,38.65,38.65,0,0,1,1.2-8.1,39.3,39.3,0,0,1,3-7.61c.63-1.1,1.19-2.16,1.84-3.07.32-.46.6-.92.92-1.33l.93-1.18a23.25,23.25,0,0,1,1.69-1.93,15.67,15.67,0,0,1,1.38-1.36l.91-.82Z" style="fill:#fafafa"></path><path d="M447.06,375.87l-.14.14-.43.39a20.13,20.13,0,0,0-1.53,1.46,23.05,23.05,0,0,0-6.08,12.33,19.21,19.21,0,0,0-.24,2.1c0,.2,0,.39,0,.58a1.12,1.12,0,0,1,0,.2.8.8,0,0,1,0-.2v-.58a16.6,16.6,0,0,1,.17-2.12,21.94,21.94,0,0,1,6.13-12.41,18.07,18.07,0,0,1,1.57-1.43l.46-.35C447,375.9,447.05,375.86,447.06,375.87Z" style="fill:#fafafa"></path><path d="M455.74,387.86a1.69,1.69,0,0,1-.12.27c-.08.18-.23.43-.36.78a13.76,13.76,0,0,0-.92,3,25.15,25.15,0,0,0,.58,10.27c1,3.94,2.05,7.47,2.44,10.11a21.19,21.19,0,0,1,.34,4.3,1.25,1.25,0,0,1,0-.3c0-.2,0-.49-.05-.86a30,30,0,0,0-.4-3.11c-.43-2.63-1.54-6.14-2.5-10.09a24.36,24.36,0,0,1-.52-10.35,12.78,12.78,0,0,1,1-3A9.39,9.39,0,0,1,455.74,387.86Z" style="fill:#fafafa"></path><path d="M404.22,461.74s0-.12,0-.36l.1-1c.1-.91.2-2.22.28-3.84a69.11,69.11,0,0,0-3.39-25c-.5-1.54-1-2.78-1.29-3.62-.14-.38-.26-.7-.37-1a3.25,3.25,0,0,1-.12-.35,49.36,49.36,0,0,1,1.92,4.91,65.69,65.69,0,0,1,3.4,25.08A51.36,51.36,0,0,1,404.22,461.74Z" style="fill:#fafafa"></path><path d="M380.3,270.92c1,3.15,4.81,4.41,8.11,4.72s6.91.2,9.56,2.2c3.47,2.61,3.91,7.81,7,10.85,3.69,3.59,9.71,3,14.32,5.28,3.82,1.89,6.44,5.7,7.7,9.77a36.53,36.53,0,0,1,1.12,12.68c-.25,5.3-1,10.91-4.37,15-5.58,6.87-15.85,7-24.66,6.24-7.9-.72-16.72-2.3-21.27-8.8-2.86-4.09-3.39-9.32-3.83-14.29q-1.46-16.35-2.9-32.71" style="fill:#263238"></path><path d="M427,322.25a4.45,4.45,0,0,0,.28-.72,16.83,16.83,0,0,0,.54-2.15,20.94,20.94,0,0,0-.06-8.12,20.65,20.65,0,0,0-5.64-10.59,21.9,21.9,0,0,0-13.19-6.32c-2.57-.36-5.15-.71-7.14-2.08s-3.2-3.46-4.34-5.38a25.55,25.55,0,0,0-3.76-5.27,21.24,21.24,0,0,0-12.06-6.26,15.87,15.87,0,0,0-2.21-.19,4.5,4.5,0,0,0-.77,0c0,.07,1.06.06,2.94.39a21.59,21.59,0,0,1,7.47,2.88,21,21,0,0,1,4.28,3.49,25.47,25.47,0,0,1,3.65,5.21c1.13,1.93,2.36,4.12,4.48,5.58s4.82,1.82,7.38,2.18a21.44,21.44,0,0,1,12.89,6.13,20.56,20.56,0,0,1,5.62,10.29,21.87,21.87,0,0,1,.24,8C427.25,321.23,426.89,322.23,427,322.25Z" style="fill:#455a64"></path><path d="M303.38,241.76l-42.07,61.76a23.48,23.48,0,0,0-1.2,24.49h0a23.48,23.48,0,0,0,22,12.18l48-2.88,4.38-36-48.24,10.13,18.44-40.13,3-1.27a7,7,0,0,0,4.06-4.73L313.1,260Z" style="fill:#ffbe9d"></path><path d="M286.24,311.41a17.73,17.73,0,0,1-2.72,3.22,17.23,17.23,0,0,1-3.09,2.86,17.13,17.13,0,0,1,2.72-3.22A16.64,16.64,0,0,1,286.24,311.41Z" style="fill:#eb996e"></path><path d="M336.41,300s24.17-7.53,33.48-5.5,34.28,10.72,34.28,10.72c.77.62-9.29,67.75-9.29,67.75L398,424.47c-21-11.18-44.18-19.18-68.72-25.22l5.54-32.49s-7.28-5.73-7.28-12.57c0-11.07,2.55-16.88,2.55-16.88Z" style="fill:#FF725E"></path><path d="M336.41,300s.9-1.21-.45-1.4c-1-.14-2.72,1.3-3.41,2l-.6.56-21.87,5.25s1,33.82-6.06,35.43l28.16-.8Z" style="fill:#FF725E"></path><path d="M331.31,323a1.8,1.8,0,0,1,.09.44c.05.29.09.72.14,1.28a28.12,28.12,0,0,1-.11,4.72,58.44,58.44,0,0,1-1.17,6.89c-.56,2.57-1.26,5.37-1.8,8.34a35.66,35.66,0,0,0-.61,8.44,21,21,0,0,0,1.55,6.7,17,17,0,0,0,3.56,5.24s-.13-.07-.36-.26a9.31,9.31,0,0,1-.94-.88,14.81,14.81,0,0,1-2.6-3.95,20.41,20.41,0,0,1-1.68-6.81,34,34,0,0,1,.57-8.57c.54-3,1.26-5.8,1.85-8.35a67.81,67.81,0,0,0,1.27-6.83,33.93,33.93,0,0,0,.26-4.68A16.14,16.14,0,0,1,331.31,323Z" style="fill:#263238"></path><path d="M379,369.86s-.06.1-.21.27a4.33,4.33,0,0,1-.69.71,9.06,9.06,0,0,1-3.16,1.73,20.38,20.38,0,0,1-11.8-.12,17.37,17.37,0,0,1-9.47-6.95,11.44,11.44,0,0,1-1.47-3.3,7.91,7.91,0,0,1-.2-1c0-.23,0-.34,0-.35a9.08,9.08,0,0,1,.42,1.25A12.64,12.64,0,0,0,354,365.3a17.68,17.68,0,0,0,9.32,6.65,21,21,0,0,0,11.53.27,10,10,0,0,0,3.16-1.54A11,11,0,0,1,379,369.86Z" style="fill:#263238"></path><g style="opacity:0.2"><path d="M385.24,336.89c-.39,6.4-1.58,15.55-2,21.95-.22,3.56-.53,7.39-2.8,10.15s-6.11,3.86-9.72,4c-8.75.42-17.75-3.43-26.08-.71a215.26,215.26,0,0,0,31.15,11.37c2.21.61,4.67,1.18,6.73.15,2.69-1.33,3.49-4.72,4-7.68.58-3.42-.54-7.23,0-10.64.36-2.12,1.15-8.52,1.15-8.52l-2.5-.46s-.23-6.87,0-12"></path></g><path d="M408.83,308.2c3.72,3.79,7.43,24.89,9,49.94-9.86,1.72-20.88.83-32.58-1.61V322.36S395.5,294.64,408.83,308.2Z" style="fill:#FF725E"></path><path d="M417.82,358.14a2.89,2.89,0,0,1-.6.2c-.41.09-1,.3-1.78.43a40.49,40.49,0,0,1-6.68.55,125.39,125.39,0,0,1-22-2.24l-1.6-.3-.21,0v-.21c0-8.23.07-15.6.1-21,0-2.61.06-4.75.09-6.3,0-.7,0-1.27,0-1.71a2.27,2.27,0,0,1,.06-.59,3.86,3.86,0,0,1,.05.59c0,.44,0,1,0,1.71,0,1.55.05,3.69.08,6.3,0,5.4,0,12.77.06,21l-.21-.26,1.59.3A137.48,137.48,0,0,0,408.76,359a45.16,45.16,0,0,0,6.65-.38C417,358.31,417.81,358.09,417.82,358.14Z" style="fill:#263238"></path><path d="M332.7,315.55a7.76,7.76,0,0,1-.33-2.38,21.41,21.41,0,0,1,.58-5.79A21.7,21.7,0,0,1,335,302a7.52,7.52,0,0,1,1.37-2,28.81,28.81,0,0,0-3.71,15.58Z" style="fill:#263238"></path><path d="M331.14,311.91a5.05,5.05,0,0,1-.56-1.55,13.92,13.92,0,0,1-.6-3.95,8.61,8.61,0,0,1,1-3.89,4,4,0,0,1,1-1.35c.19.09-1.41,2.2-1.45,5.25a20.27,20.27,0,0,0,.44,3.86A5.55,5.55,0,0,1,331.14,311.91Z" style="fill:#263238"></path><path d="M400.74,304.94a26.31,26.31,0,0,0-12.12,9.63,7.46,7.46,0,0,1,1.14-2,20.18,20.18,0,0,1,3.88-4.09,19.64,19.64,0,0,1,4.86-2.85A7,7,0,0,1,400.74,304.94Z" style="fill:#263238"></path><g style="opacity:0.2"><path d="M328,341.28a2,2,0,0,1-2.75-.59,3.46,3.46,0,0,1-.25-3,14.88,14.88,0,0,1,1.49-2.78,23.47,23.47,0,0,0,2-19.45c2.52,3.61,3.25,8.24,2.88,12.63a57.12,57.12,0,0,1-3.11,12.82"></path></g><path d="M268,422.34l-9.28,43.16L205,454.23c1.39-5.07,31.36-9.54,31.36-9.54l4.81-27.9Z" style="fill:#FF725E"></path><g style="opacity:0.2"><path d="M268,422.34l-9.28,43.16L205,454.23c1.39-5.07,31.36-9.54,31.36-9.54l4.81-27.9Z"></path></g><g style="opacity:0.6000000000000001"><path d="M253.47,445.84a2.24,2.24,0,0,1,1,2.82,2.15,2.15,0,0,1-2.79,1,2.36,2.36,0,0,1-1-3,2.23,2.23,0,0,1,3-.73" style="fill:#fff"></path></g><g style="opacity:0.6000000000000001"><path d="M258.75,465.5l.77-4.38L207.69,452s-2.61.54-2.69,2.28Z" style="fill:#fff"></path></g><path d="M235.55,444.23c-.05.26,1.24.66,2.35,1.77s1.57,2.36,1.84,2.31.19-1.65-1.19-3S235.54,444,235.55,444.23Z" style="fill:#263238"></path><path d="M229.42,445.38c-.12.24.93.93,1.59,2.22s.67,2.53.93,2.57.74-1.41-.11-3S229.48,445.13,229.42,445.38Z" style="fill:#263238"></path><path d="M224.8,451.46c.23.1.87-1.13.5-2.71s-1.48-2.41-1.64-2.22.44,1.13.73,2.43S224.55,451.38,224.8,451.46Z" style="fill:#263238"></path><path d="M237.35,438c.06.27,1.34.16,2.8.57s2.52,1.12,2.7.92-.73-1.36-2.46-1.82S237.26,437.76,237.35,438Z" style="fill:#263238"></path><path d="M240,431.88a5.14,5.14,0,0,0,2.7.55,12.34,12.34,0,0,0,3-.27,12.61,12.61,0,0,0,1.72-.5,3.11,3.11,0,0,0,.94-.46,1.16,1.16,0,0,0,.41-1.37,1.44,1.44,0,0,0-1-.84,3.18,3.18,0,0,0-1-.07,10.07,10.07,0,0,0-1.79.22,9.66,9.66,0,0,0-2.83,1.11c-1.49.89-2.12,1.78-2,1.85s.88-.58,2.35-1.27A11.13,11.13,0,0,1,245,430a11,11,0,0,1,1.65-.15c.6,0,1.09.07,1.18.35,0,.11,0,.15-.12.29a2.85,2.85,0,0,1-.7.34,13.27,13.27,0,0,1-1.59.51,14.89,14.89,0,0,1-2.81.45A20.35,20.35,0,0,0,240,431.88Z" style="fill:#263238"></path><path d="M240.23,432.33c.08.06.8-.77,1.25-2.45a9,9,0,0,0-.09-4.8,2.27,2.27,0,0,0-1.43-1.72,1.28,1.28,0,0,0-1.28.51,3.65,3.65,0,0,0-.49.93,6,6,0,0,0-.38,1.81,6.37,6.37,0,0,0,.57,3c.76,1.61,1.79,2.15,1.83,2.07a19.71,19.71,0,0,1-1.22-2.32,6.25,6.25,0,0,1-.32-2.71,5.76,5.76,0,0,1,.37-1.54c.21-.56.52-1,.72-.87s.63.58.76,1.08a9.64,9.64,0,0,1,.36,1.6,10.24,10.24,0,0,1,0,2.79C240.58,431.34,240.09,432.26,240.23,432.33Z" style="fill:#263238"></path><path d="M275.14,431.05l-9.28,43.16L212.1,462.94c1.39-5.07,31.36-9.55,31.36-9.55l4.81-27.9Z" style="fill:#FF725E"></path><g style="opacity:0.6000000000000001"><path d="M260.57,454.55a2.24,2.24,0,0,1,1,2.82,2.16,2.16,0,0,1-2.79,1,2.38,2.38,0,0,1-1-3,2.25,2.25,0,0,1,3-.73" style="fill:#fff"></path></g><g style="opacity:0.6000000000000001"><path d="M265.86,474.21l.76-4.39-51.82-9.16s-2.62.54-2.7,2.28Z" style="fill:#fff"></path></g><path d="M242.65,452.93c-.05.27,1.24.66,2.36,1.78s1.57,2.36,1.83,2.31.19-1.66-1.18-3S242.64,452.68,242.65,452.93Z" style="fill:#263238"></path><path d="M236.52,454.08c-.11.25.93.93,1.59,2.23s.67,2.52.93,2.57.75-1.41-.1-3S236.58,453.84,236.52,454.08Z" style="fill:#263238"></path><path d="M231.91,460.16c.22.11.86-1.13.49-2.71s-1.48-2.41-1.64-2.21.44,1.12.73,2.42S231.65,460.08,231.91,460.16Z" style="fill:#263238"></path><path d="M244.45,446.7c.06.26,1.34.15,2.8.56s2.52,1.12,2.71.93-.73-1.37-2.46-1.83S244.37,446.47,244.45,446.7Z" style="fill:#263238"></path><path d="M247.07,440.59a5.08,5.08,0,0,0,2.69.55,12.31,12.31,0,0,0,3-.28,13.16,13.16,0,0,0,1.72-.49,3.71,3.71,0,0,0,1-.46,1.2,1.2,0,0,0,.41-1.38,1.48,1.48,0,0,0-1-.84,3.79,3.79,0,0,0-1-.07,10.19,10.19,0,0,0-1.8.22,10,10,0,0,0-2.82,1.11c-1.49.9-2.12,1.79-2,1.86s.88-.59,2.34-1.27a10.92,10.92,0,0,1,2.69-.85,10.73,10.73,0,0,1,1.64-.16c.61,0,1.09.07,1.18.36,0,.1,0,.14-.12.29a2.78,2.78,0,0,1-.69.33,15.63,15.63,0,0,1-1.6.52,14.64,14.64,0,0,1-2.81.45A20,20,0,0,0,247.07,440.59Z" style="fill:#263238"></path><path d="M247.33,441c.09.06.8-.78,1.26-2.45a9.23,9.23,0,0,0,.25-3,8.48,8.48,0,0,0-.35-1.78,2.26,2.26,0,0,0-1.43-1.72,1.28,1.28,0,0,0-1.28.52,3.75,3.75,0,0,0-.48.93,5.92,5.92,0,0,0-.38,1.81,6.19,6.19,0,0,0,.56,3c.76,1.62,1.79,2.16,1.83,2.07a24.68,24.68,0,0,1-1.22-2.31,6.59,6.59,0,0,1-.32-2.71,5.49,5.49,0,0,1,.38-1.55c.2-.55.51-1,.71-.86s.64.57.76,1.07a8.73,8.73,0,0,1,.36,1.6,9.56,9.56,0,0,1,0,2.8C247.68,440,247.2,441,247.33,441Z" style="fill:#263238"></path><path d="M367.71,236.12c4.87,1.68,7.06,7.45,7.15,12.59s-1.27,10.28-.74,15.4c.29,2.84,1.16,5.66.87,8.49s-2.29,5.83-5.14,5.92c-2.39.07-4.4-1.93-5.3-4.15s-1-4.66-1.37-7a28,28,0,0,0-3.9-10c-1.92-3.06-4.36-5.76-6.35-8.78a71.07,71.07,0,0,1-6.19-13c-.95-2.37-1.91-4.94-1.29-7.42a7.54,7.54,0,0,1,6.26-5.27,12.35,12.35,0,0,1,8.25,2,18.41,18.41,0,0,1,8.19,12" style="fill:#263238"></path><path d="M368.55,278.94a21.5,21.5,0,0,1,3.74-4.57,13.45,13.45,0,0,1,3.36-3.54c1.48-1.09,3.91-1.13,4.93.41.85,1.31.34,3.1-.56,4.39a40.84,40.84,0,0,0-2.86,3.72,18.6,18.6,0,0,0-1.24,4.13,6.17,6.17,0,0,1-2.13,3.65c-2,1.38-5.05.27-6.2-1.88S367.25,281,368.55,278.94Z" style="fill:#FF725E"></path><path d="M374.55,272.15a9.82,9.82,0,0,1,3.23,1,4.87,4.87,0,0,1,1.61,1.69c.3.53.4.91.49.9s.1-.44-.13-1.07a4.16,4.16,0,0,0-1.67-2,4.76,4.76,0,0,0-2.49-.73C374.93,271.93,374.54,272.08,374.55,272.15Z" style="fill:#263238"></path><path d="M372.58,275c.05.08.39-.08.94,0a5.75,5.75,0,0,1,2,.93c1.51,1,2.46,2.14,2.59,2.05a5.12,5.12,0,0,0-2.29-2.52,4.39,4.39,0,0,0-2.31-.85C372.87,274.57,372.54,274.9,372.58,275Z" style="fill:#263238"></path><path d="M369.91,277.45c-.06,0,.06.49.49,1.1a5.53,5.53,0,0,0,2.25,1.85,5.59,5.59,0,0,0,2.88.47c.74-.09,1.16-.3,1.15-.36a7.4,7.4,0,0,1-6.77-3.06Z" style="fill:#263238"></path><path d="M367.87,280.86c-.06,0,0,.58.5,1.36a5.49,5.49,0,0,0,6.24,2.33c.87-.27,1.31-.64,1.28-.7a10.64,10.64,0,0,0-1.37.31,6,6,0,0,1-3.22-.25,6.13,6.13,0,0,1-2.6-1.92C368.17,281.33,368,280.83,367.87,280.86Z" style="fill:#263238"></path><path d="M343.37,227.8c-4.87-5-10.48-5.36-15.73-4.34s-10.32,4.65-11.51,9.86c-.59,2.55-.22,5.22-.46,7.82-.48,5.18-1.86,9.79-2.39,15-.95,9.1,3.82,17.31,9.7,24.31,3.8,4.51,8.65,9.46,14.49,8.71,4-.51,7.07-3.59,9.84-6.5" style="fill:#263238"></path><path d="M357.77,231.56l1.16,4.55,18.17,68c2.07,7.9-3.85,16.52-12.32,18.67h0c-8.56,2.17-13.64-3.4-15.86-11.35-2.34-8.33-4.94-17.07-4.94-17.07s-11.24,1.19-17.35-12.22c-3-6.67-5.84-18.2-7.84-27.71a15.37,15.37,0,0,1,12.52-18.32Z" style="fill:#ffbe9d"></path><path d="M331.34,261c-.27-.21-1.51,1-3.49,1.34s-3.59-.46-3.77-.18c-.09.12.21.52.91.88a5.14,5.14,0,0,0,3.07.45,5,5,0,0,0,2.73-1.37C331.33,261.53,331.47,261.06,331.34,261Z" style="fill:#263238"></path><path d="M349.3,256c-.29-.17-1.39,1.2-3.33,1.71s-3.62-.09-3.77.21c-.07.13.27.49,1,.78a5.06,5.06,0,0,0,3.09.12,4.85,4.85,0,0,0,2.57-1.65C349.35,256.56,349.44,256.08,349.3,256Z" style="fill:#263238"></path><path d="M339,271.13a13.75,13.75,0,0,0-3.3.31c-.5.08-1,.11-1.18-.2a2.68,2.68,0,0,1-.07-1.56q.19-2,.42-4.17c.55-5.91.8-10.73.56-10.75s-.87,4.77-1.42,10.68c-.13,1.46-.25,2.85-.36,4.18a3,3,0,0,0,.28,2,1.33,1.33,0,0,0,1,.5,4.15,4.15,0,0,0,.87-.12A12.46,12.46,0,0,0,339,271.13Z" style="fill:#263238"></path><path d="M344,294.4a36.9,36.9,0,0,0,17.39-10.2s-1.89,10.9-16.29,13.46Z" style="fill:#eb996e"></path><path d="M349.84,251.46c-.27-.52-2.22,0-4.59.08s-4.35-.32-4.59.21c-.11.25.29.71,1.13,1.13a8,8,0,0,0,7-.22C349.59,252.19,350,251.7,349.84,251.46Z" style="fill:#263238"></path><path d="M330.5,251.94c-.53-.33-2,.56-4,1.09s-3.69.66-3.95,1.22c-.11.27.27.64,1.1.87a6.72,6.72,0,0,0,3.44-.13,6.54,6.54,0,0,0,3-1.73C330.64,252.63,330.74,252.11,330.5,251.94Z" style="fill:#263238"></path><path d="M369.75,276.65c-5.21-.56-7.79-1.91-10.59-6.34s-4.15-9.6-5.28-14.72c-.64-2.91-1.28-6-3.24-8.24-2.3-2.64-5.9-3.62-9.15-4.93s-6.65-3.52-7.23-7c-.66-3.91,2.64-7.4,6.12-9.29,4.32-2.36,9.73-3.36,14.17-1.21,4.87,2.35,7.36,7.77,9.18,12.87a166.11,166.11,0,0,1,8.66,36.35" style="fill:#263238"></path><path d="M352.86,243.45c-.75-3-1.4-5.44-1.46-5.42s.5,2.46,1.24,5.48,1.39,5.44,1.45,5.42S353.6,246.46,352.86,243.45Z" style="fill:#263238"></path><path d="M374.87,270.59a10.46,10.46,0,0,0,4.19-10.45,19.07,19.07,0,0,0-3.47-6.87q-2.76-3.89-5.84-7.52" style="fill:#263238"></path><path d="M371.93,274.2a2.37,2.37,0,0,0,.23-.61,16.38,16.38,0,0,0,.52-1.8,27.71,27.71,0,0,0-1.21-16.85,24.23,24.23,0,0,0-7.56-9.91,23.93,23.93,0,0,0-5.63-3.26,22.25,22.25,0,0,0-5.9-1.46c-3.85-.33-7.31,0-10.15-.5a12.18,12.18,0,0,1-6.13-2.67,11.58,11.58,0,0,1-1.62-1.9,2.33,2.33,0,0,0,.29.59A7.77,7.77,0,0,0,336,237.3a12.07,12.07,0,0,0,6.21,2.9c2.9.56,6.4.27,10.17.62a21.93,21.93,0,0,1,5.74,1.46,23.2,23.2,0,0,1,5.5,3.19,24,24,0,0,1,7.42,9.67,27.43,27.43,0,0,1,2.08,9.82,30.3,30.3,0,0,1-.6,6.79C372.15,273.33,371.87,274.18,371.93,274.2Z" style="fill:#455a64"></path><path d="M371.7,243.59s0-.14-.05-.41a5.93,5.93,0,0,0-.35-1.15,8.45,8.45,0,0,0-2.74-3.41,13,13,0,0,0-6-2.42,24.38,24.38,0,0,0-7.93.53c-2.76.55-5.35,1.21-7.73,1.52a20.85,20.85,0,0,1-6.36-.08,11.87,11.87,0,0,1-4-1.46c-.88-.53-1.3-.92-1.33-.87s.08.12.28.3a6.39,6.39,0,0,0,.93.75,11.15,11.15,0,0,0,4.05,1.67,19.88,19.88,0,0,0,6.49.2c2.44-.28,5-.94,7.78-1.48a24.9,24.9,0,0,1,7.75-.57,12.88,12.88,0,0,1,5.86,2.23,8.65,8.65,0,0,1,2.78,3.18C371.54,243,371.64,243.61,371.7,243.59Z" style="fill:#455a64"></path><path d="M320.36,226.34a2,2,0,0,0-.11.77,6.5,6.5,0,0,0,.35,2.08,9.31,9.31,0,0,0,4.58,5.09,15.38,15.38,0,0,0,6.73,1.46,9.66,9.66,0,0,0,2.83-.21,23.32,23.32,0,0,0-2.82-.18,16.81,16.81,0,0,1-6.48-1.58,9.44,9.44,0,0,1-4.47-4.72A13.88,13.88,0,0,1,320.36,226.34Z" style="fill:#455a64"></path><path d="M315.9,236.54c-.06,0,0,.52.4,1.22a5.7,5.7,0,0,0,5.31,2.69c.8-.09,1.24-.34,1.22-.4a7,7,0,0,0-1.24,0,6.44,6.44,0,0,1-2.76-.7,6.59,6.59,0,0,1-2.2-1.81C316.18,237,316,236.51,315.9,236.54Z" style="fill:#455a64"></path><path d="M340.64,276.48c.38.11-.11.8.17,1.08a1.64,1.64,0,0,0,1.06.44c1.46.12,4-1.45,3.9-3.35a3.14,3.14,0,0,0-3.37-1.15C340,274,338.33,275.8,340.64,276.48Z" style="fill:#eb996e"></path><path d="M340.15,278.76c.3.12,1-1.95,3.26-2.82s4.38.09,4.5-.2c.07-.11-.36-.56-1.28-.9a5.43,5.43,0,0,0-3.71.05,4.76,4.76,0,0,0-2.61,2.41C340,278.13,340,278.72,340.15,278.76Z" style="fill:#263238"></path><path d="M348.84,258.42c.1.1-.51.81-1.58,1.16s-2,.16-2,0,.84-.19,1.79-.52S348.74,258.31,348.84,258.42Z" style="fill:#eb996e"></path><path d="M329.27,264.19c.05.13-.78.56-1.9.5s-1.9-.57-1.83-.69.85.13,1.86.17S329.22,264.05,329.27,264.19Z" style="fill:#eb996e"></path><path d="M386.82,356.61l-2.84,25a1,1,0,0,1-1.33.85L325.13,367l-10.72,17.75,60.46,23.5c10.26,3.39,19.67,4.06,26.71-2.11h0c5.07-4.43,7.41-10.59,8.48-17.53.26-1.72.7-3.42.88-5.15l3.23-24.64C406.36,360,396.61,358.93,386.82,356.61Z" style="fill:#ffbe9d"></path><path d="M391,395.21c-.09,0-.07-.9-.3-2.33a15.92,15.92,0,0,0-5.41-9.58c-1.1-.93-1.88-1.38-1.84-1.46a6.38,6.38,0,0,1,2.07,1.17,14.52,14.52,0,0,1,3.79,4.34,14.22,14.22,0,0,1,1.75,5.48A6.55,6.55,0,0,1,391,395.21Z" style="fill:#eb996e"></path><path d="M236.11,423.88c0-1.5,8.4-48.57,10.78-69.24.92-8,7.84-15.51,15.27-18.68h0a22.49,22.49,0,0,1,28.91,10.63l58.76,125.14H338.11c-8.85-.52-24.16.51-39.37-30.26l-13.08-28-15.91-5.88-6.05,24.21Z" style="fill:#263238"></path><path d="M399.85,438.82,398,424.47,361.79,408.8l-53.7-66.69a27.53,27.53,0,0,0-17.53-11.61l-1.86-.36a27.49,27.49,0,0,0-18.92,3.11h0a27.49,27.49,0,0,0-12.69,15.93l-15.87,82.89L277,438l9.23-47,34.5,59.55c8.83,17,25.72,21.65,30.92,21.31l19.85.34A29.11,29.11,0,0,0,399.85,438.82Z" style="fill:#263238"></path><path d="M364.29,472.62l-.31,0-.92,0c-.8,0-2,0-3.52,0a70.11,70.11,0,0,1-12.9-1.33,38.82,38.82,0,0,1-8.51-2.81,31.5,31.5,0,0,1-8.51-5.79,59.87,59.87,0,0,1-7.14-8.85c-2.25-3.24-4.41-6.7-6.53-10.3-4.25-7.19-7.9-14.27-11.36-20.61s-6.77-12-9.51-16.68-5-8.52-6.53-11.19l-1.77-3-.45-.8a1.37,1.37,0,0,1-.14-.28s.07.08.18.25l.5.77,1.85,3c1.6,2.61,3.89,6.4,6.68,11.1s6.08,10.32,9.61,16.64,7.15,13.4,11.39,20.58c2.12,3.59,4.27,7,6.5,10.27a58.77,58.77,0,0,0,7.06,8.79,31.07,31.07,0,0,0,8.35,5.75,39,39,0,0,0,8.41,2.84,73.75,73.75,0,0,0,12.82,1.48l3.52.11.92,0Z" style="fill:#455a64"></path><path d="M283.33,329.63l-.56.09c-.37,0-.92.09-1.64.24a25.62,25.62,0,0,0-2.63.55c-.51.14-1.07.27-1.66.46l-1.84.65a29.42,29.42,0,0,0-8.56,5.19,31.38,31.38,0,0,0-4.3,4.55,33,33,0,0,0-3.61,6c-2.13,4.48-2.71,9.95-3.87,15.65s-2.26,11.85-3.48,18.28c-2.46,12.88-5.16,27-8,41.89-.58,3-1.15,6-1.71,8.92l-.21-.31,35.74,6-.27.19c6.94-37.08,11.44-61.1,11.83-63.16,0,0,0,.41-.15,1.2s-.31,2-.56,3.45c-.53,3-1.31,7.44-2.29,13-2,11.16-4.94,26.95-8.36,45.61l-.05.23-.23,0-35.75-5.92-.26-.05L241,432c.56-2.93,1.13-5.91,1.71-8.92,2.85-14.85,5.57-29,8-41.88,1.24-6.43,2.42-12.55,3.52-18.27.56-2.86,1.09-5.63,1.6-8.28a34.09,34.09,0,0,1,2.37-7.44,32.73,32.73,0,0,1,3.67-6.07,32,32,0,0,1,4.38-4.57,29.5,29.5,0,0,1,8.68-5.16l1.86-.64c.59-.18,1.15-.29,1.67-.43a24.56,24.56,0,0,1,2.66-.51A18.84,18.84,0,0,1,283.33,329.63Z" style="fill:#455a64"></path><path d="M387.18,449.16a14.35,14.35,0,0,1-.15-1.77,30.9,30.9,0,0,0-.75-4.74,39.63,39.63,0,0,0-6.88-14.17,85.79,85.79,0,0,0-10.82-11.62L365,413.59a10.33,10.33,0,0,1-1.27-1.24,11.28,11.28,0,0,1,1.4,1.09c.88.73,2.14,1.79,3.68,3.14a78.55,78.55,0,0,1,11,11.59,38.15,38.15,0,0,1,6.82,14.4,26.59,26.59,0,0,1,.6,4.81,12.88,12.88,0,0,1,0,1.32A1.52,1.52,0,0,1,387.18,449.16Z" style="fill:#455a64"></path><path d="M390.42,440.26c-.11,0-.51-1.89-1.72-4.78-.31-.73-.65-1.51-1.09-2.32s-.93-1.67-1.45-2.56a38.06,38.06,0,0,0-4.1-5.33,37.55,37.55,0,0,0-5.05-4.45c-.85-.58-1.65-1.16-2.45-1.61s-1.54-.89-2.24-1.25c-2.81-1.4-4.7-1.93-4.67-2a7,7,0,0,1,1.33.35,13.24,13.24,0,0,1,1.53.52c.58.24,1.26.48,2,.84s1.5.72,2.3,1.2,1.64,1,2.51,1.6a36.48,36.48,0,0,1,5.15,4.48,35.69,35.69,0,0,1,4.13,5.44c.52.91,1,1.76,1.42,2.61a24.56,24.56,0,0,1,1.05,2.38c.31.72.5,1.42.7,2a16,16,0,0,1,.43,1.55A8.27,8.27,0,0,1,390.42,440.26Z" style="fill:#455a64"></path><path d="M397.09,409.27c2.68,1.18,3.36,4.46,2.55,7.27a3.19,3.19,0,0,0-.24,1.6,2.75,2.75,0,0,0,1.05,1.32,13.6,13.6,0,0,1,2.38,2.7,3.57,3.57,0,0,1,.76,2.4,2.64,2.64,0,0,1-1.81,1.92,6.48,6.48,0,0,1-2.74.18c-6.27-.59-12.13-3.34-17.68-6.32s-11.44-9.52-20.36-12.52C374.37,409.33,390.4,414.31,397.09,409.27Z" style="fill:#FF725E"></path><path d="M372.71,287.74c1,2.89,1.59,6.58.07,9.24-1.27,2.23-3.92,3.26-5.69,5.12a8.28,8.28,0,0,0-1.82,8.15c1.07,3.21,4.15,5.95,3.62,9.28-.39,2.45-2.6,4.11-4.24,6A15.44,15.44,0,0,0,361.23,339l12.25,1.8a12.54,12.54,0,0,1,1.61-6.31q1.19,2.48,2.35,4.95l3-2.85c-2.11-2.26-2.4-5.72-1.75-8.74s2.1-5.8,3.09-8.73,1.5-6.22.26-9.05c-1-2.25-3-4.18-3-6.63.06-1.65,1.09-3.07,1.81-4.55a12.94,12.94,0,0,0-1.16-13" style="fill:#263238"></path><path d="M315.26,235.62l-11.88,6.14L313.1,260l8.86-3.82s6.42,1.49,8.14-2.39l-8.14-1.1-6.35,2,7.54-4s9,2,10.79-2.86l-12-1.25s11.63.85,10.79-3.72l-11.5,0-11.63,2.46,7.4-5.81s10.4-1.06,11.81-3.88Z" style="fill:#ffbe9d"></path><path d="M305.38,270.92s.07,0,.21-.11l.66-.28a11.45,11.45,0,0,0,2.45-1.28,8.18,8.18,0,0,0,2.72-3.44,19.4,19.4,0,0,0,.77-2.73L313,260a.14.14,0,0,1,.08-.1l8.85-3.86H322a12,12,0,0,0,4.29.14,4.51,4.51,0,0,0,3.63-2.43l.15.28-8.14-1.08H322l-6.34,2a.23.23,0,0,1-.17-.42l7.53-4a.31.31,0,0,1,.13,0,32.28,32.28,0,0,0,5.7-.22,13.12,13.12,0,0,0,2.83-.68,2.94,2.94,0,0,0,2-1.77l.22.3-12-1.25a.26.26,0,0,1,0-.51,37.67,37.67,0,0,0,4.72-.16,12.67,12.67,0,0,0,4.64-1.19,2.74,2.74,0,0,0,1-.87,1.63,1.63,0,0,0,.19-1.19l.26.21H321.3l-11.63,2.46a.25.25,0,0,1-.29-.2.24.24,0,0,1,.09-.24l7.4-5.81a.24.24,0,0,1,.13-.05,49.64,49.64,0,0,0,6.38-1.11,25.4,25.4,0,0,0,2.95-1,4.78,4.78,0,0,0,2.3-1.68l.2.32-13.57,0,.09,0-11.9,6.1.05,0-6.17,8.94-1.65,2.35-.43.6a1.58,1.58,0,0,1-.16.2,1.51,1.51,0,0,1,.13-.22l.4-.62,1.58-2.39,6.06-9,.06,0,11.85-6.19.09,0,13.57,0h0a.21.21,0,0,1,.21.21.2.2,0,0,1,0,.11,5.23,5.23,0,0,1-2.53,1.89,23.52,23.52,0,0,1-3,1,50.58,50.58,0,0,1-6.44,1.15l.12-.05-7.39,5.82-.21-.44,11.63-2.48h.05l11.5,0a.26.26,0,0,1,.25.21,2.1,2.1,0,0,1-.26,1.56,3.2,3.2,0,0,1-1.15,1,13.4,13.4,0,0,1-4.85,1.26,36.89,36.89,0,0,1-4.79.15l0-.51,12,1.26a.25.25,0,0,1,.22.27v0a2.51,2.51,0,0,1-.93,1.37,5.19,5.19,0,0,1-1.38.76,13.51,13.51,0,0,1-2.94.7,33.44,33.44,0,0,1-5.8.22l.13,0-7.55,4-.18-.43,6.35-2h.1l8.14,1.12a.2.2,0,0,1,.17.23.43.43,0,0,1,0,0,4.92,4.92,0,0,1-3.94,2.65,12.78,12.78,0,0,1-4.43-.17H322l-8.88,3.79.08-.09c-.28,1.1-.55,2.14-.8,3.13a18.4,18.4,0,0,1-.81,2.74,8.3,8.3,0,0,1-2.83,3.48,11.36,11.36,0,0,1-2.51,1.23l-.67.25Z" style="fill:#eb996e"></path><path d="M322,246.55a19.31,19.31,0,0,1-4.79,2,40.14,40.14,0,0,1-4.94,1.5,18.92,18.92,0,0,1,4.78-2A40,40,0,0,1,322,246.55Z" style="fill:#eb996e"></path></g><g id="freepik--Plant--inject-17"><rect x="63.12" y="414.44" width="69.26" height="9.52" style="fill:#263238"></rect><path d="M132.49,424.07H63v-9.75h69.49Zm-69.26-.24h69v-9.27h-69Z" style="fill:#263238"></path><polygon points="69.54 420.79 79.51 469.97 116.39 469.97 126.03 423.95 69.54 420.79" style="fill:#263238"></polygon><polygon points="69.54 465.31 74.85 472.63 119.69 472.63 126.03 465.31 69.54 465.31" style="fill:#263238"></polygon><path d="M95.14,422.22c-.13,0-.31-22.78-.39-50.88s0-50.89.11-50.89.31,22.78.39,50.89S95.28,422.22,95.14,422.22Z" style="fill:#263238"></path><path d="M110.57,365.21a2.42,2.42,0,0,1-.18.53c-.17.38-.37.87-.62,1.47l-.45,1.06c-.15.4-.3.83-.47,1.29s-.34,1-.53,1.49-.33,1.1-.51,1.69a68.43,68.43,0,0,0-1.94,8.48,104.26,104.26,0,0,0-1.07,10.6,141.87,141.87,0,0,0,.55,19.37c.22,2.48.44,4.47.61,5.85.07.65.13,1.18.17,1.6a2,2,0,0,1,0,.56,2.41,2.41,0,0,1-.13-.55c-.07-.41-.15-.94-.26-1.58-.23-1.37-.5-3.37-.77-5.84a126.94,126.94,0,0,1-.69-19.43,97.11,97.11,0,0,1,1.11-10.66,65.33,65.33,0,0,1,2-8.5c.2-.59.36-1.17.55-1.69s.4-1,.58-1.48.34-.89.5-1.29.34-.73.49-1.05l.71-1.44A2.48,2.48,0,0,1,110.57,365.21Z" style="fill:#263238"></path><path d="M108.8,346.78a4.4,4.4,0,0,1-.22.75l-.72,2.12-.53,1.52c-.17.57-.36,1.19-.56,1.84-.4,1.32-.87,2.82-1.29,4.51l-.69,2.63c-.21.93-.43,1.89-.65,2.88-.49,2-.84,4.14-1.28,6.39-.77,4.52-1.44,9.53-1.9,14.8s-.63,10.33-.7,14.92,0,8.73.24,12.2c.06,1.73.17,3.3.26,4.68s.16,2.56.25,3.53.13,1.67.17,2.23a7.57,7.57,0,0,1,0,.78,4.34,4.34,0,0,1-.13-.77c-.06-.55-.15-1.29-.26-2.22s-.23-2.15-.34-3.53-.25-3-.33-4.68c-.24-3.48-.33-7.62-.34-12.22s.22-9.66.66-15,1.15-10.31,1.94-14.84c.46-2.26.82-4.41,1.33-6.4.23-1,.46-2,.68-2.88l.72-2.64c.44-1.68.94-3.18,1.37-4.49.21-.65.41-1.27.6-1.83s.39-1.06.57-1.52l.81-2.09A4.19,4.19,0,0,1,108.8,346.78Z" style="fill:#263238"></path><path d="M90.76,426.25a1.11,1.11,0,0,1,0-.26c0-.21,0-.47-.06-.79,0-.72-.12-1.73-.21-3-.16-2.66-.4-6.44-.69-11.1-.6-9.37-1.47-22.32-3.05-36.55-.8-7.12-1.74-13.87-2.71-20-.51-3.06-1-6-1.51-8.68s-1-5.23-1.5-7.53-1-4.36-1.37-6.18-.79-3.38-1.11-4.65-.55-2.23-.72-2.94c-.07-.31-.13-.56-.18-.76a1.41,1.41,0,0,1,0-.27.9.9,0,0,1,.09.25l.22.76q.3,1.05.81,2.91c.36,1.27.77,2.82,1.2,4.64s1,3.87,1.44,6.17,1,4.81,1.56,7.52,1,5.62,1.56,8.68c1,6.14,2,12.9,2.75,20,1.58,14.24,2.4,27.2,2.91,36.58.25,4.69.43,8.48.54,11.11,0,1.28.08,2.29.11,3,0,.32,0,.58,0,.78A.7.7,0,0,1,90.76,426.25Z" style="fill:#263238"></path><path d="M94.58,331.4c-.3-3.23-3.56-5.66-6.81-5.69s-6.26,1.91-8.24,4.47a25.83,25.83,0,0,0-4,8.81c-2.18,7.61-3.38,15.6-2.44,23.45s4.12,15.6,9.75,21.15c.92.9,2.11,1.8,3.37,1.53A4,4,0,0,0,88,384a52.5,52.5,0,0,0,17-39.91c-.09-3-.48-6.1-2.13-8.58s-5.51-5.14-8.33-4.14" style="fill:#FF725E"></path><path d="M70.37,305.55l-4.56,8.27c-.11.19-.25.41-.47.42s-.42-.2-.55-.4L52.72,295.31l2.78-1.58Z" style="fill:#FF725E"></path><g style="opacity:0.2"><path d="M70.37,305.55l-4.56,8.27c-.11.19-.25.41-.47.42s-.42-.2-.55-.4L52.72,295.31l2.78-1.58Z"></path></g><path d="M94.86,320.45l-41.18-24.3a1.93,1.93,0,0,1-1-1c-.17-.61.29-1.2.73-1.65a28.36,28.36,0,0,1,22-8.64,25.13,25.13,0,0,1,19.89,12.37c4,7.1,4.1,16.49-.45,23.23" style="fill:#FF725E"></path><path d="M59.62,288.4a2,2,0,0,1,.54-.07c.35,0,.87-.08,1.55-.08a31.14,31.14,0,0,1,5.71.46,33.18,33.18,0,0,1,8.14,2.47,33.37,33.37,0,0,1,18.52,21.64,32.07,32.07,0,0,1,1,5.64c.07.68.06,1.2.08,1.56a1.75,1.75,0,0,1,0,.54s-.09-.74-.25-2.08a35.31,35.31,0,0,0-1.17-5.56,34.22,34.22,0,0,0-32-24.47C60.37,288.42,59.62,288.44,59.62,288.4Z" style="fill:#263238"></path><path d="M89.28,303.68a9.67,9.67,0,0,1-2.08.94c-1.31.52-3.14,1.18-5.19,1.83s-3.93,1.17-5.3,1.51a10.7,10.7,0,0,1-2.25.43,10.67,10.67,0,0,1,2.15-.77L81.86,306l5.23-1.68A10.2,10.2,0,0,1,89.28,303.68Z" style="fill:#263238"></path><path d="M82.8,286.26a17.87,17.87,0,0,1,.49,4.59,17.33,17.33,0,0,1-.26,4.62,29.32,29.32,0,0,1-.24-4.6A28.69,28.69,0,0,1,82.8,286.26Z" style="fill:#263238"></path><path d="M53.32,295.69a18.2,18.2,0,0,1,3-1.05c1.87-.58,4.48-1.31,7.38-2s5.56-1.23,7.49-1.57a19.41,19.41,0,0,1,3.14-.43,22.84,22.84,0,0,1-3.07.77c-1.91.42-4.54,1-7.44,1.71s-5.51,1.37-7.4,1.86A21.88,21.88,0,0,1,53.32,295.69Z" style="fill:#263238"></path><path d="M75.87,323.76c-3.54-2.68-7.28-3.21-11.73-3A35.76,35.76,0,0,0,51.31,324c-6.94,3-13.47,7.52-17.62,13.86s-5.59,14.75-2.48,21.66a3.11,3.11,0,0,0,1.4,1.71,3.43,3.43,0,0,0,2.33-.18c7.89-2.58,15.85-5.18,23.11-9.21s13.87-9.64,17.76-17a14.48,14.48,0,0,0,1.87-5.63,7,7,0,0,0-1.81-5.51" style="fill:#FF725E"></path><path d="M75.94,322.93a2.75,2.75,0,0,1-.57.23l-1.65.57-1.2.4-1.4.54c-1,.41-2.16.81-3.38,1.41L65.8,327c-.67.31-1.34.69-2,1.05-1.43.7-2.88,1.6-4.42,2.51A76.78,76.78,0,0,0,50,337.46a75.6,75.6,0,0,0-8.07,8.39c-1.1,1.41-2.18,2.73-3.06,4.06-.44.66-.91,1.28-1.3,1.91l-1.12,1.8c-.75,1.14-1.29,2.24-1.82,3.18-.26.47-.51.91-.72,1.32l-.55,1.13-.78,1.57a2.82,2.82,0,0,1-.3.54,3.52,3.52,0,0,1,.21-.58l.7-1.61c.15-.35.32-.74.51-1.16s.44-.86.68-1.34c.51-1,1-2.07,1.77-3.23l1.1-1.83c.39-.64.84-1.26,1.29-1.93.87-1.35,1.94-2.69,3-4.12a73.67,73.67,0,0,1,8.09-8.47,74.62,74.62,0,0,1,9.44-7c1.56-.9,3-1.79,4.47-2.48.72-.36,1.4-.73,2.08-1l2-.85c1.24-.58,2.41-1,3.42-1.34.51-.19,1-.37,1.42-.51l1.22-.36,1.69-.48A2.4,2.4,0,0,1,75.94,322.93Z" style="fill:#263238"></path><path d="M48.27,337.91a84.07,84.07,0,0,1-8.61,2.78,83.93,83.93,0,0,1-8.75,2.3,82.19,82.19,0,0,1,8.61-2.78A84.66,84.66,0,0,1,48.27,337.91Z" style="fill:#263238"></path><path d="M47.92,356.92a13.82,13.82,0,0,1-.19-2.68c0-1.66,0-4,0-6.49s.21-4.82.34-6.48a14.81,14.81,0,0,1,.34-2.67,15.17,15.17,0,0,1,0,2.69c0,1.82-.12,4-.2,6.47s-.11,4.66-.16,6.48A14.81,14.81,0,0,1,47.92,356.92Z" style="fill:#263238"></path><path d="M64.2,348.62c-.13,0-.56-4.65-1-10.41s-.61-10.43-.48-10.44.57,4.65,1,10.41S64.34,348.61,64.2,348.62Z" style="fill:#263238"></path><path d="M43.93,327.32a15,15,0,0,1,2.77-.09c1.7,0,4,.07,6.64.15s4.95.19,6.65.29a14.77,14.77,0,0,1,2.75.27A15.61,15.61,0,0,1,60,328c-1.7,0-4.06-.06-6.65-.15s-4.95-.19-6.65-.29A16.71,16.71,0,0,1,43.93,327.32Z" style="fill:#263238"></path><path d="M84.64,385.8a2.05,2.05,0,0,1-.06-.56c0-.42,0-1-.07-1.62-.06-1.4-.08-3.44,0-5.95s.22-5.51.51-8.82.79-7,1.45-10.73,1.5-7.35,2.35-10.57,1.74-6.07,2.56-8.45,1.54-4.28,2.08-5.58c.26-.61.47-1.1.63-1.49a2.2,2.2,0,0,1,.25-.51,2.29,2.29,0,0,1-.16.54l-.54,1.53c-.48,1.31-1.15,3.23-1.92,5.62s-1.63,5.25-2.46,8.46-1.62,6.77-2.3,10.54-1.14,7.38-1.48,10.68-.53,6.28-.62,8.79-.13,4.54-.13,5.94c0,.66,0,1.2,0,1.62A2.2,2.2,0,0,1,84.64,385.8Z" style="fill:#263238"></path><path d="M86.81,357.71a11.15,11.15,0,0,1-1.64,1.8c-1.07,1.07-2.58,2.49-4.3,4s-3.34,2.83-4.54,3.75a11.14,11.14,0,0,1-2,1.39A13.26,13.26,0,0,1,76.11,367l4.43-3.85,4.39-3.88A12.09,12.09,0,0,1,86.81,357.71Z" style="fill:#263238"></path><path d="M99.84,368.21a20.27,20.27,0,0,1-1.74-2.42L94,359.85,89.87,354a18.41,18.41,0,0,1-1.66-2.48,16,16,0,0,1,1.94,2.27c1.14,1.45,2.67,3.49,4.28,5.81s3,4.45,4,6A15.8,15.8,0,0,1,99.84,368.21Z" style="fill:#263238"></path><path d="M93,335.19c.07.12-4.26,3-9.67,6.51s-9.86,6.21-9.94,6.1,4.26-3,9.67-6.51S92.94,335.08,93,335.19Z" style="fill:#263238"></path><path d="M105.22,348.37a83.75,83.75,0,0,1-6.54-6.05,79.86,79.86,0,0,1-6.21-6.41A78.57,78.57,0,0,1,99,342,78.58,78.58,0,0,1,105.22,348.37Z" style="fill:#263238"></path><path d="M108.29,348.1l3.72-.3a18.42,18.42,0,0,0,7.51-2.3,30.81,30.81,0,0,1,3.49-1.76c4.6-1.84,9.73-1.51,14.67-1.76A60.8,60.8,0,0,0,161,336a2.22,2.22,0,0,0,1-.92c.76-1.39-.65-2.63-1.87-3.38-6.27-3.86-12.64-7.77-19.74-9.68s-15.16-1.59-21.22,2.58c-7.11,4.89-9.7,14.94-10.91,23.49" style="fill:#FF725E"></path><path d="M162.11,334.63a3.19,3.19,0,0,1-.63-.29l-1.76-.92c-1.53-.81-3.72-2-6.5-3.33a61.77,61.77,0,0,0-10.08-3.88,33.22,33.22,0,0,0-13-1,22.28,22.28,0,0,0-11.9,5.11A26.55,26.55,0,0,0,112,339a71,71,0,0,0-2.69,6.78c-.28.77-.5,1.4-.66,1.87a4.46,4.46,0,0,1-.26.64,3.5,3.5,0,0,1,.16-.67c.15-.48.34-1.12.58-1.91a61.17,61.17,0,0,1,2.56-6.86,26.27,26.27,0,0,1,6.21-8.89A22.47,22.47,0,0,1,130,324.67a33.19,33.19,0,0,1,13.24,1.1,59.61,59.61,0,0,1,10.1,4c2.77,1.38,4.94,2.61,6.45,3.47l1.71,1A4.5,4.5,0,0,1,162.11,334.63Z" style="fill:#263238"></path><path d="M153.19,339.43c-.08.11-4.94-3-10.86-7s-10.65-7.32-10.58-7.44,4.94,3,10.86,7S153.26,339.32,153.19,339.43Z" style="fill:#263238"></path><path d="M148.52,324.51a11.39,11.39,0,0,1-3.79.76,11.17,11.17,0,0,1-3.87-.06,22,22,0,0,1,3.82-.43A22.49,22.49,0,0,1,148.52,324.51Z" style="fill:#263238"></path><path d="M126.73,320.6a13.37,13.37,0,0,1-1.6,3.19,13.08,13.08,0,0,1-2,2.94,12.92,12.92,0,0,1,1.6-3.19A12.71,12.71,0,0,1,126.73,320.6Z" style="fill:#263238"></path><path d="M131.08,342.29a12.36,12.36,0,0,1-2.34-1.27c-1.4-.85-3.3-2.1-5.33-3.57s-3.81-2.86-5.1-3.88a15.27,15.27,0,0,1-2-1.73,13.47,13.47,0,0,1,2.23,1.45l5.18,3.76c2,1.47,3.88,2.76,5.23,3.68A15.45,15.45,0,0,1,131.08,342.29Z" style="fill:#263238"></path><path d="M113.77,363.89c-3.55-.93-7.77,2.51-8.5,6.11s.61,7.27,2.19,10.58a54,54,0,0,0,14.66,19.18c6.35,5.05,14.3,8.29,22.41,8.25-1.49-7,.4-14.24-.43-21.31a27.73,27.73,0,0,0-24.55-24.3c-2.26-.24-4.88-.6-5.78,1.49" style="fill:#FF725E"></path><path d="M144.53,408a3.26,3.26,0,0,1-.5-.24,8.64,8.64,0,0,1-1.33-.89,13.89,13.89,0,0,1-3.5-4.68c-.56-1.1-1.19-2.29-1.81-3.61l-1.91-4.21a40.48,40.48,0,0,0-2.34-4.51,35,35,0,0,0-3.23-4.39c-2.42-2.85-5-5.31-7.28-7.67a50.33,50.33,0,0,1-5.56-6.67,24.81,24.81,0,0,1-2.72-5.18,15.9,15.9,0,0,1-.47-1.52,2,2,0,0,1-.11-.55s.24.73.76,2a26.82,26.82,0,0,0,2.83,5.06,51.89,51.89,0,0,0,5.59,6.54c2.27,2.34,4.89,4.8,7.34,7.68a34.66,34.66,0,0,1,3.26,4.45,38.9,38.9,0,0,1,2.35,4.57c.65,1.49,1.28,2.9,1.86,4.23s1.21,2.52,1.75,3.62a14.28,14.28,0,0,0,3.32,4.7C143.86,407.63,144.56,408,144.53,408Z" style="fill:#263238"></path><path d="M126.2,402.22a11,11,0,0,1,.33-2.38c.28-1.46.73-3.47,1.35-5.65s1.27-4.13,1.79-5.52a11.27,11.27,0,0,1,1-2.21,12.29,12.29,0,0,1-.64,2.32c-.43,1.42-1,3.37-1.65,5.54s-1.12,4.16-1.48,5.59A12.81,12.81,0,0,1,126.2,402.22Z" style="fill:#263238"></path><path d="M143.86,385.14a16,16,0,0,1-2.49-.58c-1.53-.4-3.64-.94-6-1.47s-4.49-.94-6-1.24a14.34,14.34,0,0,1-2.5-.55,12.28,12.28,0,0,1,2.56.21c1.57.21,3.73.57,6.09,1.1s4.47,1.13,6,1.62A10.92,10.92,0,0,1,143.86,385.14Z" style="fill:#263238"></path><path d="M113.05,390.1a13.86,13.86,0,0,1,.38-2.76c.31-1.69.81-4,1.47-6.56s1.37-4.82,1.93-6.44a14.55,14.55,0,0,1,1-2.6,16.24,16.24,0,0,1-.68,2.7c-.47,1.65-1.12,3.93-1.78,6.46s-1.21,4.84-1.61,6.51A16.32,16.32,0,0,1,113.05,390.1Z" style="fill:#263238"></path><path d="M135.73,370.25c0,.13-4.44-.23-9.88-.8s-9.85-1.16-9.84-1.29a97.29,97.29,0,0,1,9.89.8A96.17,96.17,0,0,1,135.73,370.25Z" style="fill:#263238"></path><path d="M132.49,423.91c0,.14-15.56.25-34.74.25S63,424.05,63,423.91s15.55-.24,34.75-.24S132.49,423.78,132.49,423.91Z" style="fill:#455a64"></path><path d="M121.66,443.93c0,.14-10.48.25-23.4.25s-23.41-.11-23.41-.25,10.48-.24,23.41-.24S121.66,443.8,121.66,443.93Z" style="fill:#455a64"></path><path d="M122.07,446.79c0,.14-10.48.25-23.4.25s-23.41-.11-23.41-.25,10.47-.24,23.41-.24S122.07,446.66,122.07,446.79Z" style="fill:#455a64"></path><path d="M122.07,441.57c0,.14-10.84.25-24.21.25s-24.21-.11-24.21-.25,10.84-.24,24.21-.24S122.07,441.44,122.07,441.57Z" style="fill:#455a64"></path></g><g id="freepik--Heart--inject-17"><path d="M184.29,289.66c-58.42-11.05-117.41-42.08-147.76-93.21-11-18.58-17.18-43.39-13.84-64.74,4-25.29,29.79-50.63,58.06-56.69,25-5.36,54,11.18,64.94,34.34l-.26,34.32,24.91,12.86-4.8,33.66,35.59,22.05Z" style="fill:#FF725E"></path><g style="opacity:0.7000000000000001"><path d="M184.29,289.66c-58.42-11.05-117.41-42.08-147.76-93.21-11-18.58-17.18-43.39-13.84-64.74,4-25.29,29.79-50.63,58.06-56.69,25-5.36,54,11.18,64.94,34.34l-.26,34.32,24.91,12.86-4.8,33.66,35.59,22.05Z" style="fill:#fff"></path></g><path d="M88.73,149l22.6,57.93,30.73-5.53c-.83-3.53-6.7-22.5-6.7-22.5s11.82-5.57,8.33-18c-1.69-6-6.2-18.22-10.4-29.15a23.89,23.89,0,0,0-30.37-13.93h0A23.89,23.89,0,0,0,88.73,149Z" style="fill:#b78876"></path><path d="M135.33,178.7a30.07,30.07,0,0,1-17.5.15s6.44,7.8,18.47,3.05Z" style="fill:#a36957"></path><path d="M132.68,140.86a1.85,1.85,0,0,1-1.18,2.29,1.78,1.78,0,0,1-2.3-1.06,1.85,1.85,0,0,1,1.18-2.29A1.77,1.77,0,0,1,132.68,140.86Z" style="fill:#263238"></path><path d="M132.48,138.76c-.15.29-1.78-.3-3.69.26s-3,1.93-3.29,1.75c-.13-.07,0-.55.45-1.17a5,5,0,0,1,2.55-1.69,4.87,4.87,0,0,1,3,.08C132.23,138.27,132.56,138.62,132.48,138.76Z" style="fill:#263238"></path><path d="M114.17,146.79a1.84,1.84,0,0,1-1.18,2.28A1.75,1.75,0,0,1,110.7,148a1.84,1.84,0,0,1,1.18-2.28A1.76,1.76,0,0,1,114.17,146.79Z" style="fill:#263238"></path><path d="M113.88,144.61c-.16.3-1.79-.3-3.69.27s-3,1.92-3.29,1.75,0-.56.45-1.18a5,5,0,0,1,2.55-1.69,4.84,4.84,0,0,1,3,.08C113.63,144.12,114,144.48,113.88,144.61Z" style="fill:#263238"></path><path d="M124.93,156.7a12.82,12.82,0,0,1,2.93-1.47c.47-.19.9-.42.88-.78a2.49,2.49,0,0,0-.74-1.34l-2.53-3.28c-3.54-4.69-6.26-8.59-6.07-8.73s3.22,3.54,6.76,8.22c.86,1.16,1.69,2.26,2.47,3.32a2.85,2.85,0,0,1,.81,1.83,1.23,1.23,0,0,1-.59.94,3,3,0,0,1-.79.36A13.51,13.51,0,0,1,124.93,156.7Z" style="fill:#263238"></path><path d="M119.72,159.66c.3-.11.91,2,3.11,2.9s4.33.08,4.43.36c.07.12-.37.54-1.29.84a5.36,5.36,0,0,1-3.67-.18,4.66,4.66,0,0,1-2.48-2.47C119.49,160.27,119.57,159.69,119.72,159.66Z" style="fill:#263238"></path><path d="M112.17,137c0,.57-2,.89-4.16,1.81s-3.78,2.07-4.21,1.69c-.2-.18,0-.76.55-1.48a7.69,7.69,0,0,1,2.89-2.07,7.39,7.39,0,0,1,3.49-.59C111.65,136.46,112.18,136.74,112.17,137Z" style="fill:#263238"></path><path d="M130.16,133.46c-.21.53-1.65.46-3.23.91s-2.83,1.14-3.27.78c-.2-.18-.12-.67.35-1.25a4.54,4.54,0,0,1,2.41-1.48,4.59,4.59,0,0,1,2.82.11C129.93,132.81,130.25,133.2,130.16,133.46Z" style="fill:#263238"></path><path d="M98.18,131.45l-.05.07a10.2,10.2,0,0,0-1.77,7.36c0,.1,0,.18,0,.26.55,3.68,1.7,7.25,2.22,10.93s.35,7.62-1.55,10.82c-.78,1.32-2.47,2.56-3.7,1.65a3.18,3.18,0,0,1-.91-1.49c-3.17-8.33-7.72-15.22-10.33-24.14a7.84,7.84,0,0,1,1.32-7c1.48-1.88,3.35-3.94,5.71-3.57s6.2,3.47,8.29,4.64" style="fill:#263238"></path><path d="M94.55,153.36c-.24,0-9.25,0-6.49,8.37s10.61,3.88,10.55,3.64S94.55,153.36,94.55,153.36Z" style="fill:#b78876"></path><path d="M95,163s-.11.15-.32.35a1.56,1.56,0,0,1-1.09.38c-1,0-2.2-1.19-2.74-2.69a5.18,5.18,0,0,1-.28-2.23,1.77,1.77,0,0,1,.73-1.48.79.79,0,0,1,1,.11c.19.2.19.39.24.39s.13-.2-.05-.53a1,1,0,0,0-.5-.41,1.13,1.13,0,0,0-.88.05,2.16,2.16,0,0,0-1.1,1.8,5.38,5.38,0,0,0,.26,2.51c.61,1.67,2,3,3.33,2.92a1.62,1.62,0,0,0,1.26-.67C95.05,163.24,95,163,95,163Z" style="fill:#a36957"></path><path d="M89.26,127.7c-3.08-2.78,1.2-9.32,5-11.87s9.9-2.12,14.46-2c2.88.1,5.85.55,8.58-.38a19.56,19.56,0,0,0,5-2.94,14.11,14.11,0,0,1,5.1-2.67,5.35,5.35,0,0,1,5.29,1.52c1.2,1.51.89,4.16-.87,5a4.33,4.33,0,1,1,3.37,7.38c.94-1.26,3.23-.3,3.52,1.25s-.75,3-1.95,4c-3.08,2.59-7.34,3.31-11.36,3.15s-8-1.08-12-1.33-10.77-.84-14,1.51c-2.4,1.73-3.32,5.5-5,5.23a5.37,5.37,0,0,1-3.8-3,15.55,15.55,0,0,1-1.25-4.86" style="fill:#263238"></path><path d="M132.73,113.81c-.08,0-.25.75-.87,2a12.32,12.32,0,0,1-3.81,4.41,11.22,11.22,0,0,1-8.18,2c-3.25-.45-6.48-2.3-10-3.9s-7.42-2.46-10.86-1.78a10.17,10.17,0,0,0-7.27,5.19,7.65,7.65,0,0,0-.31,6,5.64,5.64,0,0,0,.82,1.45c.25.29.39.43.42.41a13.83,13.83,0,0,1-.92-2,7.56,7.56,0,0,1,.54-5.65,9.66,9.66,0,0,1,6.87-4.67c3.22-.59,6.89.2,10.36,1.78s6.8,3.47,10.28,3.9a11.63,11.63,0,0,0,8.64-2.34,11.85,11.85,0,0,0,3.76-4.77,7.79,7.79,0,0,0,.49-1.58C132.74,114,132.76,113.81,132.73,113.81Z" style="fill:#455a64"></path><path d="M92.29,153.62s.29-.34.42-1.11a6,6,0,0,0-.48-3.19c-1-2.67-4.27-4.89-5.68-8.57a8.86,8.86,0,0,1-.55-5.33,6.71,6.71,0,0,1,2.35-3.64,5.76,5.76,0,0,1,2.71-1.22c.71-.09,1.13,0,1.14-.12a2.09,2.09,0,0,0-1.16-.22A5.54,5.54,0,0,0,88,131.28a7.13,7.13,0,0,0-2.76,3.94,9.33,9.33,0,0,0,.52,5.85,16.1,16.1,0,0,0,3.2,4.86,16.79,16.79,0,0,1,2.72,3.64A6.86,6.86,0,0,1,92.29,153.62Z" style="fill:#455a64"></path><path d="M189.81,264.26,177,227.08l-39.8-32.47-38.09,1.11s-8.08,4.95-9.28,17c-1.4,13.94,9.57,34.51,9.57,34.51l8.86,15.7s42,23.37,76,26.75h0Z" style="fill:#FF725E"></path><polygon points="148.12 202.26 179.26 219.8 167.08 259.39 139.44 251.58 115.89 215.86 148.12 202.26" style="fill:#FF725E"></polygon><path d="M107.22,227.38a8.09,8.09,0,0,1-1.89,1.2,35.75,35.75,0,0,1-5,2.14,34.84,34.84,0,0,1-5.23,1.36,8.45,8.45,0,0,1-2.22.22c0-.16,3.33-.7,7.28-2.07S107.14,227.24,107.22,227.38Z" style="fill:#fafafa"></path><path d="M143.1,214.21c.12.08-4.13,6.8-9.51,15s-9.83,14.81-10,14.73,4.14-6.8,9.52-15S143,214.13,143.1,214.21Z" style="fill:#fafafa"></path><path d="M169.65,214c.13.05-3.27,9.65-7.61,21.44s-8,21.31-8.11,21.26,3.28-9.65,7.62-21.44S169.52,214,169.65,214Z" style="fill:#fafafa"></path><path d="M117.37,206.75a11,11,0,0,1-1.13,2.29c-.76,1.39-1.87,3.27-3.15,5.32s-2.5,3.86-3.41,5.15a12.54,12.54,0,0,1-1.57,2,12.51,12.51,0,0,1,1.27-2.23l3.27-5.22,3.27-5.22A13.17,13.17,0,0,1,117.37,206.75Z" style="fill:#fafafa"></path><path d="M102,211c0,.16-2.63-.09-5.82.34s-5.66,1.3-5.71,1.15a14.72,14.72,0,0,1,5.64-1.67A14.86,14.86,0,0,1,102,211Z" style="fill:#fafafa"></path><path d="M125.67,246.33s-.23.23-.7.55-1.17.77-2,1.29a59.06,59.06,0,0,1-7.13,3.59,59.78,59.78,0,0,1-7.53,2.65c-1,.27-1.79.47-2.35.58a3,3,0,0,1-.88.13,26.8,26.8,0,0,1,3.12-1.06c1.94-.63,4.59-1.56,7.44-2.77s5.36-2.48,7.15-3.44A30.12,30.12,0,0,1,125.67,246.33Z" style="fill:#fafafa"></path><path d="M144.69,255.18a18.69,18.69,0,0,1-1.12,3.05c-.77,1.86-1.9,4.4-3.26,7.15s-2.69,5.19-3.7,6.92a18.79,18.79,0,0,1-1.75,2.75,20.91,20.91,0,0,1,1.43-2.92c.92-1.78,2.2-4.24,3.55-7s2.54-5.25,3.39-7.06A21,21,0,0,1,144.69,255.18Z" style="fill:#fafafa"></path><path d="M178.88,259.64a5.21,5.21,0,0,1-.38,1.06l-1.2,2.82c-1.05,2.49-2.42,5.72-3.94,9.29s-2.79,6.85-3.82,9.35c-.45,1.12-.84,2.06-1.16,2.83a5.16,5.16,0,0,1-.48,1,4.29,4.29,0,0,1,.29-1.09c.23-.68.57-1.67,1-2.89.88-2.43,2.16-5.77,3.68-9.42s3-6.9,4.09-9.24c.55-1.17,1-2.11,1.34-2.75A4.12,4.12,0,0,1,178.88,259.64Z" style="fill:#fafafa"></path><path d="M179.26,219.8a.89.89,0,0,1,0,.22c-.05.17-.1.37-.17.63-.17.59-.41,1.39-.7,2.41-.65,2.14-1.56,5.17-2.69,8.92-2.33,7.58-5.55,18.07-9.19,29.88l-.07.24-.23-.06c-1.67-.41-3.44-.86-5.22-1.36a163.11,163.11,0,0,1-32.45-12.76,77.52,77.52,0,0,1-9-5.57c-1-.7-1.75-1.36-2.28-1.75l-.57-.48a1.07,1.07,0,0,1-.19-.18,1.22,1.22,0,0,1,.22.14l.61.43c.54.37,1.28,1,2.33,1.68a87.81,87.81,0,0,0,9.06,5.4,170.26,170.26,0,0,0,32.42,12.59c1.77.5,3.53.94,5.2,1.36l-.31.17c3.69-11.79,7-22.26,9.35-29.83,1.19-3.73,2.16-6.75,2.84-8.87l.78-2.39.22-.62A.75.75,0,0,1,179.26,219.8Z" style="fill:#263238"></path><path d="M175.5,196.37c-1.18,1.2-2.91,2.85-2.95,2.85-.33,0,4.33,16.62,11.39,23.7,2.28,2.29,5.36,9,8.49,17.08l1.55,5.11,7.15-32.86Z" style="fill:#FF725E"></path><polygon points="168.24 255.6 190.19 262.55 197.91 227.06 187.68 230.38 177.67 224.98 168.24 255.6" style="fill:#b78876"></polygon><path d="M105.9,188.89l42.94,4,18-12.18-1.35,9.5L186.23,203,158.8,214.9a15.77,15.77,0,0,1-11.07.65L95.49,199.26l0-.08a19.09,19.09,0,0,1,10.37-10.29Z" style="fill:#ffbe9d"></path><path d="M110.35,182.54s1.28-.88.12-3.14-8-5.74-8-5.74l-5.66-3.59-.55.49a1.82,1.82,0,0,0-.48,2l1.52,3.95-.88,1.27a1.29,1.29,0,0,0-.13,1.26l1.34,3-.16.58a1.94,1.94,0,0,0,.77,2.1l2.23,1.56s-.46,1.62-.11,2c.52.59,1.55,2.38,3.14,2.19,1-.11,4.3-.07,6.72-1.81a1.4,1.4,0,0,0-.36-2.45S112,184,110.35,182.54Z" style="fill:#ffbe9d"></path><path d="M98.56,176.08a43.87,43.87,0,0,1,6,3,44,44,0,0,1,5.77,3.45,42.35,42.35,0,0,1-6-3A42.93,42.93,0,0,1,98.56,176.08Z" style="fill:#eb996e"></path><path d="M109.23,186.29a22.29,22.29,0,0,1-5.75-1.58,22.62,22.62,0,0,1-5.37-2.58c.07-.14,2.49,1,5.56,2.09S109.27,186.15,109.23,186.29Z" style="fill:#eb996e"></path><path d="M109.21,188.91a9.44,9.44,0,0,1-4.42-.34,9.32,9.32,0,0,1-4-1.9c.07-.13,1.82.78,4.15,1.39S109.22,188.76,109.21,188.91Z" style="fill:#eb996e"></path><path d="M152.16,202.48a10,10,0,0,1-2.55-9.58,23.73,23.73,0,0,0,.51,5A23.71,23.71,0,0,0,152.16,202.48Z" style="fill:#eb996e"></path><path d="M188.27,214.3a11.83,11.83,0,0,1-3.54-1.92,12,12,0,0,1-3-2.65A22.29,22.29,0,0,1,185,212,24.07,24.07,0,0,1,188.27,214.3Z" style="fill:#fff"></path><path d="M195.44,224.86a22.19,22.19,0,0,1,.75-4.68,21.65,21.65,0,0,1,1.25-4.57,21.76,21.76,0,0,1-.74,4.68A20.62,20.62,0,0,1,195.44,224.86Z" style="fill:#fff"></path><path d="M189.64,225.51a9.83,9.83,0,0,1-.52-3.13,9.47,9.47,0,0,1,0-3.18,10.19,10.19,0,0,1,.52,3.14A10,10,0,0,1,189.64,225.51Z" style="fill:#fff"></path><path d="M194,209.71a23.41,23.41,0,0,1-2.63-1,20.76,20.76,0,0,1-2.67-.83,4.88,4.88,0,0,1,2.84.34A4.93,4.93,0,0,1,194,209.71Z" style="fill:#fff"></path><path d="M166.18,100.25c2.1-25.52,23.43-51.17,48.76-54.94C243.53,41.06,276.61,55.72,289.2,78c10.62,18.81,13.56,44.21,9.75,65.48C288.48,202,244.13,251.79,193.31,282.63l22.33-79.95L181,178.5l8.14-35.5-23.79-12.11Z" style="fill:#FF725E"></path><g style="opacity:0.7000000000000001"><path d="M166.18,100.25c2.1-25.52,23.43-51.17,48.76-54.94C243.53,41.06,276.61,55.72,289.2,78c10.62,18.81,13.56,44.21,9.75,65.48C288.48,202,244.13,251.79,193.31,282.63l22.33-79.95L181,178.5l8.14-35.5-23.79-12.11Z" style="fill:#fff"></path></g><path d="M276.78,166.82c-.6-4-2.51-8-5.84-10.31-4-2.81-9.77-3.13-12.72-7-2.5-3.3-2.16-8.26-5.06-11.23-2.2-2.26-5.61-2.68-8.68-3.44s-7.85-4.72-8.38-7.83l-8.82,11.22-2,31.21c-.3,4.74-.55,9.75,1.56,14,3.34,6.78,11.42,9.53,18.76,11.35,8.18,2,17.87,3.33,24.11-2.33,3.75-3.39,5.28-8.56,6.28-13.51A34.78,34.78,0,0,0,276.78,166.82Z" style="fill:#263238"></path><path d="M274.06,184.23a3.6,3.6,0,0,0,.37-.64,15.63,15.63,0,0,0,.82-1.94,20,20,0,0,0,1.11-7.66,20.8,20.8,0,0,0-1-5.29,20.08,20.08,0,0,0-2.83-5.49,20.85,20.85,0,0,0-11.51-7.85c-2.37-.71-4.75-1.4-6.42-3a15.11,15.11,0,0,1-3.32-5.7,23.56,23.56,0,0,0-2.78-5.49,19.44,19.44,0,0,0-3.65-3.95,19.87,19.87,0,0,0-6.8-3.69,14.57,14.57,0,0,0-2.05-.49,3.36,3.36,0,0,0-.73-.09c0,.05,1,.2,2.71.78a20.68,20.68,0,0,1,6.62,3.79,19.54,19.54,0,0,1,3.52,3.91,23.84,23.84,0,0,1,2.69,5.42,15.55,15.55,0,0,0,3.42,5.91c1.8,1.69,4.28,2.4,6.63,3.11a20.45,20.45,0,0,1,11.26,7.62A19.61,19.61,0,0,1,276,174a21.08,21.08,0,0,1-.92,7.56C274.49,183.31,274,184.21,274.06,184.23Z" style="fill:#455a64"></path><path d="M207.81,273.18,202.42,250l13.22-47.34-27.33-19.07,42.56-39.07c8.64,1.19,14.77,19,14.77,19l.88,15.37-6,38.65L252,234.39c-12.23,13.88-27.25,26.69-44.18,38.79" style="fill:#FF725E"></path><path d="M233.37,90.16c4.18,2.56,5,8.38,4.06,13.18s-3.31,9.3-3.87,14.17c-.31,2.7-.08,5.5-.93,8.08s-3.33,4.95-6,4.44c-2.24-.42-3.7-2.7-4.08-4.94s.06-4.54.17-6.81a26.39,26.39,0,0,0-1.57-10.11c-1.16-3.24-2.87-6.26-4.09-9.48A67.14,67.14,0,0,1,214,85.37c-.39-2.4-.75-5,.33-7.17a7.21,7.21,0,0,1,6.91-3.62,11.81,11.81,0,0,1,7.26,3.61A17.53,17.53,0,0,1,233.6,91" style="fill:#263238"></path><path d="M225.33,130.15a20.58,20.58,0,0,1,4.42-3.48,12.86,12.86,0,0,1,3.85-2.59c1.61-.72,3.88-.25,4.5,1.39.53,1.4-.32,3-1.42,4a36.31,36.31,0,0,0-3.42,2.87,17.39,17.39,0,0,0-2,3.58,5.91,5.91,0,0,1-2.74,3c-2.15.88-4.76-.79-5.38-3S223.69,131.8,225.33,130.15Z" style="fill:#FF725E"></path><path d="M232.31,125.07a9.53,9.53,0,0,1,2.8,1.59,4.54,4.54,0,0,1,1.15,1.89c.17.56.19.93.27.94s.19-.38.1-1a4,4,0,0,0-1.15-2.2,4.58,4.58,0,0,0-2.16-1.18C232.7,125,232.31,125,232.31,125.07Z" style="fill:#263238"></path><path d="M229.9,127.28c0,.08.38,0,.87.2a5.46,5.46,0,0,1,1.7,1.28c1.22,1.22,1.85,2.5,2,2.44a4.82,4.82,0,0,0-1.61-2.81,4.12,4.12,0,0,0-2-1.27C230.24,127,229.87,127.22,229.9,127.28Z" style="fill:#263238"></path><path d="M226.9,129.05c-.06,0,0,.46.23,1.13a5.43,5.43,0,0,0,1.71,2.18,5.29,5.29,0,0,0,2.58,1c.71.08,1.15,0,1.15-.1a9.64,9.64,0,0,1-3.41-1.35A10,10,0,0,1,226.9,129.05Z" style="fill:#263238"></path><path d="M224.3,131.8a2.29,2.29,0,0,0,.19,1.37,5.29,5.29,0,0,0,2.08,2.62,5.24,5.24,0,0,0,3.24.83,2.28,2.28,0,0,0,1.33-.38c0-.09-.53,0-1.33,0a5.84,5.84,0,0,1-2.95-.9,5.78,5.78,0,0,1-2-2.32C224.49,132.3,224.39,131.79,224.3,131.8Z" style="fill:#263238"></path><path d="M212.44,77.41c-3.5-5.66-8.64-7.14-13.73-7.27s-10.56,2.2-12.75,6.8c-1.06,2.25-1.27,4.8-2,7.18-1.51,4.71-5.14,8.51-6.71,13.21-2.75,8.27,1.39,17.09,5.43,24.82,2.6,5,6.09,10.57,11.68,11.07,3.81.35,7.32-1.88,10.49-4" style="fill:#263238"></path><path d="M225.05,83.87l.15,4.47,2.89,67c.3,7.77-7,14.57-15.3,14.83h0c-8.4.26-12-6-12.42-13.82-.45-8.23-1.08-16.89-1.08-16.89s-10.7-1.21-13.61-14.94c-1.45-6.82-1.69-18.13-1.59-27.38A14.63,14.63,0,0,1,199.5,82.7Z" style="fill:#ffbe9d"></path><path d="M186.66,106.94c.23.22,1.52-.85,3.43-.94s3.36.79,3.56.54-.15-.51-.79-.93a4.93,4.93,0,0,0-2.86-.72,4.71,4.71,0,0,0-2.72,1C186.72,106.41,186.54,106.84,186.66,106.94Z" style="fill:#263238"></path><path d="M205.06,106.19c.23.22,1.52-.84,3.43-.94s3.36.79,3.56.55-.15-.52-.79-.93a4.85,4.85,0,0,0-2.86-.72,4.77,4.77,0,0,0-2.72,1C205.12,105.66,204.94,106.09,205.06,106.19Z" style="fill:#263238"></path><path d="M199.44,116.81a12.77,12.77,0,0,0-3.13-.4c-.49,0-1-.1-1.06-.43a2.57,2.57,0,0,1,.25-1.46c.4-1.2.82-2.46,1.25-3.79,1.73-5.39,3-9.81,2.74-9.88s-1.8,4.25-3.53,9.64c-.41,1.33-.81,2.6-1.18,3.81a2.82,2.82,0,0,0-.16,1.92,1.23,1.23,0,0,0,.84.68,3.2,3.2,0,0,0,.84.07A12.5,12.5,0,0,0,199.44,116.81Z" style="fill:#263238"></path><path d="M199.29,139.48a35.2,35.2,0,0,0,18.28-5.91s-4,9.75-17.92,9.17Z" style="fill:#eb996e"></path><path d="M200.49,121.37a3.46,3.46,0,0,1,3-1.44,3.16,3.16,0,0,1,2.23,1,2,2,0,0,1,.27,2.27,2.33,2.33,0,0,1-2.48.77,7.5,7.5,0,0,1-2.51-1.33,2.14,2.14,0,0,1-.58-.54.64.64,0,0,1,0-.71" style="fill:#eb996e"></path><path d="M205.13,117.84c-.31,0-.21,2.07-1.91,3.63s-3.91,1.45-3.91,1.75c0,.13.51.37,1.44.35a5.18,5.18,0,0,0,3.28-1.34,4.44,4.44,0,0,0,1.46-3C205.53,118.32,205.27,117.82,205.13,117.84Z" style="fill:#263238"></path><path d="M204.89,96.74c.22.51,2.11.16,4.37.32s4.1.67,4.37.19c.12-.23-.22-.7-1-1.17a7.65,7.65,0,0,0-6.66-.39C205.19,96.07,204.8,96.5,204.89,96.74Z" style="fill:#263238"></path><path d="M186.68,99c.43.42,2-.12,3.93-.24s3.58.11,3.93-.36c.15-.23-.13-.66-.86-1a6.44,6.44,0,0,0-3.24-.54,6.17,6.17,0,0,0-3.09,1C186.69,98.38,186.49,98.84,186.68,99Z" style="fill:#263238"></path><path d="M226.92,128.27c-4.73-1.59-6.85-3.38-8.55-8.07s-1.88-9.79-1.87-14.78c0-2.84,0-5.83-1.32-8.33-1.6-2.93-4.75-4.58-7.5-6.47s-5.46-4.64-5.29-8c.19-3.77,4-6.34,7.61-7.38,4.5-1.31,9.74-1.12,13.42,1.79,4.05,3.19,5.25,8.74,5.89,13.86a158.05,158.05,0,0,1,.57,35.59" style="fill:#263238"></path><path d="M218,93.92c-.07-3-.18-5.35-.24-5.35s0,2.4,0,5.36.17,5.34.23,5.34S218.11,96.87,218,93.92Z" style="fill:#263238"></path><path d="M232.92,123.69a10,10,0,0,0,6.05-8.86,17.8,17.8,0,0,0-1.81-7.1q-1.77-4.19-3.88-8.2" style="fill:#263238"></path><path d="M183.54,121.11s-.6-.26-1.63-.8a15.49,15.49,0,0,1-3.93-2.93,14.7,14.7,0,0,1-3.65-6.19,15.09,15.09,0,0,1,.09-8.75,27.45,27.45,0,0,1,4.43-7.71,69.47,69.47,0,0,0,4.3-6,16.58,16.58,0,0,0,2-4.58,9.14,9.14,0,0,0,.26-1.34,1.4,1.4,0,0,0,0-.47,19.7,19.7,0,0,1-2.6,6.19c-1.1,1.77-2.67,3.71-4.37,5.91a27.09,27.09,0,0,0-4.55,7.85,15.42,15.42,0,0,0,0,9,14.75,14.75,0,0,0,3.85,6.32,14.57,14.57,0,0,0,4.11,2.85,9.38,9.38,0,0,0,1.26.5A1.51,1.51,0,0,0,183.54,121.11Z" style="fill:#263238"></path><path d="M229.45,126.44a3.43,3.43,0,0,0,.34-.51c.22-.35.51-.88.86-1.57a26.77,26.77,0,0,0,2.13-6.2,25.74,25.74,0,0,0,.21-9.72,23.13,23.13,0,0,0-5-10.78,22.51,22.51,0,0,0-4.57-4.19,21,21,0,0,0-5.18-2.57c-3.52-1.1-6.81-1.5-9.34-2.55a11.68,11.68,0,0,1-5.16-3.75,11.11,11.11,0,0,1-1.11-2.1,2.43,2.43,0,0,0,.14.61,8.36,8.36,0,0,0,.8,1.61,11.52,11.52,0,0,0,5.18,4c2.58,1.11,5.89,1.56,9.33,2.67a20.71,20.71,0,0,1,5,2.53,22.61,22.61,0,0,1,4.46,4.1,22.89,22.89,0,0,1,4.91,10.52,26,26,0,0,1-.09,9.56,29,29,0,0,1-1.95,6.19C229.84,125.68,229.4,126.42,229.45,126.44Z" style="fill:#455a64"></path><path d="M235.54,97.93s0-.14,0-.4a5.69,5.69,0,0,0-.08-1.13,8.05,8.05,0,0,0-1.85-3.74,12.28,12.28,0,0,0-5.11-3.49A23.44,23.44,0,0,0,221,88c-2.68,0-5.22,0-7.5-.17a19.78,19.78,0,0,1-5.89-1.38,11.6,11.6,0,0,1-3.43-2.19c-.7-.67-1-1.11-1.06-1.08a1.45,1.45,0,0,0,.2.34,7.68,7.68,0,0,0,.71.89,11,11,0,0,0,3.42,2.39,19.49,19.49,0,0,0,6,1.52c2.33.24,4.88.16,7.54.22a23.67,23.67,0,0,1,7.33,1.07,12.14,12.14,0,0,1,5,3.28,8.12,8.12,0,0,1,1.93,3.53C235.5,97.38,235.47,97.93,235.54,97.93Z" style="fill:#455a64"></path><path d="M191.34,71.32s-.14.23-.26.69a5.76,5.76,0,0,0-.1,2,8.82,8.82,0,0,0,3.21,5.68,14.69,14.69,0,0,0,5.95,2.75,9.79,9.79,0,0,0,2.68.38,22.44,22.44,0,0,0-2.58-.75,16.13,16.13,0,0,1-5.71-2.79A9,9,0,0,1,191.35,74,12.88,12.88,0,0,1,191.34,71.32Z" style="fill:#455a64"></path><path d="M185.09,79.89c-.06,0-.1.48.12,1.21a5.34,5.34,0,0,0,1.69,2.42,5.25,5.25,0,0,0,2.7,1.17c.76.08,1.22,0,1.21-.11s-.46-.09-1.15-.26a6.28,6.28,0,0,1-2.43-1.22A6.22,6.22,0,0,1,185.57,81C185.27,80.32,185.17,79.87,185.09,79.89Z" style="fill:#455a64"></path><polygon points="241.92 208.42 211.2 218.6 202.67 249.04 245.02 224.15 241.92 208.42" style="fill:#b78876"></polygon><polygon points="183.48 167.59 202.46 156.47 217.11 185.36 200.01 191.77 180.98 178.5 183.48 167.59" style="fill:#ffbe9d"></polygon><path d="M190.62,160.58l27.3-16.53s11-3.21,17.74,3.65.47,23.31.47,23.31l-24.43,19.3S191.55,174.22,190.62,160.58Z" style="fill:#FF725E"></path><path d="M236.11,173.43a3.39,3.39,0,0,1-.46.38l-1.37,1-5.13,3.64-17.3,12.07-.15.11-.15-.11c-.86-.65-1.81-1.31-2.7-2.06a57.61,57.61,0,0,1-9.09-9.14,59.38,59.38,0,0,1-5.77-8.81,56.85,56.85,0,0,1-2.92-6.46c-.3-.79-.49-1.41-.63-1.83a4.58,4.58,0,0,1-.18-.65,2.91,2.91,0,0,1,.28.62c.19.45.42,1.05.72,1.78a65.16,65.16,0,0,0,3.05,6.37,60.71,60.71,0,0,0,5.83,8.68,58.47,58.47,0,0,0,9,9c.88.74,1.82,1.39,2.67,2h-.29L229,178.16l5.22-3.51,1.42-.92A3,3,0,0,1,236.11,173.43Z" style="fill:#263238"></path><polygon points="245.02 224.15 249.33 211.92 249.13 202.19 243.37 199.06 241.92 208.42 245.02 224.15" style="fill:#b78876"></polygon><path d="M213.94,265.4a9.42,9.42,0,0,1-2.26-.95,9.3,9.3,0,0,1-2.19-1.09,4.53,4.53,0,0,1,2.41.61C213.16,264.55,214,265.28,213.94,265.4Z" style="fill:#FF725E"></path><path d="M216.93,154.68a10.31,10.31,0,0,1,.5-3.94,10.58,10.58,0,0,1,1.46-3.7,26.54,26.54,0,0,1-1,3.83A27.27,27.27,0,0,1,216.93,154.68Z" style="fill:#fff"></path><path d="M237.24,151.66a34.24,34.24,0,0,1-7.86-3.23,17.54,17.54,0,0,1,4,1.38A17.9,17.9,0,0,1,237.24,151.66Z" style="fill:#fff"></path><path d="M202.71,158.76a12,12,0,0,1-2.1,2.88,12.6,12.6,0,0,1-2.5,2.54,12.23,12.23,0,0,1,2.1-2.88A12.91,12.91,0,0,1,202.71,158.76Z" style="fill:#fff"></path><path d="M209.6,171.13a20.91,20.91,0,0,1-5-4.29,10.48,10.48,0,0,1,2.65,1.95A10.27,10.27,0,0,1,209.6,171.13Z" style="fill:#fff"></path><path d="M215.5,159.88a13,13,0,0,1-2.61,1.17,13.37,13.37,0,0,1-2.67,1.06,6.09,6.09,0,0,1,2.46-1.54A5.91,5.91,0,0,1,215.5,159.88Z" style="fill:#fff"></path><path d="M216.94,175.34a18.91,18.91,0,0,1,.43-4.39,19.07,19.07,0,0,1,.94-4.3,18.85,18.85,0,0,1-.43,4.38A19.25,19.25,0,0,1,216.94,175.34Z" style="fill:#fff"></path><path d="M212.27,182.35a10,10,0,0,1-3.84-1.65,10.15,10.15,0,0,1-3.2-2.69c.1-.12,1.53,1.06,3.47,2.25S212.32,182.21,212.27,182.35Z" style="fill:#fff"></path><path d="M232,170.49s.19,0,.49.08l.26.08-.26.13c-.72.35-2.34,1-4.25,1.7a23.86,23.86,0,0,1-4.85,1.48,25.72,25.72,0,0,1,4.67-2c1.91-.69,3.58-1.23,4.35-1.42v.21C232.1,170.63,232,170.53,232,170.49Z" style="fill:#fff"></path><path d="M229.46,164a12.2,12.2,0,0,1-.86-3.51,12.64,12.64,0,0,1-.35-3.61,12.74,12.74,0,0,1,.86,3.52A13,13,0,0,1,229.46,164Z" style="fill:#fff"></path><path d="M237.63,164.91a22.54,22.54,0,0,1,.7-3.36,21.23,21.23,0,0,1,.72-3.35,11.76,11.76,0,0,1-1.42,6.71Z" style="fill:#fff"></path><path d="M243.09,177.57a15.56,15.56,0,0,1-.71-3.92,14.86,14.86,0,0,1-.19-4,15.56,15.56,0,0,1,.71,3.92A15.37,15.37,0,0,1,243.09,177.57Z" style="fill:#fff"></path><path d="M238.22,186.57a16.29,16.29,0,0,1-7.81-1,26,26,0,0,1,3.91.47A26.68,26.68,0,0,1,238.22,186.57Z" style="fill:#fff"></path><path d="M221.47,193.2a16.68,16.68,0,0,1,.42-4.09,16.73,16.73,0,0,1,.94-4,16.43,16.43,0,0,1-.43,4.09A16.46,16.46,0,0,1,221.47,193.2Z" style="fill:#fff"></path><path d="M217.89,198.79a11.41,11.41,0,0,1-2.57-2.21,11.25,11.25,0,0,1-2.21-2.58,11.57,11.57,0,0,1,2.58,2.21A10.82,10.82,0,0,1,217.89,198.79Z" style="fill:#fff"></path><path d="M224.76,206.33a6.78,6.78,0,0,1-2.68,1.54,6.54,6.54,0,0,1-3,.67,15.43,15.43,0,0,1,2.84-1.15A15.3,15.3,0,0,1,224.76,206.33Z" style="fill:#fff"></path><path d="M232,200.29a16.18,16.18,0,0,1-1.47-3.78,15.83,15.83,0,0,1-1-3.92,31.2,31.2,0,0,1,2.44,7.7Z" style="fill:#fff"></path><path d="M243.35,191.26a23,23,0,0,1-2.74,4,22.81,22.81,0,0,1-3.16,3.71,22.38,22.38,0,0,1,2.74-4A23.93,23.93,0,0,1,243.35,191.26Z" style="fill:#fff"></path><path d="M235,209.36a7.36,7.36,0,0,1-2.42-1.83,7.23,7.23,0,0,1-1.88-2.37,11.67,11.67,0,0,1,2.25,2A11.5,11.5,0,0,1,235,209.36Z" style="fill:#fff"></path><path d="M212.38,254.92c-.09.11-1.39-.83-3.13-1.73a34.79,34.79,0,0,1-3.2-1.58,7.76,7.76,0,0,1,3.44,1.12A7.68,7.68,0,0,1,212.38,254.92Z" style="fill:#fff"></path><path d="M219.46,249.15a10.42,10.42,0,0,1,.61-3.12,9.73,9.73,0,0,1,1.11-3,10.41,10.41,0,0,1-.61,3.13A9.6,9.6,0,0,1,219.46,249.15Z" style="fill:#fff"></path><path d="M218.1,260.91A9.54,9.54,0,0,1,217,258a9,9,0,0,1-.59-3,9.39,9.39,0,0,1,1.09,2.88A9.08,9.08,0,0,1,218.1,260.91Z" style="fill:#fff"></path><path d="M232.36,248.85a20.61,20.61,0,0,1-7.9,4.56,37.86,37.86,0,0,1,3.94-2.29A38.77,38.77,0,0,1,232.36,248.85Z" style="fill:#fff"></path><path d="M230.52,242.88a18.84,18.84,0,0,1-2.27-2.37A19.32,19.32,0,0,1,226,238.1a11.07,11.07,0,0,1,4.51,4.78Z" style="fill:#fff"></path><path d="M240.91,230.36a14.88,14.88,0,0,1-3.41,2.95,14.46,14.46,0,0,1-3.93,2.23,29.51,29.51,0,0,1,3.63-2.65A28.59,28.59,0,0,1,240.91,230.36Z" style="fill:#fff"></path><path d="M240.48,240.69a25.52,25.52,0,0,1,2.36-4.65,27.08,27.08,0,0,1,2.81-4.4,25.88,25.88,0,0,1-2.36,4.65A27.08,27.08,0,0,1,240.48,240.69Z" style="fill:#fff"></path><path d="M218.39,215c-.1.1-.94-.47-1.88-1.3s-1.62-1.57-1.52-1.68.93.47,1.87,1.29S218.48,214.92,218.39,215Z" style="fill:#fff"></path><path d="M157.25,87.84c.54-.89-9.16-38.34-9.16-38.34l14.24,9.73Z" style="fill:#FF725E"></path><g style="opacity:0.7000000000000001"><path d="M157.25,87.84c.54-.89-9.16-38.34-9.16-38.34l14.24,9.73Z" style="fill:#fff"></path></g><path d="M149.15,89.82c0-.65-16.37-18.41-16.37-18.41l10.72,1.15Z" style="fill:#FF725E"></path><g style="opacity:0.7000000000000001"><path d="M149.15,89.82c0-.65-16.37-18.41-16.37-18.41l10.72,1.15Z" style="fill:#fff"></path></g></g></svg>
