<svg xmlns="http://www.w3.org/2000/svg" viewBox="0 0 500 500"><g id="freepik--background-complete--inject-35"><polygon points="188.96 42.67 188.96 144.08 57.97 144.08 53.25 43.38 188.96 42.67" style="fill:#e0e0e0"></polygon><rect x="68.33" y="28.18" width="100.82" height="130.99" transform="translate(25.08 212.41) rotate(-90)" style="fill:#fff"></rect><path d="M184.74,144.58h-132V42.76h132Zm-131-1h130V43.76h-130Z" style="fill:#e0e0e0"></path><rect x="67.44" y="53.62" width="102.61" height="77.19" style="fill:#fff"></rect><path d="M170.05,53.62h-1.94l-5.59,0-21,.07-74,.11.24-.23c0,23.15,0,49.43,0,77.18h0l-.26-.26,102.61,0-.21.21c0-23.33.08-42.6.11-56,0-6.73,0-12,.06-15.61,0-1.79,0-3.17,0-4.11s0-1.42,0-1.42,0,.46,0,1.38,0,2.29,0,4.07c0,3.59,0,8.84.06,15.55,0,13.49.06,32.81.11,56.19V131h-.22l-102.61,0h-.26v-.26h0c0-27.75,0-54,0-77.18v-.24h.23l74.19.12,21,.06,5.54,0h1.42Z" style="fill:#e0e0e0"></path><path d="M53.25,43a12.67,12.67,0,0,1,2.22,1.36c1.33.9,3.15,2.17,5.11,3.62s3.71,2.83,4.94,3.86a11.93,11.93,0,0,1,1.92,1.76,14,14,0,0,1-2.14-1.47l-5-3.73-5-3.74A13.07,13.07,0,0,1,53.25,43Z" style="fill:#e0e0e0"></path><path d="M184.24,43.26a75.82,75.82,0,0,1-6.94,5.39,75.27,75.27,0,0,1-7.25,5A73.8,73.8,0,0,1,177,48.23,73.12,73.12,0,0,1,184.24,43.26Z" style="fill:#e0e0e0"></path><line x1="184.24" y1="144.08" x2="169.53" y2="130.81" style="fill:#fff"></line><path d="M169.53,130.81a93.25,93.25,0,0,1,7.53,6.44,94.34,94.34,0,0,1,7.18,6.83,93.25,93.25,0,0,1-7.53-6.44A96.7,96.7,0,0,1,169.53,130.81Z" style="fill:#e0e0e0"></path><path d="M53.25,144.08a86.78,86.78,0,0,1,6.85-6.53,84.2,84.2,0,0,1,7.2-6.14,89,89,0,0,1-6.85,6.53A84.2,84.2,0,0,1,53.25,144.08Z" style="fill:#e0e0e0"></path><path d="M143.5,91.51A12.39,12.39,0,1,1,134,76.82,12.39,12.39,0,0,1,143.5,91.51Z" style="fill:#f5f5f5"></path><path d="M127.36,100.7a20.79,20.79,0,0,1,1.08-3.42A20.68,20.68,0,0,0,129.57,89,11.58,11.58,0,0,0,126,81.64a21.57,21.57,0,0,0-2.94-1.9c0-.09,1.51,0,3.38,1.38a11.35,11.35,0,0,1,4.14,7.73,18.26,18.26,0,0,1-1.45,8.66A10.08,10.08,0,0,1,127.36,100.7Z" style="fill:#e0e0e0"></path><path d="M143.35,87.44c-.06.28-3.34-.91-7.2.24s-6,3.9-6.19,3.69.28-.85,1.26-1.85a11,11,0,0,1,10.07-3C142.65,86.87,143.39,87.33,143.35,87.44Z" style="fill:#e0e0e0"></path><path d="M137.76,86.81c-.16,0-.09-.87-.54-2.09a5.55,5.55,0,0,0-8-3.13c-1.15.59-1.68,1.27-1.8,1.17s.25-.92,1.45-1.76a5.85,5.85,0,0,1,9,3.53C138.2,86,137.86,86.84,137.76,86.81Z" style="fill:#e0e0e0"></path><path d="M133.81,88.11c-.28,0-.08-1.75-.57-3.73s-1.41-3.41-1.19-3.59,1.6,1.13,2.13,3.36S134.05,88.2,133.81,88.11Z" style="fill:#e0e0e0"></path><path d="M133.7,84.23c0,.29-1.08.35-2.1.89s-1.89,1.27-2.09,1,.34-1.18,1.64-1.91S133.75,84,133.7,84.23Z" style="fill:#e0e0e0"></path><path d="M113.88,90a9.4,9.4,0,1,1-13.24,1.15A9.4,9.4,0,0,1,113.88,90Z" style="fill:#f5f5f5"></path><path d="M114.27,104.12a15.69,15.69,0,0,1-1.9-1.94,15.9,15.9,0,0,0-5.17-3.73,8.8,8.8,0,0,0-6.19-.18,16.48,16.48,0,0,0-2.32,1.29c-.06,0,.52-1,2.13-1.77a8.61,8.61,0,0,1,6.65,0,13.9,13.9,0,0,1,5.28,4.06A7.56,7.56,0,0,1,114.27,104.12Z" style="fill:#e0e0e0"></path><path d="M111.1,88.69c.17.14-1.8,1.91-2.41,4.91s.48,5.4.27,5.46-.47-.49-.79-1.5a8.31,8.31,0,0,1,1.61-7.8C110.47,89,111,88.62,111.1,88.69Z" style="fill:#e0e0e0"></path><path d="M108.68,92.21c-.06.1-.61-.25-1.58-.39a4.22,4.22,0,0,0-5,4.27c0,1,.25,1.57.14,1.62s-.53-.49-.66-1.6a4.42,4.42,0,0,1,5.59-4.79C108.27,91.61,108.74,92.15,108.68,92.21Z" style="fill:#e0e0e0"></path><path d="M108.15,95.32c-.14.16-1.21-.58-2.71-.95s-2.78-.28-2.82-.49,1.32-.67,3-.22S108.29,95.19,108.15,95.32Z" style="fill:#e0e0e0"></path><path d="M105.51,94c.19.11-.15.84-.16,1.72s.18,1.72,0,1.78-.66-.66-.69-1.79S105.38,93.89,105.51,94Z" style="fill:#e0e0e0"></path><path d="M114.28,86.81c-3.32-2.17-5.36-6-6.68-9.76a18.38,18.38,0,0,1-.15-11.68,15.2,15.2,0,0,1,8,8.54c1.38,3.75.57,9.29-1.16,12.9" style="fill:#ebebeb"></path><path d="M110.42,71.5A133.28,133.28,0,0,1,114,86.26" style="fill:#fff"></path><path d="M114,86.26a9.33,9.33,0,0,1-.6-2.15c-.36-1.54-.78-3.29-1.23-5.22l-1.29-5.21a10.3,10.3,0,0,1-.45-2.18,8.7,8.7,0,0,1,.8,2.08c.43,1.31,1,3.14,1.45,5.19s.86,3.91,1.08,5.27A9.86,9.86,0,0,1,114,86.26Z" style="fill:#e0e0e0"></path><path d="M122.69,103.66c3.88-.81,8.05.47,11.63,2.18a18.37,18.37,0,0,1,8.36,8.15,15.19,15.19,0,0,1-11.69-.38c-3.63-1.68-7-6.17-8.3-10" style="fill:#ebebeb"></path><path d="M136.25,111.76a130.82,130.82,0,0,1-13-7.92" style="fill:#fff"></path><path d="M123.29,103.84a10.82,10.82,0,0,1,1.94,1.1l4.56,2.83,4.59,2.76a10.86,10.86,0,0,1,1.87,1.23,9.27,9.27,0,0,1-2-.9c-1.23-.63-2.9-1.55-4.69-2.65s-3.38-2.16-4.49-3A9,9,0,0,1,123.29,103.84Z" style="fill:#e0e0e0"></path><path d="M118.93,105.51a11.25,11.25,0,0,1-.61,7A11,11,0,0,1,114,118a9.1,9.1,0,0,1-.46-7,11.09,11.09,0,0,1,5.43-5.52" style="fill:#ebebeb"></path><path d="M114.91,114.05a78.78,78.78,0,0,1,4-8.17" style="fill:#fff"></path><path d="M118.86,105.88A26.06,26.06,0,0,1,117,110a26,26,0,0,1-2.09,4,16.45,16.45,0,0,1,1.62-4.26A16.42,16.42,0,0,1,118.86,105.88Z" style="fill:#e0e0e0"></path><path d="M73.19,434.74c.82-3.26-1.33-6.51-3.73-8.86s-5.28-4.44-6.54-7.56c-2-5,.63-11.6-2.83-15.8-2-2.46-5.67-3.27-7.48-5.91A13.65,13.65,0,0,1,51,391.88a48.19,48.19,0,0,0-12.09-22.32,41.74,41.74,0,0,0,4.81,21.55c1.41,2.64,3.13,5.22,3.61,8.17.78,4.8-1.88,9.77-.67,14.48,1.38,5.39,7.46,9,7.78,14.52.27,4.69-3.8,8.84-3.47,13.53a12.7,12.7,0,0,0,2.13,5.55c3.66,6,9,10.15,17.1,10l9.91.29Z" style="fill:#e0e0e0"></path><path d="M82.17,457.68a7.8,7.8,0,0,0,2.73-.07,16.39,16.39,0,0,0,3.21-.83,13.43,13.43,0,0,0,4-2.2,5.59,5.59,0,0,0,1.63-2.18,10.25,10.25,0,0,0,.44-3,29.68,29.68,0,0,1,.22-3.2A8.74,8.74,0,0,1,95.55,443c1.16-2.06,3.08-4,3.69-6.8s.16-5.7-.32-8.68-.94-6.2.18-9.3,3.2-5.91,4.27-9.41.53-7.32.74-11.06a14.9,14.9,0,0,1,1.26-5.51c.79-1.76,1.89-3.42,2.75-5.27,1.74-3.74,2-8,2.48-12.11q.33-3.13.68-6.33a30.88,30.88,0,0,1,1.06-6.34,56.7,56.7,0,0,1,2.33-6.14,19.64,19.64,0,0,0,1.13-3.21,30.6,30.6,0,0,0,.3-3.41,39.33,39.33,0,0,0-.3-6.85c-.28-2.28-.7-4.55-1-6.84,0-.13,0-.27,0-.39l-.05-.46-.41.21a15.17,15.17,0,0,0-5.3,4.53,24,24,0,0,0-3.24,6.05c-1.63,4.27-2.2,8.73-3,13s-1.84,8.45-4,12c-1.08,1.76-2.38,3.38-3.52,5.11a13.93,13.93,0,0,0-2.43,5.66c-.56,4.19,1.77,7.85,1.31,11.57a12.77,12.77,0,0,1-1.78,5.15c-.89,1.58-1.94,3.06-2.93,4.54a29.12,29.12,0,0,0-2.63,4.58,14.4,14.4,0,0,0-1.19,5c-.22,3.34.27,6.51,0,9.5a21.68,21.68,0,0,1-2.4,8.15c-1.18,2.44-2.5,4.65-3.6,6.8a34.46,34.46,0,0,0-1.49,3.16,15.79,15.79,0,0,0-.85,3.14,19.86,19.86,0,0,0,0,5.65,14.29,14.29,0,0,0,2.87,7.19,7.67,7.67,0,0,0,.81.86,3.65,3.65,0,0,0,.65.55c.37.27.57.39.57.39a12.88,12.88,0,0,1-1.93-1.88,14.37,14.37,0,0,1-2.72-7.14,19.49,19.49,0,0,1,.09-5.58,15.14,15.14,0,0,1,.86-3.06A33.74,33.74,0,0,1,80,436.9c1.11-2.12,2.45-4.32,3.66-6.78a22.17,22.17,0,0,0,2.48-8.3c.24-3.05-.24-6.23,0-9.49a14.12,14.12,0,0,1,1.16-4.81A28.43,28.43,0,0,1,89.87,403c1-1.47,2-2.95,3-4.57a13.54,13.54,0,0,0,1.86-5.36c.45-4-1.86-7.64-1.29-11.54a13.35,13.35,0,0,1,2.35-5.41c1.12-1.7,2.43-3.32,3.53-5.13,2.23-3.65,3.3-7.92,4.1-12.2s1.39-8.7,3-12.87a23.44,23.44,0,0,1,3.15-5.9,14.61,14.61,0,0,1,5.09-4.34l-.46-.25c0,.12,0,.26,0,.4.27,2.31.69,4.58,1,6.84a39.17,39.17,0,0,1,.3,6.75c-.06,1.1-.12,2.26-.28,3.3a20.37,20.37,0,0,1-1.1,3.09,59,59,0,0,0-2.35,6.21,32.2,32.2,0,0,0-1.08,6.45q-.33,3.19-.66,6.33c-.45,4.17-.74,8.33-2.41,11.94-.83,1.8-1.93,3.46-2.74,5.28a15.26,15.26,0,0,0-1.3,5.7c-.19,3.83.33,7.56-.69,10.95s-3.15,6.2-4.22,9.4-.65,6.58-.16,9.53,1,5.88.37,8.52-2.43,4.59-3.61,6.71A9.33,9.33,0,0,0,94,446.18a28.47,28.47,0,0,0-.19,3.24,10.12,10.12,0,0,1-.4,2.88,5.35,5.35,0,0,1-1.53,2.1,13.59,13.59,0,0,1-3.86,2.2,16.69,16.69,0,0,1-3.17.88,12.69,12.69,0,0,1-2,.21Z" style="fill:#e0e0e0"></path><path d="M112.8,340.85a1,1,0,0,0-.1.3c0,.24-.12.53-.21.9-.19.78-.42,2-.78,3.43s-1.27,3.13-2,5.18-1.58,4.39-2.31,7-1.39,5.58-2.08,8.73a36.45,36.45,0,0,1-3.11,9.68c-.8,1.62-1.71,3.25-2.42,5a23,23,0,0,0-1.4,5.69,115.79,115.79,0,0,1-2.06,12c-1.94,8.12-3.79,15.86-5.47,22.91s-3.28,13.35-4.59,18.69S83.93,450,83.2,453c-.33,1.45-.6,2.6-.79,3.44-.08.36-.14.65-.19.89a1.52,1.52,0,0,0,0,.31s0-.09.11-.29l.25-.88c.22-.83.53-2,.91-3.41.78-3,1.88-7.3,3.24-12.56s2.94-11.65,4.72-18.66S95,407.09,96.92,399a114.05,114.05,0,0,0,2.06-12,22.87,22.87,0,0,1,1.34-5.55c.69-1.74,1.58-3.36,2.38-5a36.87,36.87,0,0,0,3.11-9.83c.66-3.16,1.28-6.08,2-8.72s1.46-5,2.21-7,1.58-3.73,1.94-5.25.51-2.67.67-3.47l.15-.9A1.27,1.27,0,0,0,112.8,340.85Z" style="fill:#e0e0e0"></path><path d="M83.92,457.71c6.45-3.89,8.24-15.57,5.5-22.57s-7.5-13.4-8.27-20.89c-.59-5.75,1.26-11.67-.11-17.29-1.86-7.58-9.3-13.42-9.26-21.23,0-4.38,2.49-8.51,2.27-12.89-.28-5.36-4.42-9.6-7-14.31-3.94-7.21-4.25-15.77-5.63-23.87s-4.52-16.78-11.74-20.73c-1,6.9-2.81,11.63-2.18,20.95.22,3.35,4.15,9.75,4.72,17.09.34,4.39.59,8.78.88,13.17s.59,8.63,2.14,12.62c1.19,3.06,3.1,5.83,4,9,1.67,5.95-.45,12.41.91,18.43,1.15,5.1,4.71,9.48,5.47,14.66,1,7.27-3.62,14.86-1.17,21.79,1.22,3.44,4.07,6.19,4.9,9.75.64,2.76,0,5.68.55,8.45.94,4.46,9.48,8.18,14,7.88" style="fill:#ebebeb"></path><path d="M51.5,310.76a1.92,1.92,0,0,0,0,.39c0,.29.09.66.16,1.13.15,1,.33,2.45.67,4.34s1.37,4,2.16,6.61,1.68,5.52,2.43,8.84,1.39,7,2.06,10.93,1.4,8.25,3.39,12.36c.92,2.06,1.95,4.12,2.72,6.32a28.62,28.62,0,0,1,1.41,7,141.33,141.33,0,0,0,2,15.05l5.75,28.75c1.86,8.8,3.53,16.73,4.94,23.41s2.58,12,3.39,15.77l1,4.28c.1.46.19.83.26,1.11s.1.67.11.67a4.47,4.47,0,0,0,0-.68c-.05-.29-.12-.66-.2-1.13-.2-1-.48-2.46-.83-4.3-.77-3.78-1.86-9.17-3.2-15.81s-3-14.63-4.81-23.44-3.68-18.55-5.7-28.74a142.19,142.19,0,0,1-2-15,28.69,28.69,0,0,0-1.46-7.12c-.8-2.24-1.84-4.32-2.76-6.36-2-4.05-2.68-8.28-3.4-12.21s-1.36-7.62-2.15-10.94a89.92,89.92,0,0,0-2.52-8.86c-.84-2.58-1.86-4.69-2.26-6.54s-.59-3.33-.79-4.31c-.09-.46-.16-.83-.21-1.12A1.16,1.16,0,0,0,51.5,310.76Z" style="fill:#e0e0e0"></path><polygon points="299.71 27.1 299.71 89.37 225.48 89.37 222.81 27.54 299.71 27.1" style="fill:#e0e0e0"></polygon><rect x="228.97" y="21.31" width="61.91" height="74.23" transform="translate(201.5 318.34) rotate(-90)" style="fill:#fff"></rect><path d="M297.53,89.87H222.31V27h75.22Zm-74.22-1h73.22V28H223.31Z" style="fill:#e0e0e0"></path><rect x="230.85" y="33.83" width="58.15" height="47.4" style="fill:#fff"></rect><path d="M289,33.83h-1.11l-3.16,0-11.91.06-42,.12.23-.23c0,14.07,0,30.25,0,47.39h0l-.26-.26L289,81l-.22.21c.05-14.24.08-26.06.11-34.35,0-4.13,0-7.38.06-9.61,0-1.1,0-1.95,0-2.55s0-.88,0-.88,0,.27,0,.84,0,1.42,0,2.5c0,2.23,0,5.46.06,9.57,0,8.31.07,20.18.11,34.48v.22H289l-58.15,0-.26-.26h0c0-17.14,0-33.32,0-47.39v-.24h.23l42.12.12,11.85.06,3.12,0h.8Z" style="fill:#e0e0e0"></path><path d="M222.81,27.32A25.84,25.84,0,0,1,227,30.37a25.68,25.68,0,0,1,3.86,3.46,26.37,26.37,0,0,1-4.19-3.06A26.16,26.16,0,0,1,222.81,27.32Z" style="fill:#e0e0e0"></path><path d="M297,27.46a25.7,25.7,0,0,1-3.86,3.39,25.56,25.56,0,0,1-4.18,3,24.71,24.71,0,0,1,3.85-3.39A25.38,25.38,0,0,1,297,27.46Z" style="fill:#e0e0e0"></path><line x1="297.04" y1="89.37" x2="288.7" y2="81.22" style="fill:#fff"></line><path d="M288.7,81.22a33.11,33.11,0,0,1,4.35,3.89,33.5,33.5,0,0,1,4,4.26,31.72,31.72,0,0,1-4.35-3.88A31.61,31.61,0,0,1,288.7,81.22Z" style="fill:#e0e0e0"></path><path d="M222.81,89.37a30.75,30.75,0,0,1,3.79-4.07,29.66,29.66,0,0,1,4.17-3.71,30.15,30.15,0,0,1-3.8,4.08A29.3,29.3,0,0,1,222.81,89.37Z" style="fill:#e0e0e0"></path><text transform="translate(242.99 63.22)" style="font-size:16.038179397583008px;fill:#ebebeb;font-family:Vibur"><tspan style="letter-spacing:-0.05078214333496856em">L</tspan><tspan x="7.2" y="0">OVE</tspan></text><path d="M153.18,489.36a6.07,6.07,0,0,0-1.32-3.42,5.85,5.85,0,0,0-2.91-2.11,4.74,4.74,0,0,0-5.39,2.05,4.65,4.65,0,0,0-1.29-1.63,4.82,4.82,0,0,0-3.64-1,5.93,5.93,0,0,0-3.2,1.65,6.24,6.24,0,0,0-1.81,3.2,7.45,7.45,0,0,0,.59,4.63,10.52,10.52,0,0,0,3.36,3.66c2.26,1.6,5.24,3.61,5.24,3.61s2.78-1.77,5.24-3a10.53,10.53,0,0,0,3.87-3.12A7.38,7.38,0,0,0,153.18,489.36Z" style="fill:#fafafa"></path></g><g id="freepik--Floor--inject-35"><path d="M468.36,458.47c0,.14-97.22.26-217.11.26s-217.12-.12-217.12-.26,97.19-.26,217.12-.26S468.36,458.33,468.36,458.47Z" style="fill:#263238"></path></g><g id="freepik--Heart--inject-35"><path d="M279.81,393.13c-70-7.47-127.67-40.29-155.4-69.27a112,112,0,0,1-30-91.92c4.37-33.64,23.12-66.06,52.49-83s69.22-16.2,95.59,5.14c12.06-29.08,43.78-47.85,75.26-47.41s61.44,18.57,79.17,44.58,23.77,59,19.75,90.24-17.58,60.72-35.92,86.31c-24.12,33.67-59.62,62.41-100.93,65.37" style="fill:#FF725E"></path><path d="M279.81,393.13c-70-7.47-127.67-40.29-155.4-69.27a112,112,0,0,1-30-91.92c4.37-33.64,23.12-66.06,52.49-83s69.22-16.2,95.59,5.14c12.06-29.08,43.78-47.85,75.26-47.41s61.44,18.57,79.17,44.58,23.77,59,19.75,90.24-17.58,60.72-35.92,86.31c-24.12,33.67-59.62,62.41-100.93,65.37" style="fill:#fff;opacity:0.8"></path></g><g id="freepik--Plant--inject-35"><path d="M422.56,435.77a2.85,2.85,0,0,0-.22-.58l-.73-1.69a41.76,41.76,0,0,1-2.07-6.71c-1.33-6-1.57-15,1-25.64a137.38,137.38,0,0,1,5.31-17.08c2.2-6.05,4.75-12.47,6.88-19.42s3.84-14.48,3.8-22.45-2.14-16-4.49-24-4.77-15.87-5.33-23.7a35.91,35.91,0,0,1,5-21.57c3.64-6.22,8.14-11.5,11.55-17a60.09,60.09,0,0,0,7.14-16.48,62.14,62.14,0,0,0,1.24-25.85,48.7,48.7,0,0,0-2.41-9.22,3.34,3.34,0,0,0,.14.62c.12.43.28,1,.49,1.76a66.23,66.23,0,0,1,1.46,6.89,63,63,0,0,1-1.48,25.64,60.14,60.14,0,0,1-7.15,16.27c-3.41,5.45-7.92,10.7-11.63,17a36.54,36.54,0,0,0-5.15,22c.56,8,3,15.86,5.35,23.87s4.43,16,4.48,23.8A75.73,75.73,0,0,1,432,364.43c-2.1,6.92-4.61,13.34-6.8,19.4A134.83,134.83,0,0,0,420,401c-2.52,10.73-2.19,19.86-.76,25.84a38.44,38.44,0,0,0,2.24,6.71l.8,1.65A3.36,3.36,0,0,0,422.56,435.77Z" style="fill:#263238"></path><path d="M438.68,261.28s7.24-20.81-4.16-33.49a.73.73,0,0,0-1.26.33C432.52,231.57,431.4,242.11,438.68,261.28Z" style="fill:#FF725E"></path><path d="M435.58,234.84a18.74,18.74,0,0,0,.32,3.89c.34,2.68.75,5.84,1.2,9.32l1.18,9.31a21.27,21.27,0,0,0,.58,3.86,16.77,16.77,0,0,0,0-3.91c-.14-2.41-.46-5.72-.94-9.37s-1-6.93-1.45-9.3A17.92,17.92,0,0,0,435.58,234.84Z" style="fill:#263238"></path><path d="M429.39,310.61s-3.33-21.78-19.34-27.65a.72.72,0,0,0-1,.87C410.05,287.23,414,297.07,429.39,310.61Z" style="fill:#FF725E"></path><path d="M414.28,288.69a19.77,19.77,0,0,0,2.1,3.29l5.43,7.67,5.4,7.68a20.32,20.32,0,0,0,2.31,3.15,16.23,16.23,0,0,0-1.83-3.46c-1.25-2.07-3.08-4.85-5.21-7.85s-4.13-5.65-5.63-7.54A17,17,0,0,0,414.28,288.69Z" style="fill:#263238"></path><path d="M432.05,365.07s3.13-21.81-10.48-32.08a.73.73,0,0,0-1.18.55C420.33,337.07,421.24,347.64,432.05,365.07Z" style="fill:#FF725E"></path><path d="M424,339.7a20.33,20.33,0,0,0,1.06,3.76l3,8.92,2.94,8.92a20.38,20.38,0,0,0,1.3,3.67,16.88,16.88,0,0,0-.74-3.84c-.6-2.33-1.55-5.53-2.72-9s-2.31-6.61-3.19-8.85A16.94,16.94,0,0,0,424,339.7Z" style="fill:#263238"></path><path d="M418.13,419.32s2.35-21.91-11.62-31.69a.73.73,0,0,0-1.15.6C405.42,391.76,406.71,402.29,418.13,419.32Z" style="fill:#FF725E"></path><path d="M409.14,394.26a18.4,18.4,0,0,0,1.19,3.71c.94,2.54,2.05,5.52,3.28,8.81l3.25,8.81a20.37,20.37,0,0,0,1.43,3.63,16.35,16.35,0,0,0-.88-3.81c-.68-2.32-1.74-5.48-3-8.92s-2.55-6.52-3.51-8.73A18.08,18.08,0,0,0,409.14,394.26Z" style="fill:#263238"></path><path d="M448.71,243.12s19.84-9.58,20.77-26.61a.73.73,0,0,0-1.12-.66C465.39,217.76,457.14,224.42,448.71,243.12Z" style="fill:#FF725E"></path><path d="M465.24,222.24a18.85,18.85,0,0,0-2.53,3L457,232.65l-5.77,7.41a20.87,20.87,0,0,0-2.32,3.14,16.47,16.47,0,0,0,2.77-2.76c1.61-1.8,3.73-4.37,6-7.29s4.19-5.61,5.56-7.59A18,18,0,0,0,465.24,222.24Z" style="fill:#263238"></path><path d="M426.32,287.59s20.39-8.35,22.35-25.29a.73.73,0,0,0-1.08-.73C444.51,263.3,435.87,269.44,426.32,287.59Z" style="fill:#FF725E"></path><path d="M444.09,267.75a19.5,19.5,0,0,0-2.71,2.82l-6.18,7.07c-2.32,2.64-4.42,5-6.2,7.06a21.73,21.73,0,0,0-2.52,3,16.24,16.24,0,0,0,2.94-2.58c1.71-1.7,4-4.14,6.4-6.91s4.53-5.35,6-7.25A17.23,17.23,0,0,0,444.09,267.75Z" style="fill:#263238"></path><path d="M436.3,338.31s14.34-16.73,8.37-32.7a.73.73,0,0,0-1.29-.16C441.43,308.39,436.53,317.8,436.3,338.31Z" style="fill:#FF725E"></path><path d="M443.08,312.56A19.7,19.7,0,0,0,442,316.3c-.66,2.62-1.43,5.7-2.28,9.11s-1.65,6.48-2.31,9.1a21.68,21.68,0,0,0-.88,3.8,16.33,16.33,0,0,0,1.44-3.63c.75-2.3,1.66-5.5,2.55-9.07s1.59-6.82,2-9.19A17.57,17.57,0,0,0,443.08,312.56Z" style="fill:#263238"></path><path d="M420.75,397.12s20.25-8.69,21.91-25.66a.72.72,0,0,0-1.08-.71C438.53,372.53,430,378.81,420.75,397.12Z" style="fill:#FF725E"></path><path d="M438.18,377a19.78,19.78,0,0,0-2.66,2.86L429.46,387l-6.09,7.15a22.78,22.78,0,0,0-2.46,3,15.85,15.85,0,0,0,2.89-2.63c1.69-1.73,3.92-4.2,6.29-7s4.43-5.42,5.89-7.34A17.42,17.42,0,0,0,438.18,377Z" style="fill:#263238"></path><path d="M383.75,309.29a1.61,1.61,0,0,0,0,.48c0,.38,0,.85,0,1.41,0,1.32,0,3.11.07,5.35.11,4.7.26,11.25.44,19.1v0c1.17,8,4.95,17,10.13,25.72,3.8,6.45,7.81,12.32,11.25,17.78A122.94,122.94,0,0,1,414,394.08a61.55,61.55,0,0,1,3.8,10.87c.31,1.32.54,2.36.67,3.07a5.34,5.34,0,0,0,.26,1.07,5,5,0,0,0-.09-1.1c-.08-.72-.26-1.77-.52-3.11a56.76,56.76,0,0,0-3.59-11,116.93,116.93,0,0,0-8.27-15.07c-3.42-5.5-7.41-11.38-11.19-17.79-5.15-8.71-8.92-17.53-10.15-25.42v.05c-.3-7.84-.56-14.4-.74-19.1-.11-2.23-.19-4-.26-5.34,0-.56-.07-1-.1-1.4S383.77,309.28,383.75,309.29Z" style="fill:#263238"></path><path d="M394.05,359.74s-7.81-20.6,3.24-33.59a.73.73,0,0,1,1.27.29C399.39,329.87,400.8,340.38,394.05,359.74Z" style="fill:#FF725E"></path><path d="M396.43,333.22a17,17,0,0,0-.79,3.83c-.38,2.38-.82,5.68-1.2,9.34s-.6,7-.68,9.39a17,17,0,0,0,.11,3.91,21.23,21.23,0,0,0,.47-3.87c.27-2.7.58-5.86.92-9.35s.68-6.65.95-9.35A19.57,19.57,0,0,0,396.43,333.22Z" style="fill:#263238"></path><g style="opacity:0.30000000000000004"><path d="M394.05,359.74s-7.81-20.6,3.24-33.59a.73.73,0,0,1,1.27.29C399.39,329.87,400.8,340.38,394.05,359.74Z"></path></g><path d="M418.67,409.58s-6.11-21.17,5.95-33.22a.74.74,0,0,1,1.25.39C426.42,380.24,427,390.83,418.67,409.58Z" style="fill:#FF725E"></path><path d="M423.19,383.34a17.11,17.11,0,0,0-1.1,3.75c-.57,2.34-1.27,5.59-1.95,9.21s-1.17,6.91-1.44,9.3a15.71,15.71,0,0,0-.2,3.91,22.26,22.26,0,0,0,.78-3.82c.48-2.66,1.05-5.79,1.67-9.24s1.22-6.58,1.71-9.24A19.48,19.48,0,0,0,423.19,383.34Z" style="fill:#263238"></path><g style="opacity:0.30000000000000004"><path d="M418.67,409.58s-6.11-21.17,5.95-33.22a.74.74,0,0,1,1.25.39C426.42,380.24,427,390.83,418.67,409.58Z"></path></g><path d="M384.07,334.55s-17.64-13.2-15.28-30.09A.73.73,0,0,1,370,304C372.56,306.47,379.39,314.59,384.07,334.55Z" style="fill:#FF725E"></path><g style="opacity:0.30000000000000004"><path d="M384.07,334.55s-17.64-13.2-15.28-30.09A.73.73,0,0,1,370,304C372.56,306.47,379.39,314.59,384.07,334.55Z"></path></g><path d="M371.85,310.89a18.06,18.06,0,0,0,1.39,3.66c1,2.21,2.36,5.23,4,8.52s3.23,6.21,4.46,8.29a16.91,16.91,0,0,0,2.2,3.24,21.21,21.21,0,0,0-1.69-3.52L378,322.7c-1.58-3.14-3-6-4.21-8.4A19.58,19.58,0,0,0,371.85,310.89Z" style="fill:#263238"></path><path d="M412.05,388.58s-21.65-4.09-27-20.28a.73.73,0,0,1,.9-.94C389.34,368.44,399.05,372.72,412.05,388.58Z" style="fill:#FF725E"></path><g style="opacity:0.30000000000000004"><path d="M412.05,388.58s-21.65-4.09-27-20.28a.73.73,0,0,1,.9-.94C389.34,368.44,399.05,372.72,412.05,388.58Z"></path></g><path d="M390.66,372.72a17.25,17.25,0,0,0,2.85,2.67c1.84,1.56,4.42,3.65,7.35,5.88s5.64,4.16,7.66,5.48a16.47,16.47,0,0,0,3.39,1.95,20.21,20.21,0,0,0-3.06-2.42l-7.49-5.66-7.49-5.69A19,19,0,0,0,390.66,372.72Z" style="fill:#263238"></path><polygon points="431.54 429.27 434.94 458.47 398.88 458.47 403.46 428.39 431.54 429.27" style="fill:#455a64"></polygon><path d="M401.46,441.57c0,.23,7.13.64,15.94.92s16,.32,16,.09-7.13-.63-15.94-.91S401.47,441.35,401.46,441.57Z" style="fill:#263238"></path><path d="M400.57,445c0,.23,7.36.64,16.46.93s16.48.34,16.49.11-7.37-.64-16.47-.93S400.58,444.72,400.57,445Z" style="fill:#263238"></path></g><g id="freepik--Hearts--inject-35"><path d="M140.6,221.63a8.37,8.37,0,0,0-3.31-3.78,8.06,8.06,0,0,0-4.73-1.34,6.59,6.59,0,0,0-4.6,2.34,6.5,6.5,0,0,0-1.36,2.82,6.52,6.52,0,0,0-2.42-1.48,6.6,6.6,0,0,0-5.15.42,8,8,0,0,0-3.32,3.63,8.33,8.33,0,0,0-.83,4.95,10.2,10.2,0,0,0,2.93,5.68,14.41,14.41,0,0,0,6,3.11c3.65,1,8.42,2.18,8.42,2.18s2.73-3.58,5.31-6.34a14.37,14.37,0,0,0,3.51-5.82A10.17,10.17,0,0,0,140.6,221.63Z" style="fill:#FF725E"></path><path d="M435.8,115.26a14,14,0,0,0,.26-8.41,13.45,13.45,0,0,0-4.29-7,10.83,10.83,0,0,0-13.18-.46,10.93,10.93,0,0,0-1.29-4.58,11.06,11.06,0,0,0-6.8-5.35,13.45,13.45,0,0,0-8.21.66,14,14,0,0,0-6.66,5.14,17.1,17.1,0,0,0-2.88,10.3,24.11,24.11,0,0,0,3.86,10.71c3.35,5.37,7.85,12.27,7.85,12.27s7.44-1.28,13.75-1.72a24.12,24.12,0,0,0,10.94-3.16A17,17,0,0,0,435.8,115.26Z" style="fill:#FF725E"></path><path d="M383.07,230.77a7.42,7.42,0,0,0-.58-4.4,7.1,7.1,0,0,0-2.82-3.3,5.71,5.71,0,0,0-6.9.87,5.68,5.68,0,0,0-1.06-2.28,5.79,5.79,0,0,0-4-2.21,7.16,7.16,0,0,0-4.22,1,7.41,7.41,0,0,0-3,3.24,8.93,8.93,0,0,0-.63,5.6,12.62,12.62,0,0,0,2.91,5.25c2.19,2.52,5.11,5.73,5.11,5.73s3.77-1.29,7-2.05a12.91,12.91,0,0,0,5.43-2.56A9.06,9.06,0,0,0,383.07,230.77Z" style="fill:#FF725E"></path><path d="M141.84,272.45a3.51,3.51,0,0,0-1.3-1.67,3.45,3.45,0,0,0-1.95-.67,2.76,2.76,0,0,0-2.63,2,2.66,2.66,0,0,0-1-.68,2.73,2.73,0,0,0-2.17.06,3.32,3.32,0,0,0-1.48,1.44,3.56,3.56,0,0,0-.47,2.06,4.33,4.33,0,0,0,1.1,2.46,6.13,6.13,0,0,0,2.46,1.45c1.51.5,3.49,1.11,3.49,1.11s1.23-1.44,2.38-2.54a6,6,0,0,0,1.61-2.36A4.27,4.27,0,0,0,141.84,272.45Z" style="fill:#FF725E"></path><path d="M89.3,306.66A3.57,3.57,0,0,0,88,305a3.48,3.48,0,0,0-2-.67,2.8,2.8,0,0,0-2,.88,2.76,2.76,0,0,0-.63,1.15,2.62,2.62,0,0,0-1-.68,2.73,2.73,0,0,0-2.17.06,3.37,3.37,0,0,0-1.48,1.44,3.48,3.48,0,0,0-.46,2.06,4.33,4.33,0,0,0,1.1,2.46,6.07,6.07,0,0,0,2.46,1.45c1.51.5,3.48,1.11,3.48,1.11s1.24-1.44,2.39-2.54a6,6,0,0,0,1.6-2.36A4.27,4.27,0,0,0,89.3,306.66Z" style="fill:#FF725E"></path><path d="M393.36,267.83a3.54,3.54,0,0,0-1.3-1.66,3.39,3.39,0,0,0-2-.68,2.76,2.76,0,0,0-2.62,2,2.71,2.71,0,0,0-3.15-.62,3.4,3.4,0,0,0-1.49,1.44,3.63,3.63,0,0,0-.46,2.06,4.3,4.3,0,0,0,1.1,2.46,6.07,6.07,0,0,0,2.46,1.45c1.51.5,3.49,1.11,3.49,1.11s1.23-1.44,2.38-2.54a6.07,6.07,0,0,0,1.61-2.36A4.34,4.34,0,0,0,393.36,267.83Z" style="fill:#FF725E"></path></g><g id="freepik--Characters--inject-35"><path d="M194.39,173.21c-7.35-4-18.76-4-26.77,7.15-8.21,11.41-5.19,20.3-3.14,29.64,1.1,5,3.45,10.35,1.43,15.09-2.16,5.09-8.3,7-12.35,10.75a16.55,16.55,0,0,0-3.76,18.33c2.9,6.53,10,10.83,11.73,17.75,1.5,5.9-1.37,12.12-5.38,16.7S147,296.67,142.74,301s-7.87,10-7.52,16c.47,8,7.39,14,13.86,18.72,3.89,2.87,7.9,5.72,12.46,7.32,10.71,3.76,39.05,8.45,49.4,3.8,15.47-7,24.77-21.49,34.91-35.09,12.19-16.36,19.82-50,.83-70.47" style="fill:#263238"></path><path d="M141,327.57a13.52,13.52,0,0,1-.76-1.48,10.93,10.93,0,0,1-1.12-4.66c0-2.14,1.33-4.57,3.42-6.66a28.14,28.14,0,0,1,8.31-5.62c3.36-1.62,7.24-2.88,11.27-4.53s8.27-3.77,11.46-7.46a15.91,15.91,0,0,0,3.51-6.43,13.17,13.17,0,0,0-.41-7.57,36.22,36.22,0,0,0-3.63-7.19,47.07,47.07,0,0,1-4-7.42,16.26,16.26,0,0,1-1.23-8.36,9.34,9.34,0,0,1,1.56-3.91,11.69,11.69,0,0,1,3-2.87c2.22-1.56,4.63-2.65,6.56-4.28a10,10,0,0,0,3.5-6.25,14.74,14.74,0,0,0-.66-6.94,29.16,29.16,0,0,0-2.91-6c-2.29-3.7-4.84-6.87-7-9.87a54.13,54.13,0,0,1-8.24-15.5,26.74,26.74,0,0,1-1.16-4.64,9.48,9.48,0,0,1-.13-1.67s.06.57.26,1.65a29.57,29.57,0,0,0,1.26,4.58,55.11,55.11,0,0,0,8.37,15.32c2.2,3,4.78,6.14,7.11,9.86a29.48,29.48,0,0,1,3,6.12,15.13,15.13,0,0,1,.7,7.2,10.46,10.46,0,0,1-3.68,6.61c-2,1.71-4.44,2.81-6.58,4.33a10.85,10.85,0,0,0-2.81,2.72,8.55,8.55,0,0,0-1.45,3.66,15.72,15.72,0,0,0,1.19,8,47.27,47.27,0,0,0,4,7.31,37,37,0,0,1,3.68,7.33,13.72,13.72,0,0,1,.41,7.91,16.45,16.45,0,0,1-3.66,6.66c-3.3,3.79-7.68,5.91-11.7,7.56s-7.93,2.87-11.28,4.45a28.15,28.15,0,0,0-8.24,5.47c-2.09,2-3.39,4.35-3.43,6.42a11.21,11.21,0,0,0,1,4.6C140.8,327,141.06,327.55,141,327.57Z" style="fill:#455a64"></path><path d="M162.24,199.42a1.71,1.71,0,0,1-.15-.48,13.23,13.23,0,0,1-.28-1.39,18.78,18.78,0,0,1,0-5.24,21.05,21.05,0,0,1,2.47-7.37,19.33,19.33,0,0,1,15.44-10.08,21.06,21.06,0,0,1,7.74.7,18.68,18.68,0,0,1,4.8,2.1,11.36,11.36,0,0,1,1.16.82,2.18,2.18,0,0,1,.38.32,26.5,26.5,0,0,0-6.46-2.81,21.28,21.28,0,0,0-7.56-.56,19.09,19.09,0,0,0-15,9.8,21.05,21.05,0,0,0-2.53,7.15A26,26,0,0,0,162.24,199.42Z" style="fill:#455a64"></path><path d="M248.12,189.59l49.74,86.3-36,27.15L240,271.74s-18.66,9.21-30.69-7.46A288.29,288.29,0,0,1,187,226.38c-10.2-21-4.17-38.45,13.47-48.87h0C217.82,167.28,237.78,172.35,248.12,189.59Z" style="fill:#b78876"></path><path d="M239.52,271.52s11.24-6.61,17.55-21.64c0,0,3.33,15.74-14.52,26Z" style="fill:#a36957"></path><path d="M230.66,206.48c-.51-.13-1.52,2.45-4.19,4.13s-5.48,1.58-5.56,2.09c0,.24.63.62,1.88.7a8,8,0,0,0,4.7-1.27,7.76,7.76,0,0,0,3.08-3.69C231,207.29,230.9,206.53,230.66,206.48Z" style="fill:#263238"></path><path d="M204.14,221.71c-.51-.12-1.52,2.46-4.19,4.14s-5.48,1.58-5.56,2.09c0,.23.63.62,1.88.7a8.09,8.09,0,0,0,4.7-1.27,7.73,7.73,0,0,0,3.08-3.7C204.47,222.53,204.38,221.76,204.14,221.71Z" style="fill:#263238"></path><path d="M228.24,242.89a3.08,3.08,0,0,1-1.26-2.25,9,9,0,0,1,.21-2.64,6.14,6.14,0,0,1,1.18-3.14,4.75,4.75,0,0,1,2.62-1.31,5.11,5.11,0,0,1,3.17.16,4,4,0,0,1,2.06,4.18,5.56,5.56,0,0,1-2.91,3.85,9.73,9.73,0,0,1-4.84,1" style="fill:#a36957"></path><path d="M230.18,231.65c-.43.27,1.53,3.08.53,6.76s-4.21,5.47-4,5.88c.08.2,1.05.08,2.33-.78a8.47,8.47,0,0,0,3.41-4.74,7.41,7.41,0,0,0-.62-5.55C231.16,232,230.36,231.5,230.18,231.65Z" style="fill:#263238"></path><path d="M228.78,199.57c-.59-.7-3.41.76-7.05,1.6s-6.8.91-7,1.8c-.08.42.68,1,2.1,1.38a12.59,12.59,0,0,0,10.71-2.59C228.63,200.78,229,199.91,228.78,199.57Z" style="fill:#263238"></path><path d="M195.2,212.29c-.91-.06-1.79,2.06-3.5,4.05s-3.57,3.3-3.34,4.18c.12.41.89.62,2,.35a7.73,7.73,0,0,0,5.51-6.63C196,213.06,195.62,212.34,195.2,212.29Z" style="fill:#263238"></path><path d="M221.56,235.84c-.07-.16-1.9.43-4.79,1.5-.73.29-1.45.49-1.82.08a3.92,3.92,0,0,1-.6-2.28c-.23-2-.46-4.1-.71-6.31-1.07-8.94-2.23-16.15-2.59-16.11s.22,7.34,1.29,16.28q.42,3.3.81,6.3a4.51,4.51,0,0,0,1,2.89,2,2,0,0,0,1.66.42,6.11,6.11,0,0,0,1.26-.45C219.93,236.88,221.63,236,221.56,235.84Z" style="fill:#263238"></path><path d="M261.85,227.83c-.86,5,.1,10.65.27,15.76s2.09,10.51,6.4,13.23,10.73,2.83,12.76,7.46c.86,2,.6,4.25,1.19,6.31.86,3,3.47,5.26,6.35,6.47a16.54,16.54,0,0,0,2.15.74l3.91,6.71c4.83,8.3,10.19,17.07,18.91,21.08a19.52,19.52,0,0,0,15.22.76c4.85-1.93,8.72-6.51,9.19-11.71.35-3.95-1.16-7.84-1.22-11.8-.13-8.26,6-16.17,4-24.17-2.48-9.77-15.21-13.08-20.21-21.83-2.08-3.65-2.66-8-4.69-11.67-3.81-6.88-11.78-10.07-18.95-13.32a54.62,54.62,0,0,1-7.05-3.79,10.43,10.43,0,0,0,1-1.09c3-3.74,3.14-9.33.82-13.53a16.48,16.48,0,0,0-11.49-7.85c-3.07-.56-6.41-.44-9.06-2.09-3-1.84-4.51-5.59-7.72-6.94-2.38-1-5.09-.39-7.67-.29-5.7.23-11.83-3.85-18.62-8.57-4.85-4-10.3-7.49-16.49-7.82-7.35-.39-14.08,3.79-20.26,7.81-5.6,3.65-11.88,8.56-11.5,15.24h0c7.44,12.59,18.8,24.38,39.15,14.17,4.69-2.35,11.43-2.49,14.93,1.42,3.73,4.16,1.65,12.32,6.63,14.85a8.58,8.58,0,0,0,3.32.76,10.06,10.06,0,0,1,4.14,2S262.19,222.14,261.85,227.83Z" style="fill:#263238"></path><path d="M271.39,210.44s.16-.3.29-.92a4,4,0,0,0-.48-2.63,5.7,5.7,0,0,0-3.27-2.63,39.91,39.91,0,0,0-5.68-1.21,10.31,10.31,0,0,1-3.25-1.18,7.88,7.88,0,0,1-2.63-2.69c-1.38-2.23-2-5-3-7.59a19.08,19.08,0,0,0-13.47-11.35,18.38,18.38,0,0,0-4.77-.45,20.24,20.24,0,0,0-4.6.8c-3,.86-5.68,2.14-8.38,3.14a28.7,28.7,0,0,1-8,1.85,28,28,0,0,1-7.11-.42,26.65,26.65,0,0,1-9.53-3.77,20.29,20.29,0,0,1-2.26-1.66,7.6,7.6,0,0,1-.72-.65,4.62,4.62,0,0,1,.8.55,26.24,26.24,0,0,0,2.31,1.55,27.36,27.36,0,0,0,9.48,3.54,27.79,27.79,0,0,0,7,.34,28.6,28.6,0,0,0,7.8-1.87c2.66-1,5.39-2.3,8.41-3.19a21.19,21.19,0,0,1,4.74-.83,18.81,18.81,0,0,1,4.94.46,19.57,19.57,0,0,1,13.86,11.75c1,2.7,1.57,5.39,2.87,7.53a7.47,7.47,0,0,0,2.44,2.55,10.26,10.26,0,0,0,3.1,1.16,39,39,0,0,1,5.71,1.31,6,6,0,0,1,3.36,2.85,4,4,0,0,1,.38,2.77A2.25,2.25,0,0,1,271.39,210.44Z" style="fill:#455a64"></path><path d="M243,171.52a2,2,0,0,1-.26-.5,10.51,10.51,0,0,0-.7-1.43,8.58,8.58,0,0,0-1.53-2,5.62,5.62,0,0,0-2.92-1.34c-2.43-.36-5.31.86-7.89,2.82s-5.81,3.83-9.08,5.83a34.31,34.31,0,0,1-18.93,4.43,31.33,31.33,0,0,1-5.88-.89c-.68-.16-1.2-.34-1.55-.45a2.34,2.34,0,0,1-.53-.21,17.88,17.88,0,0,1,2.13.43,37,37,0,0,0,5.85.68,35,35,0,0,0,18.6-4.53c3.24-2,6.38-3.85,9-5.75s5.69-3.24,8.3-2.79a5.79,5.79,0,0,1,3.08,1.52,7.94,7.94,0,0,1,1.51,2.1,8.69,8.69,0,0,1,.61,1.5A2.17,2.17,0,0,1,243,171.52Z" style="fill:#455a64"></path><path d="M347.35,335.83c-11.07,5-15.81,7.32-26.88,8.64l0,.14-14.72-35.34c1.57-1.46,3.37-3.23,5.39-5.4a22.29,22.29,0,0,0,4.13-6.37c1.23-2.84,2.7-6.68,2.86-9,.19-2.91,3.82-4.07,5.24-1.84s1.09,10.27-3.39,18.52,9.18,2.63,14.2.66Z" style="fill:#ffbe9d"></path><path d="M258,288.31a32.58,32.58,0,0,1,22.39-12.4c7.94-.93,14.55-1.81,22.3,1.64,17.28,7.7,20,17.27,29.21,33.78,7.18,12.84,11.7,35.63,9.42,58.62-2.3,23.35-6.4,53-6.4,53l22.54,35.51H240.9V391.09l-38.72-25Z" style="fill:#455a64"></path><path d="M336.56,313.79l-5.79,10.89c-.94,1.77-2.28,3.79-4.28,3.75-1.83,0-3.17-1.95-3.25-3.78a11.12,11.12,0,0,1,1.57-5.19l6.56-13.25.37-1.23s2.11-3.61,4.6-2.36C338.61,303.75,339.52,308.22,336.56,313.79Z" style="fill:#ffbe9d"></path><path d="M340.68,322.76q-2.88,5.44-5.78,10.89c-.94,1.77-2.28,3.79-4.29,3.75-1.83,0-3.16-1.95-3.24-3.77a11,11,0,0,1,1.56-5.2l6.57-13.25.37-1.23s2.1-3.61,4.6-2.36C342.74,312.72,343.64,317.19,340.68,322.76Z" style="fill:#ffbe9d"></path><path d="M344.57,332l-5.49,10.33c-.89,1.67-2.16,3.59-4.06,3.55-1.73,0-3-1.84-3.08-3.58a10.45,10.45,0,0,1,1.49-4.92q3.1-6.28,6.22-12.56l.35-1.17s2-3.42,4.36-2.24C346.52,322.47,347.37,326.7,344.57,332Z" style="fill:#ffbe9d"></path><path d="M348.11,336.51,344,344.2c-.67,1.25-1.61,2.67-3,2.64a2.66,2.66,0,0,1-2.29-2.66,7.77,7.77,0,0,1,1.11-3.67l4.63-9.36.26-.87s1.49-2.55,3.25-1.67S350.2,332.57,348.11,336.51Z" style="fill:#ffbe9d"></path><path d="M337.32,311.7a10.7,10.7,0,0,1-.77,1.71l-2.3,4.58-3.49,6.75a8.09,8.09,0,0,1-2.88,3.58,3.12,3.12,0,0,1-2.54.21,4,4,0,0,1-2-1.66A6,6,0,0,1,323,322a30.7,30.7,0,0,1,1.92-4.11c1.32-2.5,2.51-4.78,3.53-6.73s1.8-3.34,2.42-4.51a10.5,10.5,0,0,1,1-1.61,10.55,10.55,0,0,1-.75,1.72l-2.25,4.61c-1,2-2.14,4.26-3.41,6.79a29.63,29.63,0,0,0-1.84,4,5.42,5.42,0,0,0,.23,4.41,2.85,2.85,0,0,0,3.74,1.23,7.78,7.78,0,0,0,2.65-3.31l3.61-6.69c1-1.82,1.84-3.32,2.48-4.48A11.11,11.11,0,0,1,337.32,311.7Z" style="fill:#eb996e"></path><path d="M341.36,321.31a10,10,0,0,1-.76,1.71c-.6,1.18-1.38,2.72-2.31,4.58l-3.49,6.75a8.09,8.09,0,0,1-2.88,3.58,3.12,3.12,0,0,1-2.54.21,4,4,0,0,1-2-1.66,6,6,0,0,1-.28-4.92,29.49,29.49,0,0,1,1.91-4.11c1.32-2.5,2.51-4.78,3.53-6.73s1.8-3.34,2.43-4.51a10.1,10.1,0,0,1,1-1.61,10.55,10.55,0,0,1-.75,1.72l-2.25,4.61-3.4,6.79a29.66,29.66,0,0,0-1.85,4,5.43,5.43,0,0,0,.23,4.41,2.85,2.85,0,0,0,3.74,1.23,7.78,7.78,0,0,0,2.65-3.31c1.35-2.49,2.56-4.75,3.61-6.69l2.48-4.48A12.37,12.37,0,0,1,341.36,321.31Z" style="fill:#eb996e"></path><path d="M346,328.43a13.65,13.65,0,0,1-.76,1.74l-2.09,4.73c-.88,2-1.9,4.4-3.21,7a9.53,9.53,0,0,1-2.76,3.73,3.19,3.19,0,0,1-2.53.46,3.91,3.91,0,0,1-2.16-1.52,5.8,5.8,0,0,1-.49-4.95,26.29,26.29,0,0,1,1.91-4.17c1.33-2.53,2.53-4.83,3.56-6.8s1.82-3.38,2.45-4.56a10.3,10.3,0,0,1,1-1.63,11.46,11.46,0,0,1-.76,1.74l-2.27,4.65-3.45,6.87a25.45,25.45,0,0,0-1.83,4.07,5.23,5.23,0,0,0,.41,4.42,3.31,3.31,0,0,0,1.8,1.27,2.52,2.52,0,0,0,2.05-.37,8.83,8.83,0,0,0,2.57-3.48c1.33-2.55,2.39-4.92,3.32-6.9s1.71-3.57,2.29-4.65A9,9,0,0,1,346,328.43Z" style="fill:#eb996e"></path><path d="M278,168.57l-3.83.37-21.31,42.37h0l-7.61,15.11a59.8,59.8,0,0,1-6.3,8.38c-8.86,9.7-34.56,23.48-34.56,23.48l49.44,27.14,26.31-18.17.07.06s19.12,8.2,30.25-9.09S343.66,199,343.66,199A71.43,71.43,0,0,0,278,168.57Z" style="fill:#ffbe9d"></path><path d="M280.43,267.07A34.17,34.17,0,0,1,260,242.48s-2.85,18.66,15.52,28Z" style="fill:#eb996e"></path><path d="M265,188.33c-.21-.31-9.75-11-16.83,1.11s7.5,17.13,7.73,16.8S265,188.33,265,188.33Z" style="fill:#ffbe9d"></path><path d="M254,199.09c0-.07-.3,0-.75,0a2.41,2.41,0,0,1-1.6-.89c-1-1.22-.9-3.88.31-6.11a8.15,8.15,0,0,1,2.36-2.68,2.82,2.82,0,0,1,2.54-.7,1.25,1.25,0,0,1,.91,1.31c0,.43-.25.63-.2.69s.38-.05.58-.61a1.57,1.57,0,0,0,0-1,1.81,1.81,0,0,0-1-1,3.46,3.46,0,0,0-3.31.59,8.37,8.37,0,0,0-2.71,3c-1.34,2.5-1.43,5.52,0,7.05a2.61,2.61,0,0,0,2.13.8C253.79,199.37,254,199.14,254,199.09Z" style="fill:#eb996e"></path><path d="M314.28,215.31c.5-.17,1.72,2.31,4.53,3.75s5.6,1.1,5.72,1.6c.08.23-.57.67-1.81.86a8,8,0,0,1-4.79-.86,7.65,7.65,0,0,1-3.39-3.41C314,216.15,314,215.38,314.28,215.31Z" style="fill:#263238"></path><path d="M288,199.9c.51-.14,1.58,2.41,4.3,4s5.51,1.44,5.61,2c.05.23-.61.64-1.86.75a8.11,8.11,0,0,1-4.74-1.15,7.8,7.8,0,0,1-3.17-3.61C287.64,200.72,287.71,200,288,199.9Z" style="fill:#263238"></path><path d="M295.66,231.44c.08-.16,1.93.59,4.84,1.94.73.35,1.46.62,1.87.23a4.13,4.13,0,0,0,.81-2.31q.6-3.09,1.24-6.48c1.84-9.17,3.62-16.54,4-16.46s-.82,7.58-2.65,16.75l-1.35,6.45a4.65,4.65,0,0,1-1.32,2.9,2,2,0,0,1-1.76.3,5.51,5.51,0,0,1-1.26-.57C297.27,232.64,295.58,231.6,295.66,231.44Z" style="fill:#263238"></path><path d="M286.62,228.35c.45.25-1.36,3.16-.17,6.78s4.49,5.24,4.26,5.66c-.07.21-1,.13-2.37-.65a8.52,8.52,0,0,1-3.66-4.56A7.41,7.41,0,0,1,285,230C285.66,228.73,286.43,228.21,286.62,228.35Z" style="fill:#263238"></path><path d="M305.65,195.43c-.72.57-3.18-1.45-6.56-3s-6.46-2.33-6.46-3.24c0-.43.88-.84,2.34-.9a12,12,0,0,1,5.52,1.25,11.88,11.88,0,0,1,4.4,3.54C305.75,194.22,306,195.16,305.65,195.43Z" style="fill:#263238"></path><path d="M328.88,213.12c-.85.31-2.3-1.48-4.5-2.9s-4.35-2.15-4.38-3.06c0-.43.68-.85,1.86-.91a7.74,7.74,0,0,1,7.16,4.8C329.41,212.16,329.28,213,328.88,213.12Z" style="fill:#263238"></path><path d="M359,193.35a7.59,7.59,0,0,0,1.23-7.23,5.38,5.38,0,0,0-6.19-3.26,6.28,6.28,0,0,0-.53-9.32c-2.73-2-6.5-1.34-9.72-2.3s-5.62-3.38-7.54-6-3.44-5.59-5.46-8.18a26.29,26.29,0,0,0-36.69-4.77c-3.06-3.58-8.6-4.36-13-2.6s-7.63,5.62-9.64,9.87a43.42,43.42,0,0,0-2.91,9.07c-.14.22-.3.43-.43.66-5.82,9.69-11.79,21.62-7.74,24.24,7.05,4.58,13.76-9.91,13.76-9.91,10.86,2.1,15.81-13,19.24-13.66s10.9-2.37,23.34,18.45c4.84,8.09,14.36,13.89,20.25,16l.51.19.12,0,.19,0a19.55,19.55,0,0,0,5.95,1,11,11,0,0,0,6.56-1.88,6,6,0,0,0,2.42-6.08A13.14,13.14,0,0,0,359,193.35Z" style="fill:#263238"></path><path d="M344.72,188.8a2.7,2.7,0,0,1-.84-.74A4.59,4.59,0,0,1,343,185a5.12,5.12,0,0,1,.63-2.26,4.34,4.34,0,0,1,2.06-1.89,5.93,5.93,0,0,1,6.39,1.3A6.83,6.83,0,0,1,353,190a8.89,8.89,0,0,1-7.94,4.49,13.46,13.46,0,0,1-9.34-4.16,26.59,26.59,0,0,1-6-9.31c-1.44-3.52-2.49-7.06-3.69-10.4a38.23,38.23,0,0,0-4.41-9.15l-.7-1c-.24-.32-.52-.6-.78-.9l-.77-.88c-.28-.27-.55-.54-.84-.79a18.65,18.65,0,0,0-3.63-2.55,19,19,0,0,0-18.74.32,20.46,20.46,0,0,0-2.61,1.8,7.75,7.75,0,0,1-.87.69,14.67,14.67,0,0,1,3.35-2.69,19.11,19.11,0,0,1,11.3-2.82,19.51,19.51,0,0,1,11.57,4.84c.3.25.58.53.87.81l.8.9c.26.3.55.59.8.92s.47.66.72,1a38.57,38.57,0,0,1,4.52,9.27c1.21,3.36,2.26,6.89,3.69,10.37a26,26,0,0,0,5.81,9.11,13,13,0,0,0,8.92,4,8.37,8.37,0,0,0,7.48-4.16,6.37,6.37,0,0,0-.75-7.27,5.57,5.57,0,0,0-5.94-1.29,4.45,4.45,0,0,0-2.59,3.84,4.58,4.58,0,0,0,.76,3A8.91,8.91,0,0,0,344.72,188.8Z" style="fill:#fafafa"></path><path d="M240.9,388.12,272.52,292,265,277.7l-45.68-29.63c-1.67,1.11-55,21.8-71,70.48-11.47,34.93-18.29,106.83-18.29,106.83l-6,33.09H240.9V388.12" style="fill:#FF725E"></path><g style="opacity:0.2"><path d="M149.8,423.38c8.41,5.89,16.92,11.84,26.53,15.44s20.58,4.66,30,.68c4.24-1.79,8.44-4.61,13-4,5.45.71,9,5.92,13.63,8.88,2.47,1.58,5.3,3.62,7.54,1.72l.17-8.2c-.12-10.38.18-33,.18-33-.08-1.13,0-.26-.39-.53-2-1.42-4.68-.29-6.54,1.33-8.65,7.54-15.92,17-26.25,22-8.93,4.33-19.33,4.8-29.1,3.16s-19.1-5.26-28.34-8.86"></path></g><path d="M231,285.46s-27.43,20-10.82,60.1,31.69,60.86,31.69,60.86L305,363.05l-9.58-17.88a90.51,90.51,0,0,1-9.06-25c-2.27-11.38-7.82-28.95-21.11-39C257.15,275.1,245.31,276.73,231,285.46Z" style="fill:#FF725E"></path><path d="M188.34,266.15a23.11,23.11,0,0,1,4.64.45,15.7,15.7,0,0,1,5.15,1.89,10.38,10.38,0,0,1,2.62,2.26,10.76,10.76,0,0,1,1.85,3.41,16.27,16.27,0,0,1,.45,8.77,16,16,0,0,1-5.12,8.67c-2.7,2.39-6.11,4-9.36,6.06a22.89,22.89,0,0,0-4.56,3.56,12.4,12.4,0,0,0-2.95,5.06c-1.14,3.87-.74,7.93-1,11.79a21.68,21.68,0,0,1-1,5.65,19.72,19.72,0,0,1-2.44,4.93,20.9,20.9,0,0,1-7.54,6.73,18.8,18.8,0,0,1-8.54,2.09,20.34,20.34,0,0,1-7.16-1.27,19.67,19.67,0,0,1-4.84-2.57,18.06,18.06,0,0,1-2.6-2.29l-.59-.68c-.13-.16-.19-.24-.18-.25a25.39,25.39,0,0,0,3.51,3,19.78,19.78,0,0,0,4.82,2.44,20.07,20.07,0,0,0,7,1.15,18.37,18.37,0,0,0,8.31-2.1,20.37,20.37,0,0,0,7.3-6.59,19.43,19.43,0,0,0,3.32-10.3c.26-3.8-.16-7.89,1-11.93a12.87,12.87,0,0,1,3.1-5.3,23.21,23.21,0,0,1,4.69-3.66c3.29-2,6.67-3.66,9.3-6a15.39,15.39,0,0,0,5-8.34,15.8,15.8,0,0,0-.36-8.52,10.46,10.46,0,0,0-1.73-3.3,10.27,10.27,0,0,0-2.5-2.21,15.77,15.77,0,0,0-5-2c-1.46-.32-2.61-.44-3.39-.54l-.9-.1A1,1,0,0,1,188.34,266.15Z" style="fill:#fafafa"></path><path d="M213.79,257.63s.15-.1.47-.24a9.34,9.34,0,0,1,1.46-.47,10.27,10.27,0,0,1,5.6.32,8.37,8.37,0,0,1,3.3,2.13,8.16,8.16,0,0,1,2,4.05,7.29,7.29,0,0,1-.72,4.93,7.66,7.66,0,0,1-4.19,3.33,9.57,9.57,0,0,1-9.73-2.12,8.24,8.24,0,0,1-2.21-7.86,7.4,7.4,0,0,1,3.43-4.39,6.43,6.43,0,0,1,1.42-.59,1.88,1.88,0,0,1,.53-.08,16.15,16.15,0,0,0-1.83.87,7.39,7.39,0,0,0-3.12,4.31,7.8,7.8,0,0,0,2.19,7.33,9,9,0,0,0,9.11,1.94,7,7,0,0,0,3.86-3,6.82,6.82,0,0,0,.7-4.53,7.73,7.73,0,0,0-1.82-3.8,8.14,8.14,0,0,0-3.08-2.07,10.43,10.43,0,0,0-5.39-.49C214.48,257.39,213.81,257.69,213.79,257.63Z" style="fill:#fafafa"></path><path d="M237,381a7,7,0,0,0,1.44,1.45,7.51,7.51,0,0,0,5.56,1.22,14.67,14.67,0,0,0,7.83-4.66,24.74,24.74,0,0,0,3.44-4.64,25.83,25.83,0,0,0,2.35-6,23.72,23.72,0,0,0-.92-14.6,28.3,28.3,0,0,0-4.33-7c-1.76-2.26-3.72-4.5-5.38-7.08a17.57,17.57,0,0,1-3-8.85,41.69,41.69,0,0,1,1-9.72,35.85,35.85,0,0,0,.83-9.92,22.87,22.87,0,0,0-6.28-13.73,21.3,21.3,0,0,0-4-3.12A16.39,16.39,0,0,0,226,292a19.28,19.28,0,0,0-4.73.88,20.18,20.18,0,0,0-4.27,2,18.06,18.06,0,0,0-3.46,3.05,13.84,13.84,0,0,0-2.31,3.86,27.54,27.54,0,0,0-1.49,8.61,33.44,33.44,0,0,1-1.22,8.32,25.93,25.93,0,0,1-3.83,6.86c-1.47,2-2.95,3.93-4.14,5.88a15.39,15.39,0,0,0-2.27,6,14,14,0,0,0,.41,5.71,15.15,15.15,0,0,0,2.27,4.45,14,14,0,0,0,1.49,1.64l.76.7.79.58a15.18,15.18,0,0,0,5.34,2.34c.66.13,1.17.17,1.51.24l.52.09a3.37,3.37,0,0,1-.52,0c-.35,0-.87-.07-1.54-.18a14.59,14.59,0,0,1-5.45-2.27l-.81-.57-.79-.7a13.83,13.83,0,0,1-3.9-6.19,14.15,14.15,0,0,1-.47-5.86,15.71,15.71,0,0,1,2.29-6.17c1.18-2,2.67-3.9,4.12-5.93a25.48,25.48,0,0,0,3.73-6.74,33.26,33.26,0,0,0,1.16-8.2,28.43,28.43,0,0,1,1.5-8.79,14.78,14.78,0,0,1,2.4-4,17.82,17.82,0,0,1,3.59-3.17,20.49,20.49,0,0,1,4.4-2.11,19.58,19.58,0,0,1,4.89-.92,18,18,0,0,1,5.05.43,19,19,0,0,1,4.77,1.94,21.28,21.28,0,0,1,4.11,3.23,23.1,23.1,0,0,1,3.22,4.19,23.56,23.56,0,0,1,3.23,9.91,36.33,36.33,0,0,1-.84,10.09,41.61,41.61,0,0,0-1,9.57,17.17,17.17,0,0,0,2.92,8.58c3.25,5,7.74,9,9.71,14.23a24.11,24.11,0,0,1,.87,14.89,26.41,26.41,0,0,1-2.43,6.12,24.49,24.49,0,0,1-3.54,4.7,14.87,14.87,0,0,1-8,4.65,7.56,7.56,0,0,1-5.67-1.36,5.76,5.76,0,0,1-1.09-1.1A4.25,4.25,0,0,1,237,381Z" style="fill:#fafafa"></path><path d="M280.25,306.42a1.94,1.94,0,0,1-.29.5,7.71,7.71,0,0,1-1,1.3,12.31,12.31,0,0,1-5.19,3.22,13.38,13.38,0,0,1-9-.27,16.56,16.56,0,0,1-8.34-7.24,20.63,20.63,0,0,1-2.6-10.77c.1-3.42.82-6.57,2.34-8.75a7.56,7.56,0,0,1,5.07-3.31,5.18,5.18,0,0,1,1.67,0,1.66,1.66,0,0,1,.56.17,8.13,8.13,0,0,0-2.2,0,7.48,7.48,0,0,0-4.74,3.32,16.31,16.31,0,0,0-2.12,8.51,20.35,20.35,0,0,0,2.56,10.45,16.2,16.2,0,0,0,8,7,13.08,13.08,0,0,0,8.67.39,12.66,12.66,0,0,0,5.15-3C279.77,307.06,280.2,306.38,280.25,306.42Z" style="fill:#fafafa"></path><path d="M290.86,336.18a8.37,8.37,0,0,0-1.88-1.67,7.8,7.8,0,0,0-6.58-.47c-2.71,1-5.15,3.83-6.37,7.46s-1.33,8-1.86,12.44-1.25,8.69-1.58,12.56a45,45,0,0,0,.11,10.27,28,28,0,0,0,1.74,6.69c.62,1.52,1.07,2.31,1,2.34a3,3,0,0,1-.37-.55,17.12,17.12,0,0,1-.88-1.69,26,26,0,0,1-1.95-6.73,43.65,43.65,0,0,1-.24-10.38c.3-3.9,1-8.13,1.53-12.59s.59-8.79,1.93-12.55,3.88-6.67,6.77-7.69a7.91,7.91,0,0,1,6.86.69,5.73,5.73,0,0,1,1.41,1.3A2.12,2.12,0,0,1,290.86,336.18Z" style="fill:#fafafa"></path><path d="M128,440.17s.21.56.72,1.57a18.51,18.51,0,0,0,2.77,4.08,16.07,16.07,0,0,0,2.67,2.34,8.47,8.47,0,0,0,3.88,1.47,8.58,8.58,0,0,0,4.61-1.13,50.74,50.74,0,0,0,4.79-2.66c3.27-2,6.92-4.4,11.46-5.35s9.4-1.11,14.06-3.12a24.26,24.26,0,0,0,11.21-10.76,41.36,41.36,0,0,0,4.48-16.34,45.4,45.4,0,0,0-1.29-16.93,24.27,24.27,0,0,0-3.51-7.23,18,18,0,0,0-5.7-5.11c-2.19-1.28-4.5-2.24-6.6-3.5a17.7,17.7,0,0,1-5.28-4.73c-2.76-3.69-4.25-7.72-5.89-11.19a29.28,29.28,0,0,0-5.54-8.68,13.55,13.55,0,0,0-6.7-3.74,9.86,9.86,0,0,0-4.87.12c-1.08.35-1.58.68-1.6.64a6.24,6.24,0,0,1,1.56-.76,9.82,9.82,0,0,1,5-.24,13.69,13.69,0,0,1,6.9,3.73,29.52,29.52,0,0,1,5.69,8.74c1.67,3.48,3.18,7.48,5.91,11.07a17.1,17.1,0,0,0,5.15,4.57c2.05,1.23,4.36,2.18,6.6,3.47a18.67,18.67,0,0,1,5.89,5.26,24.87,24.87,0,0,1,3.62,7.4,45.93,45.93,0,0,1,1.33,17.17,42.36,42.36,0,0,1-4.57,16.58,24.9,24.9,0,0,1-11.52,11,29.93,29.93,0,0,1-7.26,1.93c-2.39.39-4.72.68-6.92,1.17-4.44.9-8,3.24-11.34,5.21a50.07,50.07,0,0,1-4.85,2.65,16.31,16.31,0,0,1-2.39.92c-.21.05-.41.12-.61.15l-.61.07a6.84,6.84,0,0,1-1.2,0,8.62,8.62,0,0,1-4-1.58,15.35,15.35,0,0,1-2.69-2.42,17.36,17.36,0,0,1-2.7-4.19A8.82,8.82,0,0,1,128,440.17Z" style="fill:#fafafa"></path><path d="M305,363.05l-.24.22-.73.63-2.87,2.4-10.88,9-38.2,31.35-.24.2-.17-.25c-2-2.87-3.83-6-5.66-9.14s-3.65-6.45-5.49-9.8c-3.65-6.72-7.27-13.77-10.84-21.07-3.47-7.09-6.72-14.08-9.69-20.9-1.47-3.42-2.9-6.79-4.14-10.15-.63-1.68-1.21-3.36-1.7-5-.21-.86-.42-1.71-.62-2.55s-.31-1.71-.46-2.56a41.22,41.22,0,0,1,1.63-19.27,43.44,43.44,0,0,1,8.38-14.66,39.29,39.29,0,0,1,10.89-8.7,35.07,35.07,0,0,1,9.89-3.64,33,33,0,0,1,6.62-.65l1.74.1c.39,0,.58.05.58.05h-.59l-1.73,0a35.07,35.07,0,0,0-6.57.76,35.88,35.88,0,0,0-9.77,3.7,39.31,39.31,0,0,0-10.73,8.69,43.07,43.07,0,0,0-8.21,14.53,40.75,40.75,0,0,0-1.56,19c.15.83.3,1.67.46,2.52s.41,1.67.62,2.51c.48,1.67,1.06,3.33,1.68,5,1.25,3.35,2.68,6.71,4.15,10.11,3,6.81,6.22,13.79,9.69,20.87,3.57,7.29,7.18,14.35,10.82,21.06q2.75,5,5.47,9.79c1.82,3.17,3.62,6.26,5.6,9.11l-.41-.06c15.65-12.73,28.94-23.54,38.35-31.18l11-8.86,2.93-2.33.76-.59C304.91,363.1,305,363,305,363.05Z" style="fill:#263238"></path><path d="M350.43,405.7c-2.65-12.84-11.24-15.9-11.24-15.9l-2,15.76-23-9.41-17.94-25.64-37.79,30.9s30.12,31,42.78,32.31,42.53-.08,42.53-.08S353.07,418.54,350.43,405.7Z" style="fill:#ffbe9d"></path><path d="M208.16,370,184.8,397.86l-49.89-7.22L135,390l1.54-15.81c-14.88,2.18-17.2,13.66-17.87,21.66-.74,8.85,10.16,17.14,12.43,18.76l0,.4s50.48,27.31,73.36,19.81c10.62-3.48,36.48-30.63,36.48-30.63V391.09Z" style="fill:#b78876"></path><path d="M201.62,365.91,240.9,395.8l2.12-3.55A489.73,489.73,0,0,1,220.4,346Z" style="fill:#455a64"></path><path d="M151.79,303.35l5.79,10.89c.94,1.77,2.28,3.79,4.28,3.75,1.83,0,3.17-1.95,3.25-3.78a11.12,11.12,0,0,0-1.57-5.19q-3.28-6.63-6.56-13.25l-.37-1.23s-2.11-3.61-4.6-2.37C149.74,293.31,148.83,297.78,151.79,303.35Z" style="fill:#b78876"></path><path d="M147.67,312.32q2.88,5.44,5.78,10.89c.94,1.77,2.16,4.38,4.17,4.34a4.27,4.27,0,0,0,3.71-3.84c.08-1.82-1.1-4.08-1.91-5.72l-6.57-13.25-.37-1.23s-2.1-3.61-4.6-2.36C145.61,302.28,144.71,306.75,147.67,312.32Z" style="fill:#b78876"></path><path d="M143.78,321.54l5.49,10.32c.89,1.68,2.16,3.6,4.06,3.56,1.73,0,3-1.85,3.08-3.58a10.45,10.45,0,0,0-1.49-4.92l-6.22-12.57-.35-1.16s-2-3.42-4.36-2.24C141.83,312,141,316.26,143.78,321.54Z" style="fill:#b78876"></path><path d="M140.24,326.07l4.08,7.68c.67,1.25,1.61,2.68,3,2.65a2.66,2.66,0,0,0,2.29-2.66,7.77,7.77,0,0,0-1.11-3.67l-4.63-9.36-.26-.87s-1.49-2.55-3.25-1.67C138.78,319,138.15,322.13,140.24,326.07Z" style="fill:#b78876"></path><path d="M151,301.25a11.71,11.71,0,0,1,1,1.61c.64,1.15,1.48,2.66,2.48,4.48s2.27,4.19,3.61,6.69a7.72,7.72,0,0,0,2.66,3.31,2.84,2.84,0,0,0,3.73-1.23,5.45,5.45,0,0,0,.23-4.42,30.06,30.06,0,0,0-1.84-4l-3.41-6.8-2.25-4.6a10.38,10.38,0,0,1-.75-1.73,11,11,0,0,1,1,1.62l2.42,4.51,3.53,6.73a30.7,30.7,0,0,1,1.92,4.11,6,6,0,0,1-.29,4.92,3.92,3.92,0,0,1-2,1.65,3.12,3.12,0,0,1-2.54-.2,8.06,8.06,0,0,1-2.88-3.59l-3.49-6.74L151.8,303A11,11,0,0,1,151,301.25Z" style="fill:#a36957"></path><path d="M147,310.86a13.12,13.12,0,0,1,1,1.61l2.48,4.48,3.61,6.69a7.78,7.78,0,0,0,2.65,3.31,2.85,2.85,0,0,0,3.74-1.23,5.45,5.45,0,0,0,.23-4.42,30.82,30.82,0,0,0-1.85-4c-1.27-2.53-2.42-4.82-3.4-6.79l-2.25-4.6a10.38,10.38,0,0,1-.75-1.73,10.6,10.6,0,0,1,1,1.62c.63,1.16,1.45,2.68,2.43,4.51l3.53,6.73a29,29,0,0,1,1.91,4.11A6,6,0,0,1,161,326a3.92,3.92,0,0,1-2,1.65,3.12,3.12,0,0,1-2.54-.2,8.06,8.06,0,0,1-2.88-3.59l-3.49-6.74-2.3-4.58A9.87,9.87,0,0,1,147,310.86Z" style="fill:#a36957"></path><path d="M142.37,318a8.56,8.56,0,0,1,1,1.64c.58,1.08,1.36,2.67,2.29,4.65s2,4.35,3.32,6.9a9,9,0,0,0,2.57,3.48,2.56,2.56,0,0,0,2,.37,3.31,3.31,0,0,0,1.8-1.27,5.23,5.23,0,0,0,.41-4.42,26,26,0,0,0-1.83-4.08c-1.29-2.55-2.45-4.87-3.45-6.86l-2.27-4.65a13,13,0,0,1-.76-1.74,10.3,10.3,0,0,1,1,1.63c.63,1.18,1.45,2.71,2.45,4.56s2.23,4.27,3.56,6.8a25.89,25.89,0,0,1,1.91,4.17,5.8,5.8,0,0,1-.49,4.95,4,4,0,0,1-2.16,1.52,3.16,3.16,0,0,1-2.53-.47,9.43,9.43,0,0,1-2.76-3.72c-1.31-2.59-2.33-5-3.21-7l-2.09-4.73A13.65,13.65,0,0,1,142.37,318Z" style="fill:#a36957"></path></g></svg>
