<svg xmlns="http://www.w3.org/2000/svg" viewBox="0 0 500 500"><g id="freepik--background-complete--inject-19"><polygon points="406.43 88.17 394.29 110.91 385.68 102.78 374.24 134.21 386.06 113.95 395.21 122.66 412.14 93.8 406.43 88.17" style="fill:#e0e0e0"></polygon><polygon points="435.49 141.16 417.18 149.8 415.56 140.64 393.62 155.09 410.56 147.86 412.25 157.64 436.44 147.39 435.49 141.16" style="fill:#e0e0e0"></polygon><polygon points="354.85 75.9 356.06 93.54 348.1 91.95 352.88 114.39 352.38 98.31 360.88 100.05 360.22 77.1 354.85 75.9" style="fill:#ebebeb"></polygon><polygon points="75.07 66.19 80.61 84.81 88.19 80.11 91.9 105.02 86.22 88.29 78.16 93.34 70.01 69.5 75.07 66.19" style="fill:#e0e0e0"></polygon><polygon points="45.91 106.35 57.14 112.85 58.66 107.09 71.91 117.48 61.47 111.96 59.87 118.12 44.96 110.28 45.91 106.35" style="fill:#e0e0e0"></polygon><polygon points="123.12 66.86 121.55 79.74 127.44 78.89 123.07 95.15 124.06 83.38 117.77 84.32 119.13 67.53 123.12 66.86" style="fill:#ebebeb"></polygon><polygon points="44.01 152.19 56.41 148.35 53.21 143.32 69.83 140.66 58.69 144.57 62.13 149.93 46.25 155.55 44.01 152.19" style="fill:#ebebeb"></polygon><path d="M70.74,324.5a10.77,10.77,0,0,0-.65-6.48,10.42,10.42,0,0,0-4-5,8.39,8.39,0,0,0-10.17,1,8.38,8.38,0,0,0-7.22-6.81,10.32,10.32,0,0,0-6.23,1.33,10.85,10.85,0,0,0-4.6,4.62,13.15,13.15,0,0,0-1.17,8.2,18.64,18.64,0,0,0,4,7.83c3.11,3.8,7.27,8.64,7.27,8.64s5.58-1.73,10.39-2.71a18.71,18.71,0,0,0,8.08-3.52A13.21,13.21,0,0,0,70.74,324.5Z" style="fill:#f5f5f5"></path><path d="M446.57,400.74a10.92,10.92,0,0,0-4.32-4.88,10.37,10.37,0,0,0-6.15-1.7,8.43,8.43,0,0,0-7.69,6.74,8.41,8.41,0,0,0-3.16-1.91,8.57,8.57,0,0,0-6.67.59,10.48,10.48,0,0,0-4.29,4.73,10.85,10.85,0,0,0-1,6.43,13.18,13.18,0,0,0,3.84,7.34,18.72,18.72,0,0,0,7.86,4c4.74,1.26,10.94,2.76,10.94,2.76s3.52-4.66,6.85-8.26a18.7,18.7,0,0,0,4.5-7.58A13.24,13.24,0,0,0,446.57,400.74Z" style="fill:#f5f5f5"></path><path d="M387.47,297.83a6.77,6.77,0,0,0-1-4,6.56,6.56,0,0,0-2.93-2.71,5.28,5.28,0,0,0-6.22,1.54,5.26,5.26,0,0,0-5.1-3.56,6.6,6.6,0,0,0-3.74,1.4,6.86,6.86,0,0,0-2.43,3.29,8.3,8.3,0,0,0,0,5.19,11.56,11.56,0,0,0,3.23,4.48c2.28,2.07,5.3,4.69,5.3,4.69s3.3-1.59,6.19-2.63a11.77,11.77,0,0,0,4.68-2.93A8.31,8.31,0,0,0,387.47,297.83Z" style="fill:#f5f5f5"></path><path d="M128.67,275.67a6.77,6.77,0,0,0-1-4,6.43,6.43,0,0,0-2.94-2.71,5.24,5.24,0,0,0-6.21,1.54,5.26,5.26,0,0,0-5.1-3.56,6.53,6.53,0,0,0-3.74,1.4,6.77,6.77,0,0,0-2.43,3.28,8.3,8.3,0,0,0,0,5.19,11.74,11.74,0,0,0,3.22,4.49c2.28,2.06,5.3,4.68,5.3,4.68s3.3-1.58,6.19-2.63a11.66,11.66,0,0,0,4.69-2.93A8.28,8.28,0,0,0,128.67,275.67Z" style="fill:#f5f5f5"></path><polygon points="56.15 411.37 32.38 429.19 38.63 429.19 38.63 451.19 51.86 451.24 62.29 451.19 75.09 451.19 75.09 428.97 81.46 428.9 56.15 411.37" style="fill:#ebebeb"></polygon><rect x="64.76" y="411.97" width="6.08" height="12.87" style="fill:#ebebeb"></rect><rect x="53.73" y="439.72" width="6.63" height="11.94" style="fill:#fff"></rect><path d="M432.93,214.84a7.23,7.23,0,0,0,4.3-6.67,6.78,6.78,0,1,0-13.53-.06,7.19,7.19,0,0,0,4.31,6.73c-10.41,1.57-9.94,12.89-9.94,12.89l24.62.11S443.25,216.4,432.93,214.84Z" style="fill:#f5f5f5"></path><path d="M453,215.05a7.2,7.2,0,0,0,4.29-6.67,6.78,6.78,0,1,0-13.53-.06,7.19,7.19,0,0,0,4.31,6.73c-10.4,1.57-9.93,12.88-9.93,12.88l24.61.12S463.26,216.61,453,215.05Z" style="fill:#f5f5f5"></path><path d="M442.61,191a3.27,3.27,0,0,0,2-3,3.09,3.09,0,1,0-6.16,0,3.28,3.28,0,0,0,2,3.07c-4.74.71-4.53,5.87-4.53,5.87l11.22,0S447.32,191.7,442.61,191Z" style="fill:#f5f5f5"></path></g><g id="freepik--Table--inject-19"><path d="M472.85,474.27l1.29,0,3.84,0v.11c-21.78.12-113.51.21-223.32.21L93.1,474.45l-48.95-.08-13.32-.05-3.46,0-1.18,0,1.18,0,3.46,0,13.32,0,48.95-.08L254.66,474c109.81,0,201.54.09,223.32.21v.11l-3.84,0Z" style="fill:#263238"></path></g><g id="freepik--speech-bubbles--inject-19"><path d="M273.06,49c-17.59-27.5-44.58,5-44.41,5.13.17-.18-28.24-32.63-45.83-5.13-10.58,16.53,8.62,38.88,25.62,54.09a18,18,0,0,1-.68,7.45c-1.06,3.09-3.57,5.86-6.79,6.44a16.66,16.66,0,0,0,17.62-5.35c6.65,5.27,11.46,8.52,11.46,8.52S290.65,76.5,273.06,49Z" style="fill:#FF725E"></path><path d="M231.94,111.7s-.14-.16-.41-.5-.66-.86-1.15-1.56a26.47,26.47,0,0,1-3.3-6.82,26,26,0,0,1-.91-12.24,26.73,26.73,0,0,1,7.68-14.74,18.61,18.61,0,0,1,8.66-5,13.34,13.34,0,0,1,5.42-.1,11.09,11.09,0,0,1,5.12,2.4,9.54,9.54,0,0,1,3,5.06,7.92,7.92,0,0,1-.91,6,10.79,10.79,0,0,1-4.93,4,22.81,22.81,0,0,1-6.43,1.73c-4.45.57-9.41.12-13.58-2.47A17,17,0,0,1,225,82.4a45.31,45.31,0,0,1-3.54-6.69,76.88,76.88,0,0,0-3.39-7,20.3,20.3,0,0,0-5-6,19.94,19.94,0,0,0-15.48-4,17.27,17.27,0,0,0-4,1.18,6.4,6.4,0,0,0-3.16,2.65,3.4,3.4,0,0,0-.34,2,4.4,4.4,0,0,0,.81,1.92,12.59,12.59,0,0,0,3.22,2.89A52.16,52.16,0,0,0,201.77,74a24.13,24.13,0,0,0,8.75,2.34,17.72,17.72,0,0,0,4.59-.31,16.73,16.73,0,0,0,4.34-1.62,33.56,33.56,0,0,0,7.39-5.92A71.81,71.81,0,0,1,234,61.83a25.43,25.43,0,0,1,9-4.3,26.28,26.28,0,0,1,5-.77,16.89,16.89,0,0,1,5.1.36,4.8,4.8,0,0,1,3.67,3.51,3.56,3.56,0,0,1-.6,2.6,5.7,5.7,0,0,1-1.95,1.8,8.52,8.52,0,0,1-9.91-1.38,9.59,9.59,0,0,1-2-10.07,11.08,11.08,0,0,1,8.12-6.67,12.36,12.36,0,0,1,5.48.09,15,15,0,0,1,5,2.28,18.08,18.08,0,0,1,6.5,8.87,23.83,23.83,0,0,1,1.19,11.12,14.9,14.9,0,0,1-1.85,5.39,12.84,12.84,0,0,1-3.95,4.15,16.22,16.22,0,0,1-11.13,2.37,23.32,23.32,0,0,1-10.61-4.63,27.18,27.18,0,0,1-7.74-8.8,18.92,18.92,0,0,1-1.95-5.63,11.88,11.88,0,0,1,.47-6,13.83,13.83,0,0,1,3.25-5.07,29.78,29.78,0,0,1,4.76-3.7q2.52-1.66,5.19-3.09a29.27,29.27,0,0,1,5.61-2.38l.75-.18.78-.11c.52,0,1-.06,1.53-.07a26.18,26.18,0,0,1,3.07.11A16.64,16.64,0,0,1,271,52.29a23.94,23.94,0,0,1,1.12,12.33,32.84,32.84,0,0,1-1.5,6.09,29.69,29.69,0,0,1-1.18,2.92c-.44,1-.86,1.91-1.35,2.84a67.83,67.83,0,0,1-6.66,10.71,74,74,0,0,1-8.61,9.36,100.21,100.21,0,0,1-10,8,41.37,41.37,0,0,1-5.46,3.42,16.31,16.31,0,0,1-6.23,1.86,12.12,12.12,0,0,1-6.36-1.41,36.72,36.72,0,0,1-5.43-3.59L209,97l-5.14-3.87a38.68,38.68,0,0,1-5-4.09,7.17,7.17,0,0,1-1.69-2.82,4.07,4.07,0,0,1,.48-3.28,5.51,5.51,0,0,1,2.56-2.07,9.37,9.37,0,0,1,3.21-.61A65.3,65.3,0,0,1,216,81.49a61.5,61.5,0,0,1,12.09,3.63,33.08,33.08,0,0,1,10.63,6.6,24.27,24.27,0,0,1,2.08,2.35,22.26,22.26,0,0,1,1.83,2.55,8.84,8.84,0,0,1,1.17,2.94,9.12,9.12,0,0,1,0,3.17,8.94,8.94,0,0,1-1,3,14.48,14.48,0,0,1-1.91,2.48,20.64,20.64,0,0,1-4.93,3.74,11.8,11.8,0,0,1-5.95,1.63,5.37,5.37,0,0,1-2.91-1.18,10.56,10.56,0,0,1-2.14-2.24,11.18,11.18,0,0,1-.82-1.32l-.65-1.38c-.43-.91-.86-1.83-1.25-2.76a32.32,32.32,0,0,1-1.85-5.77c-.86-4-.78-8-.86-12a24.89,24.89,0,0,1,.5-6,11.94,11.94,0,0,1,2.58-5.37,11.51,11.51,0,0,1,5-3.17A22.59,22.59,0,0,1,244.69,74a13.29,13.29,0,0,1,6.57,9.18,14.11,14.11,0,0,1-3.11,10.75,19.47,19.47,0,0,1-9.33,6.12,28.05,28.05,0,0,1-11,1.21,27.65,27.65,0,0,1-10.49-3A23.29,23.29,0,0,1,205,81.56a20.64,20.64,0,0,1,.82-10.38A19.47,19.47,0,0,1,221,58.71a14,14,0,0,1,9.65,2,9.3,9.3,0,0,1,3.28,3.7,10.09,10.09,0,0,1,.94,4.8,12.84,12.84,0,0,1-4,8.6,19.92,19.92,0,0,1-8.22,4.51c-1.5.46-3,.67-4.49,1.1s-2.89,1-4.31,1.48a56.75,56.75,0,0,1-8.6,2.71,12.67,12.67,0,0,1-4.47.14,10.09,10.09,0,0,1-4-1.85,25.7,25.7,0,0,1-5.87-6.32,51.3,51.3,0,0,1-4.12-7.35,9.07,9.07,0,0,1-.73-4.1,23.94,23.94,0,0,1,.48-4.07,32.93,32.93,0,0,1,2.52-7.6,11.07,11.07,0,0,1,5.73-5.17,10.77,10.77,0,0,1,7.5-.21,11.58,11.58,0,0,1,5.86,4.36,8.53,8.53,0,0,1,1.51,6.85,6.64,6.64,0,0,1-1.74,3A9.12,9.12,0,0,1,205,67.2a13.43,13.43,0,0,1-6.56,1,16.32,16.32,0,0,1-6.15-1.82,12.57,12.57,0,0,1-4.58-4.12,14.33,14.33,0,0,1-2.15-5.52,11.58,11.58,0,0,1,.36-5.65,16.84,16.84,0,0,1,2.61-4.75c2.18-2.75,5.15-4.85,8.35-5.25a19.56,19.56,0,0,1,8.91.58,31.41,31.41,0,0,1,7.19,3.2,52.72,52.72,0,0,1,9.72,7.61,66.09,66.09,0,0,1,5.08,5.64c1,1.36,1.55,2.08,1.55,2.08l-.41-.52c-.27-.33-.65-.86-1.19-1.52a64.9,64.9,0,0,0-5.11-5.61A52.64,52.64,0,0,0,212.9,45a30.89,30.89,0,0,0-7.16-3.17,19.48,19.48,0,0,0-8.82-.55c-3.15.4-6.07,2.47-8.21,5.19a16.78,16.78,0,0,0-2.57,4.69,11.44,11.44,0,0,0-.33,5.53,14.07,14.07,0,0,0,2.11,5.42,12.4,12.4,0,0,0,4.5,4,15.92,15.92,0,0,0,6,1.78,13,13,0,0,0,6.43-1,7.33,7.33,0,0,0,4.43-4.75,8.31,8.31,0,0,0-1.47-6.6,11.3,11.3,0,0,0-5.71-4.22,10.41,10.41,0,0,0-7.27.2,10.77,10.77,0,0,0-5.56,5,32.35,32.35,0,0,0-2.47,7.52,21.63,21.63,0,0,0-.47,4,8.55,8.55,0,0,0,.7,3.94,49.52,49.52,0,0,0,4.1,7.29A24.93,24.93,0,0,0,197,85.56a9.45,9.45,0,0,0,3.86,1.78,12.16,12.16,0,0,0,4.33-.14,56.65,56.65,0,0,0,8.54-2.7c1.42-.53,2.85-1,4.33-1.49s3-.65,4.48-1.1a19.61,19.61,0,0,0,8.06-4.43,12.37,12.37,0,0,0,3.87-8.32,9.6,9.6,0,0,0-.9-4.6A8.83,8.83,0,0,0,230.38,61,13.59,13.59,0,0,0,221,59.14a19,19,0,0,0-14.79,12.19,20.11,20.11,0,0,0-.79,10.16,22.81,22.81,0,0,0,12.12,16.35,27.38,27.38,0,0,0,10.31,2.93,27.92,27.92,0,0,0,10.8-1.2,19,19,0,0,0,9.09-6,13.63,13.63,0,0,0,3-10.38,12.78,12.78,0,0,0-6.34-8.83,20,20,0,0,0-11-2.44,20.2,20.2,0,0,0-5.67,1,11,11,0,0,0-4.8,3,11.45,11.45,0,0,0-2.47,5.15A24.74,24.74,0,0,0,220,87c.08,4,0,8,.86,11.86a31.19,31.19,0,0,0,1.82,5.67c.39.93.81,1.84,1.24,2.75a14,14,0,0,0,1.42,2.61,9.82,9.82,0,0,0,2,2.13,4.86,4.86,0,0,0,2.63,1.09,11.4,11.4,0,0,0,5.68-1.58,20,20,0,0,0,4.8-3.64,13.18,13.18,0,0,0,1.83-2.39,8.29,8.29,0,0,0,1-2.81,8.53,8.53,0,0,0,.05-3,8.44,8.44,0,0,0-1.11-2.78,23.69,23.69,0,0,0-1.79-2.49,23.44,23.44,0,0,0-2-2.3,32.7,32.7,0,0,0-10.47-6.5,61.83,61.83,0,0,0-12-3.59,65.08,65.08,0,0,0-12.54-1.21,9.1,9.1,0,0,0-3,.57A5.09,5.09,0,0,0,198,83.22a3.61,3.61,0,0,0-.41,2.87,6.89,6.89,0,0,0,1.57,2.61,39.67,39.67,0,0,0,4.93,4l5.15,3.87,10.33,7.78a36.86,36.86,0,0,0,5.36,3.55,11.58,11.58,0,0,0,6.09,1.35,15.68,15.68,0,0,0,6-1.81,42,42,0,0,0,5.4-3.37,101,101,0,0,0,10-7.94A73.49,73.49,0,0,0,261,86.87a67.33,67.33,0,0,0,6.62-10.63c.48-.93.91-1.88,1.34-2.82s.83-1.9,1.17-2.88a32.74,32.74,0,0,0,1.47-6,23.32,23.32,0,0,0-1.09-12.07,16.15,16.15,0,0,0-13.75-10.32,27.34,27.34,0,0,0-3-.1,10.69,10.69,0,0,0-2.95.34,29.48,29.48,0,0,0-5.5,2.33c-1.77.94-3.49,2-5.15,3.07a29.25,29.25,0,0,0-4.68,3.63,13.33,13.33,0,0,0-3.14,4.89,11.46,11.46,0,0,0-.45,5.72,18.33,18.33,0,0,0,1.9,5.47,26.65,26.65,0,0,0,7.6,8.65,22.9,22.9,0,0,0,10.38,4.54,15.68,15.68,0,0,0,10.79-2.3,12.31,12.31,0,0,0,3.81-4,14.33,14.33,0,0,0,1.78-5.21A23.14,23.14,0,0,0,267,58.31a17.51,17.51,0,0,0-6.32-8.64,14.48,14.48,0,0,0-4.86-2.22,12,12,0,0,0-5.27-.09,10.62,10.62,0,0,0-7.79,6.38,9.16,9.16,0,0,0,1.86,9.59A8.07,8.07,0,0,0,254,64.64c1.42-.79,2.64-2.32,2.34-3.93a3.67,3.67,0,0,0-1.2-2,5.24,5.24,0,0,0-2.15-1.13,16.45,16.45,0,0,0-5-.34,25.33,25.33,0,0,0-4.91.75,24.91,24.91,0,0,0-8.8,4.22,70.73,70.73,0,0,0-7.14,6.57,34.15,34.15,0,0,1-7.49,6,16.73,16.73,0,0,1-4.45,1.66,17.7,17.7,0,0,1-4.7.31,24.65,24.65,0,0,1-8.89-2.38,53,53,0,0,1-7.76-4.59,12.8,12.8,0,0,1-3.32-3,4.85,4.85,0,0,1-.88-2.09,3.82,3.82,0,0,1,.39-2.23,6.73,6.73,0,0,1,3.33-2.82,17.42,17.42,0,0,1,4.15-1.2,19.91,19.91,0,0,1,20.88,10.19,77.58,77.58,0,0,1,3.4,7,44.57,44.57,0,0,0,3.51,6.64,17,17,0,0,0,5.08,5.11c4.08,2.54,9,3,13.38,2.44a22.46,22.46,0,0,0,6.35-1.69,10.54,10.54,0,0,0,4.82-3.94,7.68,7.68,0,0,0,.89-5.83,9.27,9.27,0,0,0-2.93-4.93,12,12,0,0,0-10.33-2.27A18.33,18.33,0,0,0,234,76a26.61,26.61,0,0,0-7.68,14.63,26,26,0,0,0,.86,12.17,26.82,26.82,0,0,0,3.24,6.83c.48.71.86,1.23,1.13,1.57S231.94,111.7,231.94,111.7Z" style="fill:#263238"></path><path d="M323.78,52.48C307,27.27,281.2,57.85,281.36,58c0,0-.06-.1-.2-.27,4.24,14.11-7.72,31.4-20.26,44.82a191.54,191.54,0,0,0,20.26,16.71s4.41-3.09,10.49-8.09a15.44,15.44,0,0,0,16.43,4.66c-3-.48-5.37-3-6.41-5.85a16.91,16.91,0,0,1-.75-6.9C316.44,88.69,333.86,67.63,323.78,52.48Z" style="fill:#FF725E"></path><path d="M266.52,99.41l.32.23c.22.17.51.41.9.7a17.27,17.27,0,0,0,3.8,2.16,15.71,15.71,0,0,0,6.83,1.06,53.82,53.82,0,0,0,9.2-1.41,21,21,0,0,0,9.79-5.42,14.72,14.72,0,0,0,3.32-5.31,12.68,12.68,0,0,0,.62-6.6c-.81-4.57-4.76-8.47-9.59-9.95a10.31,10.31,0,0,0-3.75-.5,10.68,10.68,0,0,0-3.74.94A10.53,10.53,0,0,0,281,77.6a20.61,20.61,0,0,0-2.37,3.29l0,0a6.94,6.94,0,0,0,1.18,7,8.64,8.64,0,0,0,3,2.38,16.5,16.5,0,0,0,3.77,1.16,24.16,24.16,0,0,0,9.4-.2c3-.65,6-1.77,8.11-3.91a7.87,7.87,0,0,0,2.09-3.79,7.7,7.7,0,0,0-.24-4.23,9.52,9.52,0,0,0-5.69-5.78,12.75,12.75,0,0,0-7.88-.29,17.75,17.75,0,0,0-6.62,3.64,26.34,26.34,0,0,0-8.89,22.44,27.13,27.13,0,0,0,2.22,8.25,28.14,28.14,0,0,0,2.71,4.69c.36.51.65.88.85,1.13l.29.39a14.33,14.33,0,0,1-1.22-1.45,26.35,26.35,0,0,1-2.81-4.68,26.79,26.79,0,0,1-2.33-8.3A26.11,26.11,0,0,1,277.88,88a26.49,26.49,0,0,1,7.65-11.47,18.07,18.07,0,0,1,6.77-3.75,13.19,13.19,0,0,1,8.18.28,10,10,0,0,1,6,6.07,8.19,8.19,0,0,1,.26,4.5,8.39,8.39,0,0,1-2.21,4,16.42,16.42,0,0,1-8.38,4.06,24.58,24.58,0,0,1-9.6.2,16.76,16.76,0,0,1-3.9-1.2,9.22,9.22,0,0,1-3.18-2.52,7.47,7.47,0,0,1-1.24-7.55v0a21.88,21.88,0,0,1,2.43-3.36A10.89,10.89,0,0,1,284,74.86a11.05,11.05,0,0,1,3.92-1,10.79,10.79,0,0,1,3.93.54,15.57,15.57,0,0,1,6.49,3.94,12.38,12.38,0,0,1,3.4,6.39,13.27,13.27,0,0,1-.66,6.82A15.19,15.19,0,0,1,297.64,97a21.21,21.21,0,0,1-10,5.47c-1.7.42-3.34.66-4.89.91a37.38,37.38,0,0,1-4.39.43,15.79,15.79,0,0,1-6.91-1.15,17.09,17.09,0,0,1-3.79-2.25l-.87-.74A2.1,2.1,0,0,1,266.52,99.41Z" style="fill:#263238"></path><path d="M305.32,67.57l-.54.36a7.47,7.47,0,0,1-1.78.69,7.93,7.93,0,0,1-3.09.1,8.24,8.24,0,0,1-3.86-1.7,8.12,8.12,0,0,1-2.75-4.49,9.69,9.69,0,0,1,.63-6.23,10.37,10.37,0,0,1,5.19-5,11.74,11.74,0,0,1,8-.57,15.09,15.09,0,0,1,7.44,4.86,20.26,20.26,0,0,1,4.11,8.75,19.78,19.78,0,0,1-.29,10.34,12.31,12.31,0,0,1-2.81,4.69,13.54,13.54,0,0,1-4.67,3.1,15.63,15.63,0,0,1-5.64,1.14,18.14,18.14,0,0,1-5.82-.9,26.37,26.37,0,0,1-10.19-6.4,21.06,21.06,0,0,1-6.14-10.8,11.4,11.4,0,0,1,.57-6.4,14.17,14.17,0,0,1,3.82-5.28A44,44,0,0,1,292.78,50a51.9,51.9,0,0,1,5.58-3.13,21,21,0,0,1,3-1.16l.78-.2.8-.12c.53,0,1-.09,1.57-.1a26.84,26.84,0,0,1,6.21.44A16.93,16.93,0,0,1,316.4,48a14.6,14.6,0,0,1,4.32,4.18,19.29,19.29,0,0,1,3.07,11.08,31.51,31.51,0,0,1-2,10.81,57.87,57.87,0,0,1-4.62,9.29,66.7,66.7,0,0,1-11.93,14.23,121.48,121.48,0,0,1-12,9.56,27.79,27.79,0,0,1-5.48,3.1,13,13,0,0,1-5.19,1,12.44,12.44,0,0,1-6.87-2.31c-1.39-.94-2.06-1.5-2.06-1.5s.19.11.54.36.87.61,1.57,1.06a12.61,12.61,0,0,0,6.82,2.19,12.9,12.9,0,0,0,5.09-1.07,28.59,28.59,0,0,0,5.42-3.11A122.11,122.11,0,0,0,305,97.31a67,67,0,0,0,11.81-14.18,58.6,58.6,0,0,0,4.56-9.22,31.23,31.23,0,0,0,1.93-10.66,19,19,0,0,0-3-10.8,14.1,14.1,0,0,0-4.17-4,16.58,16.58,0,0,0-5.55-2.15,25.73,25.73,0,0,0-6.09-.42c-.51,0-1,.06-1.54.09l-.75.11-.74.19a21.4,21.4,0,0,0-2.89,1.14,51.79,51.79,0,0,0-5.52,3.1,43.72,43.72,0,0,0-5.18,3.78,13.66,13.66,0,0,0-3.69,5.08,10.85,10.85,0,0,0-.54,6.12,20.58,20.58,0,0,0,6,10.53,25.89,25.89,0,0,0,10,6.28,17.42,17.42,0,0,0,5.65.89,15.11,15.11,0,0,0,5.47-1.09,13.12,13.12,0,0,0,4.52-3A11.82,11.82,0,0,0,318,74.56a19.39,19.39,0,0,0,.3-10.1,19.78,19.78,0,0,0-4-8.58,14.78,14.78,0,0,0-7.23-4.77,11.34,11.34,0,0,0-7.8.53,10.07,10.07,0,0,0-5.06,4.78,9.49,9.49,0,0,0-.65,6,7.93,7.93,0,0,0,2.64,4.39,8.09,8.09,0,0,0,6.8,1.65A7.88,7.88,0,0,0,305.32,67.57Z" style="fill:#263238"></path><path d="M279.33,87.77s-.28,0-.79,0a5.68,5.68,0,0,0-2.06.83,13,13,0,0,0-2.73,2.27,10.38,10.38,0,0,0-2.34,4,10.21,10.21,0,0,0,0,5.59,40.29,40.29,0,0,0,2.15,6.21c.47,1.06,1,2.13,1.55,3.22A15.29,15.29,0,0,0,277,113.1a5.66,5.66,0,0,0,2.95,2.11,6.93,6.93,0,0,0,3.74-.56,19.48,19.48,0,0,0,6.29-4.42c1.71-1.81,3.22-3.82,3.59-6.1a9.53,9.53,0,0,0,.2-3.3A7,7,0,0,0,292.55,98a43.64,43.64,0,0,0-3.68-4.39,21.29,21.29,0,0,0-6.65-4.88,21.72,21.72,0,0,0-2.89-1,9.62,9.62,0,0,1,3,.77,20.89,20.89,0,0,1,6.83,4.81,40.14,40.14,0,0,1,3.77,4.41,7.25,7.25,0,0,1,1.33,3,9.68,9.68,0,0,1-.18,3.47,9.47,9.47,0,0,1-1.34,3.39,20,20,0,0,1-2.35,3,19.7,19.7,0,0,1-6.47,4.55,7.27,7.27,0,0,1-4,.58,6.06,6.06,0,0,1-3.24-2.29,16.48,16.48,0,0,1-1.92-3.26c-.53-1.1-1.06-2.17-1.54-3.24a40.45,40.45,0,0,1-2.13-6.31,12.69,12.69,0,0,1-.39-3,9.64,9.64,0,0,1,.43-2.79,10.58,10.58,0,0,1,2.48-4.1,13.32,13.32,0,0,1,2.83-2.25,5.38,5.38,0,0,1,2.16-.75A2.07,2.07,0,0,1,279.33,87.77Z" style="fill:#263238"></path></g><g id="freepik--character-2--inject-19"><path d="M467.23,252.32l6.25-9.48s0-2.81-5.82-1.88-11.85,12.58-11.85,12.58l-7.18,5.32,6.65-8.9,5.89-11.31a5.73,5.73,0,0,0-1-.41,7.29,7.29,0,0,0-8.42,3.26l-3.82,6.32-8.76,7.77c.54-.48,7.25-7.87-.11-8.06l-14.16,6a135.07,135.07,0,0,0-14.29,7.74c-7.89,4.89-8.08,15.22-8.08,15.22l16.53,9.58c18.74-7.21,29-13.07,29-13.07l5.91-5.9,9.18-2.68,16.75-12.73C476.93,247.19,467.23,252.32,467.23,252.32Z" style="fill:#ffbf9d"></path><path d="M451.62,268.93a27.49,27.49,0,0,1,2.7-1.93,44.41,44.41,0,0,0,6.1-5.1,33.83,33.83,0,0,0,4.8-6.3c1-1.76,1.58-2.91,1.66-2.87a3.56,3.56,0,0,1-.29.84,24.22,24.22,0,0,1-1,2.21,29.17,29.17,0,0,1-4.75,6.49,35.84,35.84,0,0,1-6.27,5c-.87.55-1.58,1-2.09,1.25A3.09,3.09,0,0,1,451.62,268.93Z" style="fill:#ff9a6c"></path><polygon points="402.53 276.5 386.19 334.21 412.41 358 421.19 283.84 402.53 276.5" style="fill:#ffbf9d"></polygon><path d="M443.66,262.76a8.76,8.76,0,0,1,1.56-1.62,51.88,51.88,0,0,1,4.24-3.37c1.71-1.24,3.29-2.3,4.44-3.07a10.55,10.55,0,0,1,1.91-1.16,50.42,50.42,0,0,1-6.05,4.65c-1.7,1.23-3.22,2.38-4.3,3.23A10.34,10.34,0,0,1,443.66,262.76Z" style="fill:#ff9a6c"></path><path d="M437.09,255.64a3.41,3.41,0,0,1-.81.56,16.23,16.23,0,0,1-2.43,1.15,79.83,79.83,0,0,1-8.47,2.43,21.79,21.79,0,0,0-7.84,3.65A19.6,19.6,0,0,0,415,266a3.07,3.07,0,0,1,.47-.87,10.25,10.25,0,0,1,1.8-2,20.35,20.35,0,0,1,7.94-3.86c3.34-.89,6.38-1.51,8.49-2.27S437,255.56,437.09,255.64Z" style="fill:#ff9a6c"></path><path d="M433.73,270.59a12.38,12.38,0,0,0,3.41-1.55,4.29,4.29,0,0,0,1.88-3.11,4.73,4.73,0,0,0-.93-3c-2.84-3.63-4.74-6.83-4.08-8.94.7-2.79,2.76-3.61,4.59-2.34s4,5.4,5.09,7.33c1.92,3.38,3.92,7.16,3.09,11" style="fill:#ffbf9d"></path><path d="M446.78,269.92c-.06,0,.11-.67.08-1.87a13,13,0,0,0-1.22-4.87c-.84-2-2.2-4.17-3.6-6.65a27,27,0,0,0-2.5-3.66,4.64,4.64,0,0,0-1.74-1.38,2.22,2.22,0,0,0-2.09.19,3.66,3.66,0,0,0-1.29,1.83,3.94,3.94,0,0,0-.2,2.19,12.69,12.69,0,0,0,1.83,4c.76,1.2,1.57,2.27,2.34,3.3a4.74,4.74,0,0,1,.74,3.53,4.49,4.49,0,0,1-1.65,2.47,8.12,8.12,0,0,1-2,1.08,12.46,12.46,0,0,1-1.33.44,1.53,1.53,0,0,1-.47.11s.62-.26,1.72-.74a7.89,7.89,0,0,0,1.84-1.12,4.23,4.23,0,0,0,1.48-2.32,4.42,4.42,0,0,0-.73-3.2c-.77-1-1.61-2.08-2.39-3.29a13,13,0,0,1-1.93-4.12,4.65,4.65,0,0,1-.07-1.24,5.73,5.73,0,0,1,.28-1.22,4.14,4.14,0,0,1,1.49-2.1A2.74,2.74,0,0,1,438,251a5.19,5.19,0,0,1,1.94,1.53,26.76,26.76,0,0,1,2.52,3.75A67,67,0,0,1,446,263a12.62,12.62,0,0,1,1.09,5,6.91,6.91,0,0,1-.16,1.4A1.78,1.78,0,0,1,446.78,269.92Z" style="fill:#ff9a6c"></path><path d="M387.39,322.27l-5.47,21.17L337.2,292.79l-13-5.76,11.25,75.12,43,35.36s12.73,19,26.21-4.57C416.29,372.58,421.19,348,421.19,348Z" style="fill:#FF725E"></path><path d="M368.9,174.41a36.39,36.39,0,0,1,6.82,33c-1.6,5.44-4.47,11.44-1.76,16.44s9.71,6.3,12.21,11.34c2.95,5.92-2,12.75-1.92,19.37A13.11,13.11,0,0,0,395.86,267a51.14,51.14,0,0,1-27.08,5.5l-5-10.38c2,3.67.22,8.5-3,11.14s-7.52,3.55-11.67,4a64.9,64.9,0,0,1-53.71-20.84Z" style="fill:#263238"></path><path d="M254.37,201.26c2.29-3.95,5.45-7.4,7.32-11.57,4-9,1.66-20.5,8-28,4.52-5.33,12.05-6.81,19-7.43s14.33-.85,20.22-4.61c4.32-2.76,7.38-7.17,11.69-9.94,6.14-3.95,14-4.07,21.21-3,7.42,1.1,14.84,3.41,20.74,8s10.08,11.86,9.72,19.35c-.18,3.65-1.4,7.26-1,10.89.44,4,2.75,7.53,3.82,11.41A19.23,19.23,0,0,1,365.62,208l-64.05,54.26c-11.4,1.75-36-8.5-42.47-18S248.59,211.24,254.37,201.26Z" style="fill:#263238"></path><path d="M277.54,287.07l9.32-109.52a8.91,8.91,0,0,1,9.09-7.9l48.42-5.6c15.21.41,22.72,20.21,21.67,35.39-1.18,16.86-3.27,37.41-6.92,49.62-7.32,24.57-27,25.2-27,25.2s-.49,3.65-1.81,12.76l-2.95,17.75" style="fill:#ffbf9d"></path><path d="M357.71,222.18a3.25,3.25,0,0,1-3.54,2.84,3.11,3.11,0,0,1-2.93-3.35,3.25,3.25,0,0,1,3.53-2.83A3.11,3.11,0,0,1,357.71,222.18Z" style="fill:#263238"></path><path d="M326.17,218a3.24,3.24,0,0,1-3.54,2.83,3.11,3.11,0,0,1-2.93-3.34,3.24,3.24,0,0,1,3.53-2.83A3.1,3.1,0,0,1,326.17,218Z" style="fill:#263238"></path><path d="M361.43,211.26c-.47.5-3-2-6.82-2.23s-6.71,1.78-7.09,1.21c-.19-.25.31-1.19,1.58-2.14a8.73,8.73,0,0,1,5.71-1.63,8.59,8.59,0,0,1,5.39,2.44C361.31,210,361.66,211,361.43,211.26Z" style="fill:#263238"></path><path d="M327.72,207c-.55.45-3-2.27-7-3s-7.29,1-7.64.38c-.17-.27.44-1.13,1.89-1.91a9.82,9.82,0,0,1,6.22-.94,9.57,9.57,0,0,1,5.47,3C327.72,205.76,328,206.77,327.72,207Z" style="fill:#263238"></path><path d="M335.2,233c0-.2,2.22-.28,5.76-.27.9,0,1.76,0,2-.62a4.58,4.58,0,0,0-.24-2.7q-.82-3.37-1.72-7.08c-2.36-10.07-3.93-18.3-3.53-18.39s2.65,8,5,18.06c.56,2.49,1.1,4.85,1.61,7.11.2,1.05.62,2.27,0,3.53a2.21,2.21,0,0,1-1.62,1.1,6,6,0,0,1-1.53,0C337.37,233.43,335.19,233.16,335.2,233Z" style="fill:#263238"></path><path d="M332.14,274.26a64.38,64.38,0,0,1-32.41-13.44s6.1,18.74,31.53,19.73Z" style="fill:#ff9a6c"></path><path d="M313.33,192.72c.38-.93,3.85-.32,8-.63s7.48-1.27,8-.4c.22.42-.39,1.29-1.77,2.14a13.87,13.87,0,0,1-12.15.79C313.88,194,313.16,193.17,313.33,192.72Z" style="fill:#263238"></path><path d="M349.72,192c.93-.51,3.23,1.21,6.33,2.37s5.92,1.58,6.25,2.58c.13.47-.56,1.07-2,1.36a10.4,10.4,0,0,1-5.61-.65,10.15,10.15,0,0,1-4.52-3.34C349.38,193.15,349.29,192.25,349.72,192Z" style="fill:#263238"></path><path d="M285.2,171.08c3-3,7.51-4,11.73-4.64a232.66,232.66,0,0,1,55.17-2.23c1.45,4.15-1.67,8.71-5.6,10.67s-8.47,2.1-12.82,2.76-9,2.09-11.46,5.7c-2.66,3.84-2.23,9.15-4.69,13.12-4.23,6.83-15.06,7-19.26,13.88-3.17,5.19-1.19,11.84-1.62,17.91a21.74,21.74,0,0,1-26,19.76q4.92-32.23,9.83-64.45C281.16,179.08,282,174.28,285.2,171.08Z" style="fill:#263238"></path><path d="M231.07,215.63c4-2.3,8.74-4,11-8,3.27-5.84-.19-14.27,4.25-19.28,4.06-4.58,12.71-2.47,16.58-7.2,3-3.69,1.34-7.89,2.93-11.36s7.43-5.57,11.05-4.34l20.07,48.15c-.29,14.67.82,22.74-3.95,30.35-2.62,4.17-5.72,8.11-7.38,12.75S284,267,287.32,270.63c-17.62-2.32-31.94-14.83-45.08-26.79l-13.92-12.65a11.82,11.82,0,0,1-3.59-4.56C223.22,222.28,227.08,217.92,231.07,215.63Z" style="fill:#263238"></path><path d="M242.7,239.5a8.57,8.57,0,0,0,1.78.75A15.81,15.81,0,0,0,250,241a17.12,17.12,0,0,0,8.39-2.45,16.79,16.79,0,0,0,7.1-9.08,17.34,17.34,0,0,0,.85-6.77,27.54,27.54,0,0,0-1.86-7.12,26.53,26.53,0,0,1-1.9-7.39c-.12-2.54.48-5.41,2.49-7.15s5.06-1.67,8-2.19a8.21,8.21,0,0,0,4.28-2,8,8,0,0,0,2.15-4.3c.64-3.18-.1-6.37-.05-9.44a10,10,0,0,1,.91-4.43,6.34,6.34,0,0,1,3.25-3c2.88-1.25,6.13-.86,9.26-.48a19.31,19.31,0,0,0,9.49-.73,17.23,17.23,0,0,0,7.52-5.33,28.67,28.67,0,0,0,4-7.83,39.08,39.08,0,0,1,3.35-7.43,17.57,17.57,0,0,1,5.38-5.28A19.87,19.87,0,0,1,346,150.3a24.11,24.11,0,0,1,5.59,6.5,32.32,32.32,0,0,1,2.88,6.79,2.48,2.48,0,0,0-.07-.49c-.08-.31-.15-.79-.33-1.4a23.08,23.08,0,0,0-2.13-5.1,24.16,24.16,0,0,0-5.57-6.75,20.9,20.9,0,0,0-10.54-4.79,21.13,21.13,0,0,0-13.68,2.88,18.6,18.6,0,0,0-5.7,5.52A40.77,40.77,0,0,0,313,161a27.78,27.78,0,0,1-3.9,7.55,16.32,16.32,0,0,1-7.09,5,18.27,18.27,0,0,1-9,.66c-3.1-.37-6.57-.84-9.8.56a7.32,7.32,0,0,0-3.75,3.46,11.07,11.07,0,0,0-1,4.88c0,3.27.68,6.35.09,9.27a6.91,6.91,0,0,1-1.85,3.76,7.19,7.19,0,0,1-3.77,1.71c-1.41.27-2.88.35-4.35.64a8.34,8.34,0,0,0-4.1,1.8c-2.34,2.07-2.91,5.22-2.77,7.92a26.43,26.43,0,0,0,2,7.63,26.88,26.88,0,0,1,1.86,6.9,16.47,16.47,0,0,1-.74,6.47,16.27,16.27,0,0,1-6.72,8.82,16.83,16.83,0,0,1-8.1,2.54A19.13,19.13,0,0,1,242.7,239.5Z" style="fill:#455a64"></path><path d="M225.92,204.73a3.66,3.66,0,0,0-.87,1.3,6.36,6.36,0,0,0-.17,4.45,6.69,6.69,0,0,0,1.73,2.81,7.07,7.07,0,0,0,3.49,1.77,8.86,8.86,0,0,0,8.61-3.21,12,12,0,0,0,2.36-5,16.52,16.52,0,0,0,0-6c-.58-4-2.3-8.22-1.42-12.62a8.18,8.18,0,0,1,3.27-5.53c1.88-1.24,4.35-1.11,6.72-.63s4.92,1.28,7.67.81a6.7,6.7,0,0,0,3.64-1.94,9.47,9.47,0,0,0,2.07-3.56c.9-2.63.81-5.32,1-7.84a17.26,17.26,0,0,1,1.92-7.05,18.42,18.42,0,0,1,10.31-8.87c4.24-1.47,8.64-.79,12.6-.2s7.85,1.19,11.34.6a23.49,23.49,0,0,0,8.8-3.24,23,23,0,0,0,5.41-4.56c2.55-3,3.5-4,3.5-4s-1.2.94-3.8,3.77a23.52,23.52,0,0,1-5.41,4.34,23.22,23.22,0,0,1-8.61,3c-3.36.52-7.1-.06-11.1-.72s-8.5-1.39-13,.13A19.39,19.39,0,0,0,265,162a18.36,18.36,0,0,0-2,7.45c-.21,2.57-.14,5.19-1,7.58s-2.53,4.45-4.93,4.82-4.84-.35-7.29-.8-5.23-.67-7.44.8a9.13,9.13,0,0,0-3.68,6.19,17.53,17.53,0,0,0,.22,6.79c.42,2.14,1,4.16,1.3,6.14a16,16,0,0,1,.07,5.69,11.11,11.11,0,0,1-2.15,4.72,8.24,8.24,0,0,1-7.93,3.1,6.63,6.63,0,0,1-3.27-1.56,6.42,6.42,0,0,1-1.68-2.57,6.33,6.33,0,0,1,0-4.25C225.6,205.17,226,204.77,225.92,204.73Z" style="fill:#263238"></path><path d="M406.38,253.84a7.06,7.06,0,0,1-1,4.52,6.14,6.14,0,0,1-4.38,2.89,6.42,6.42,0,0,1-6-3.09,5.88,5.88,0,0,1-.72-4,12.09,12.09,0,0,1,1.59-4.24c1.55-2.74,4.1-5.54,4.62-9.42a14.29,14.29,0,0,0-3.14-11.14,17,17,0,0,0-4.8-4,25,25,0,0,0-6-2.2,33.1,33.1,0,0,1-5.85-1.89,8.13,8.13,0,0,1-4.05-3.89,10,10,0,0,1-.6-5.49,20.17,20.17,0,0,1,1.58-5.25c1.45-3.31,3.2-6.46,3.71-9.81a15.77,15.77,0,0,0-1.31-9.07,20.22,20.22,0,0,0-4.64-6,39,39,0,0,1-3.85-4.08,12,12,0,0,1-2.07-4.25s0,.11,0,.32a5.27,5.27,0,0,0,.17.92,9.56,9.56,0,0,0,1.56,3.25,35.71,35.71,0,0,0,3.77,4.24,20.06,20.06,0,0,1,4.38,5.87,15,15,0,0,1,1.13,8.63c-.51,3.16-2.23,6.2-3.73,9.57a20.9,20.9,0,0,0-1.69,5.49,11,11,0,0,0,.66,6.05,9.11,9.11,0,0,0,4.52,4.39,33.56,33.56,0,0,0,6,2,23.86,23.86,0,0,1,5.75,2.1,15.77,15.77,0,0,1,4.52,3.73,13.39,13.39,0,0,1,3,10.36c-.43,3.56-2.82,6.25-4.42,9.14a12.78,12.78,0,0,0-1.64,4.56,6.67,6.67,0,0,0,.89,4.43,7,7,0,0,0,6.68,3.28,6.47,6.47,0,0,0,4.65-3.26,6.55,6.55,0,0,0,.92-3.49A3.64,3.64,0,0,0,406.38,253.84Z" style="fill:#263238"></path><path d="M335.2,195.42c0-.07.35-.18.84-.49a4,4,0,0,0,1.49-1.6,4,4,0,0,0,.34-2.16c-.07-.58-.2-.93-.13-1s.32.28.49.9a3.53,3.53,0,0,1-.23,2.46,3.6,3.6,0,0,1-1.79,1.7C335.62,195.51,335.21,195.49,335.2,195.42Z" style="fill:#ff9a6c"></path><path d="M343.89,197.09s-.48-.17-.93-.81a3.69,3.69,0,0,1,1.19-5.32c.68-.38,1.18-.39,1.19-.33s-.42.22-1,.64a3.68,3.68,0,0,0-1.08,4.82C343.6,196.71,343.94,197,343.89,197.09Z" style="fill:#ff9a6c"></path><path d="M330.61,240.1a2.5,2.5,0,0,0-.76-.61,17.84,17.84,0,0,0-5.92-1.8,3.68,3.68,0,0,0-3,.42,3.13,3.13,0,0,0-.68,3.21,6.54,6.54,0,0,0,3.28,4.22,5.58,5.58,0,0,0,5.28-.08,5,5,0,0,0,2.35-3.34,2.42,2.42,0,0,0-.58-2Z" style="fill:#ff9a6c"></path><path d="M328.65,245.23c0,.06-.26.29-.87.52a6.26,6.26,0,0,1-2.73.34,7,7,0,0,1-3.82-1.56,6,6,0,0,1-1.57-1.95,4.2,4.2,0,0,1-.41-2.75,3.52,3.52,0,0,1,1.62-2.34,4.24,4.24,0,0,1,2.56-.38,18.36,18.36,0,0,1,3.91,1c2.13.82,3.27,1.68,3.2,1.79a36,36,0,0,1-3.44-1.09,21.44,21.44,0,0,0-3.76-.73,3.3,3.3,0,0,0-2,.31,2.49,2.49,0,0,0-1.11,1.66,4.22,4.22,0,0,0,1.58,3.77,6.81,6.81,0,0,0,3.3,1.55A12.94,12.94,0,0,0,328.65,245.23Z" style="fill:#263238"></path><path d="M364.24,338.59a74.85,74.85,0,0,1,3.63-7.72c2.42-4.05,3.7-4.11,4.79-4.11,1.82,0,3.3,1.74,2.27,5.56-.14.52-1.43,4.13-1.43,4.13s2.27-5.5,6-4.67,1.68,5.51,1.68,5.51,2.51-.6,3,5.63-1.43,23.58-1.43,23.58l3.32,14H363.75l-1.47-37Z" style="fill:#ffbf9d"></path><path d="M375.48,358.66a2.66,2.66,0,0,1-.12-.88,24.17,24.17,0,0,1-.05-2.42,33.08,33.08,0,0,1,4.28-15.28,21.81,21.81,0,0,1,1.3-2c.33-.47.53-.71.56-.69s-.61,1.11-1.53,2.91a38.85,38.85,0,0,0-2.9,7.34,39.66,39.66,0,0,0-1.34,7.77C375.54,357.39,375.57,358.66,375.48,358.66Z" style="fill:#ff9a6c"></path><path d="M367.33,348.87a11.46,11.46,0,0,1,.87-2.45c.61-1.48,1.53-3.49,2.68-5.65s2.31-4,3.2-5.39a11.58,11.58,0,0,1,1.55-2.08,14.3,14.3,0,0,1-1.24,2.28c-.8,1.37-1.9,3.28-3.05,5.43s-2.11,4.13-2.81,5.56A13.62,13.62,0,0,1,367.33,348.87Z" style="fill:#ff9a6c"></path><path d="M393.19,474c0-30.83-12.07-59-12.07-59l-17.7-67.58S331.84,290.55,330,290.55s-52.12-11.68-52.12-11.68-11.25,6.09-17.57,15.18c-10.93,15.7-6.88,40-3,65.76s21.95,73.06,21.95,73.06l6.35,19.85L279.36,474Z" style="fill:#FF725E"></path><path d="M274.3,350.27s18.14,34.22,47.21,55.74,64.35,25.51,64.35,25.51l-4.74-22-35.85-40.88Z" style="opacity:0.30000000000000004"></path><path d="M255.58,305.85C258.31,291,273.41,282,288,285.67c7.84,2,20.56,10.48,27.58,17.82,31.88,33.31,64.46,67.77,72.69,78.14s8.12,28.29-1.54,36.39-33.18.34-53.29-11.19-44.89-42.73-51.12-47.54c-1.48-1.14-23.09-24-26.73-43.81A26.41,26.41,0,0,1,255.58,305.85Z" style="fill:#FF725E"></path><path d="M255.58,305.85l0,.27-.11.78a26.5,26.5,0,0,0-.23,3.1,27.09,27.09,0,0,0,.4,5,49.92,49.92,0,0,0,1.8,6.65A79.42,79.42,0,0,0,266,338.5a139,139,0,0,0,15.48,19.66,142,142,0,0,1,10.26,10.37c3.45,3.72,7,7.59,10.83,11.53s7.79,7.92,12.06,11.88a131.46,131.46,0,0,0,13.85,11.36,115.56,115.56,0,0,0,16.41,9.19,109.34,109.34,0,0,0,18.39,6.83,53.9,53.9,0,0,0,9.91,1.7,23.29,23.29,0,0,0,10-1.21,11.66,11.66,0,0,0,4.23-2.76c.31-.31.63-.59.92-.9l.81-1a14.92,14.92,0,0,0,1.47-2.13,25,25,0,0,0,3.2-9.87,30.18,30.18,0,0,0-4.65-19.88,50.68,50.68,0,0,0-3.17-4c-1.11-1.3-2.22-2.6-3.35-3.86-2.24-2.56-4.5-5.06-6.75-7.54-9-9.89-17.84-19.29-26.27-28.24s-16.49-17.4-24-25.33c-3.77-3.95-7.4-7.8-10.93-11.43a80.13,80.13,0,0,0-11.27-9.18,67.37,67.37,0,0,0-11.51-6.47,25.78,25.78,0,0,0-5.8-1.73,27.4,27.4,0,0,0-5.66-.4,26.63,26.63,0,0,0-9.91,2.3,27.76,27.76,0,0,0-7.19,4.68,25.47,25.47,0,0,0-6.55,9.84,17.78,17.78,0,0,0-.9,3c-.18.68-.28,1-.28,1s.07-.35.22-1a18.23,18.23,0,0,1,.86-3,25.36,25.36,0,0,1,6.51-9.94,27.68,27.68,0,0,1,7.22-4.76,26.79,26.79,0,0,1,15.74-2,24.84,24.84,0,0,1,5.87,1.73,67.9,67.9,0,0,1,11.59,6.46,80.68,80.68,0,0,1,11.35,9.21c3.55,3.64,7.17,7.46,11,11.41L350,339.25c8.44,8.94,17.28,18.34,26.29,28.23q3.39,3.7,6.77,7.54c1.13,1.27,2.24,2.57,3.36,3.87a51.35,51.35,0,0,1,3.2,4.08,30.66,30.66,0,0,1,4.74,20.22A25.32,25.32,0,0,1,391,413.28a15.6,15.6,0,0,1-1.5,2.18l-.83,1c-.3.32-.63.61-.95.92a12.19,12.19,0,0,1-4.4,2.88,23.68,23.68,0,0,1-10.23,1.23,53.86,53.86,0,0,1-10-1.72,108.81,108.81,0,0,1-18.47-6.87,114.81,114.81,0,0,1-16.48-9.25,131.39,131.39,0,0,1-13.89-11.42c-4.26-4-8.26-8-12-11.91s-7.37-7.83-10.81-11.55a142.13,142.13,0,0,0-10.23-10.39,137.42,137.42,0,0,1-15.46-19.76,78.69,78.69,0,0,1-8.5-16.91,50.23,50.23,0,0,1-1.77-6.69,26.87,26.87,0,0,1-.35-5.06,26,26,0,0,1,.28-3.1C255.49,306.2,255.58,305.85,255.58,305.85Z" style="fill:#263238"></path><path d="M337.67,294.05s.13.14.33.45l.86,1.36c.73,1.19,1.76,2.92,3,5.09,2.48,4.33,5.73,10.41,9,17.26s6.1,13.15,8.05,17.74c1,2.3,1.74,4.16,2.26,5.45.24.61.43,1.1.58,1.5a1.89,1.89,0,0,1,.17.54,4.25,4.25,0,0,1-.26-.5c-.18-.38-.4-.87-.68-1.46-.6-1.33-1.41-3.16-2.41-5.38-2-4.55-4.87-10.82-8.18-17.66s-6.5-12.94-8.89-17.31L338.68,296c-.31-.57-.56-1-.77-1.4A3,3,0,0,1,337.67,294.05Z" style="fill:#263238"></path></g><g id="freepik--character-1--inject-19"><path d="M102.23,175.89a11.12,11.12,0,0,1-12.79-18.07,11.57,11.57,0,0,1,1.66-21.91,13.85,13.85,0,0,1,14.79-18.61,15.57,15.57,0,0,1,17.5-7.85,11.08,11.08,0,0,1,16.35,13.48" style="fill:#263238"></path><path d="M129.89,118.62l-2.25,1A47.2,47.2,0,0,0,101.35,178c7.24,21.71,15.53,45.6,20.46,56.8C132,258,156.89,251.64,156.89,251.64l10,28.85,55.84-25.84L184.42,150.94C176.2,125.84,154.75,109.71,129.89,118.62Z" style="fill:#ffbf9d"></path><path d="M156.68,251.69s15.27-5.44,26.74-21.95c0,0-.19,20.43-24.35,28.24Z" style="fill:#ff9a6c"></path><path d="M116.91,199.55a3.62,3.62,0,0,0,4.64,2,3.47,3.47,0,0,0,2.15-4.47,3.62,3.62,0,0,0-4.64-2A3.46,3.46,0,0,0,116.91,199.55Z" style="fill:#263238"></path><path d="M111.22,187.23c.6.26,2.32-2.68,5.91-4.19s7-.85,7.18-1.45c.1-.28-.65-.88-2.15-1.23a9.91,9.91,0,0,0-6,.62,9.58,9.58,0,0,0-4.48,3.89C111,186.18,110.93,187.13,111.22,187.23Z" style="fill:#263238"></path><path d="M150.33,186a3.61,3.61,0,0,0,4.64,2,3.46,3.46,0,0,0,2.16-4.46,3.63,3.63,0,0,0-4.64-2A3.48,3.48,0,0,0,150.33,186Z" style="fill:#263238"></path><path d="M146.72,172.91c.59.25,2.33-2.69,5.91-4.2s7-.84,7.18-1.45c.1-.27-.65-.88-2.15-1.22a9.91,9.91,0,0,0-6,.62,9.51,9.51,0,0,0-4.48,3.88C146.47,171.85,146.43,172.8,146.72,172.91Z" style="fill:#263238"></path><path d="M145,205c-.07-.21-2.46.35-6.27,1.43-.95.29-1.89.48-2.31-.08s-.54-1.72-.55-3c-.08-2.58-.17-5.28-.26-8.12-.47-11.52-1.22-20.83-1.68-20.81s-.47,9.38,0,20.9q.21,4.24.39,8.11c.1,1.19,0,2.62,1.06,3.79a2.5,2.5,0,0,0,2.07.7,6.53,6.53,0,0,0,1.65-.45C142.84,206.16,145.1,205.22,145,205Z" style="fill:#263238"></path><path d="M155.39,156.93c-.69-.87-3.76.83-7.76,1.75s-7.53.93-7.7,2c-.06.51.82,1.24,2.43,1.73a12.25,12.25,0,0,0,6.3.07,11.84,11.84,0,0,0,5.48-2.94C155.3,158.39,155.71,157.34,155.39,156.93Z" style="fill:#263238"></path><path d="M119.86,169.55c-1.17-.31-3.38,2.19-6.62,4.3s-6.34,3.33-6.48,4.51c0,.56.87,1,2.52,1,.81.28,2.11,0,6.2-2.23a12.26,12.26,0,0,0,4.36-4.88C120.51,170.72,120.4,169.71,119.86,169.55Z" style="fill:#263238"></path><path d="M99,166.32s-.07-17.22,5.52-23.63c6.77-7.75,14.42,0,21.57-5.69s13.61-13.15,24.58-10.4c12,3,9.81,9.63,14.78,19.74,20.13,41,32.84,49.56,26.61,28.88-.69-2.26,4.59-6.54,1.58-16.06-3.89-12.35-9.57-26.94-15.8-34.23-5.25-6.14-11.38-9.32-20.93-11.63-15.08-3.66-30.88,2.85-41.1,8.48S90.28,148.45,99,166.32Z" style="fill:#263238"></path><path d="M190.34,175.22a6.88,6.88,0,0,1,4.24-9c4.52-1.44,10.41-1,13.95,8.08,6.28,16.15-11.24,19.13-11.45,18.67C196.94,192.66,192.91,182,190.34,175.22Z" style="fill:#ffbf9d"></path><path d="M198.24,185.52c0-.08.36.09.92.12a3,3,0,0,0,2.12-.77c1.46-1.29,1.84-4.56.79-7.5a10,10,0,0,0-2.35-3.73,3.47,3.47,0,0,0-3-1.33,1.53,1.53,0,0,0-1.36,1.41c0,.54.19.82.11.88s-.45-.13-.58-.85a1.9,1.9,0,0,1,.24-1.26,2.28,2.28,0,0,1,1.4-1,4.26,4.26,0,0,1,3.91,1.36,10.31,10.31,0,0,1,2.73,4.13c1.16,3.29.68,7-1.4,8.57a3.23,3.23,0,0,1-2.74.57C198.42,185.9,198.19,185.57,198.24,185.52Z" style="fill:#ff9a6c"></path><path d="M176.88,144.47c-1.47,2.3-3,4.69-5.43,6s-5.85,1.1-7.32-1.2c-.66-1-.94-2.43-2-3-1.31-.66-2.78.35-4,1.06-4.43,2.46-12-.35-15.12-4.36a4.51,4.51,0,0,1-5.07,3.52,16.28,16.28,0,0,1-5.29-1.77c-2.09-1-4.66-1.61-6.64-.41-1.11.67-1.91,1.84-3.14,2.24-2.17.7-4.24-1.31-5.44-3.25s-2.48-4.27-4.73-4.64c-2.09-.35-4,1.16-5.77,2.27s-4.48,1.71-5.78,0a4.13,4.13,0,0,1-.52-3.2,11.22,11.22,0,0,1,10.52-9.09A15.21,15.21,0,0,1,135.62,115a15.43,15.43,0,0,1,24.9-4.49,11.19,11.19,0,0,1,18,10c3.57.41,7.23,2.22,8.69,5.49s-.34,7.93-3.9,8.42a6.19,6.19,0,0,1-7.43,9.88" style="fill:#263238"></path><path d="M111.88,133.89a1.47,1.47,0,0,0,.13.29c.11.18.24.47.47.81a11,11,0,0,0,2.46,2.58,12.37,12.37,0,0,0,5.14,2.26,11.53,11.53,0,0,0,7.32-.92l-.42-.24a6.3,6.3,0,0,0,2.2,4.27,17.89,17.89,0,0,0,4.39,2.75,12.8,12.8,0,0,0,2.57,1.07,6,6,0,0,0,2.92-.13,6.33,6.33,0,0,0,4.35-4l-.67.09a13,13,0,0,0,8.59,6.11,9.46,9.46,0,0,0,6-.52A17.09,17.09,0,0,0,162,145h-.5a13.52,13.52,0,0,0,5.86,3.31,7.27,7.27,0,0,0,6.2-.85,9.55,9.55,0,0,0,3.83-9.75l-.29.32a8.91,8.91,0,0,0,5.82-1.52,9.83,9.83,0,0,0,3.1-3.33,8.53,8.53,0,0,0,.95-2.71,4.44,4.44,0,0,0,.05-1,10.37,10.37,0,0,1-1.26,3.56,9.41,9.41,0,0,1-3.07,3.12,8.5,8.5,0,0,1-5.53,1.36l-.37-.05.08.37a9,9,0,0,1-3.68,9.09,6.59,6.59,0,0,1-5.65.71,13.06,13.06,0,0,1-5.53-3.15l-.25-.25-.26.24A16.46,16.46,0,0,1,157,147.6a8.8,8.8,0,0,1-5.52.46,12.31,12.31,0,0,1-8.11-5.75l-.42-.71-.25.79a5.62,5.62,0,0,1-3.84,3.55,5.28,5.28,0,0,1-2.58.14,12.9,12.9,0,0,1-2.41-1,17.55,17.55,0,0,1-4.27-2.62,5.67,5.67,0,0,1-2-3.83l0-.44-.39.2a11.1,11.1,0,0,1-7,1,12.27,12.27,0,0,1-5-2.07A13.53,13.53,0,0,1,111.88,133.89Z" style="fill:#455a64"></path><path d="M155.87,211.78c.09.3-3.08,1.24-6.25,3.65s-5,5.15-5.27,5c-.11-.07.19-.86,1-2a16.78,16.78,0,0,1,8.39-6.28C155,211.72,155.84,211.65,155.87,211.78Z" style="fill:#263238"></path><path d="M124.4,171.34c0-.08.44-.24,1-.74a3.74,3.74,0,0,0,1.24-2.51,3.78,3.78,0,0,0-1-2.61c-.51-.55-1-.75-.93-.83s.54,0,1.18.57a3.66,3.66,0,0,1,1.27,2.9,3.7,3.7,0,0,1-1.53,2.77C125,171.36,124.41,171.4,124.4,171.34Z" style="fill:#ff9a6c"></path><path d="M135.35,167.89a2.18,2.18,0,0,1-1.5.11,4.2,4.2,0,0,1-3.24-5.68c.35-.9.83-1.28.86-1.24s-.28.51-.51,1.35a4.15,4.15,0,0,0,3,5.21C134.77,167.88,135.34,167.8,135.35,167.89Z" style="fill:#ff9a6c"></path><path d="M112.91,206.11s-4.79,3.36-5.62,7.9-3.68,13-4.29,16.76-6.65,16.49-11.24,19.75S62.3,251,62.3,251s-2.91-12.37-1.83-19.14,6.25-20.69,6.25-20.69,3.88-5.56,7.8-4.23,3.1,4.55,3.1,4.55.7-9.16,4.89-8.91,4.34,3.57,4.34,3.57,1-7.78,6-6.83,4.51,6.72,4.51,6.72,1.33-12.93,5.48-11.87,4.2,8.61,4.2,8.61S112.17,200,112.91,206.11Z" style="fill:#ffbf9d"></path><path d="M97.3,205c.1,0,.26,1,1,2.46a3.48,3.48,0,0,0,1.93,1.81,3.84,3.84,0,0,0,3.18-.43,5.66,5.66,0,0,0,2.13-2.57,10.7,10.7,0,0,0,.75-2.71,20,20,0,0,1,.38-2.63,9.68,9.68,0,0,1,0,2.67,10.13,10.13,0,0,1-.68,2.86,6,6,0,0,1-2.3,2.83,4.28,4.28,0,0,1-3.61.43,3.83,3.83,0,0,1-2.11-2.1,8.63,8.63,0,0,1-.55-1.9A1.88,1.88,0,0,1,97.3,205Z" style="fill:#ff9a6c"></path><path d="M86.68,205.18a9.43,9.43,0,0,1-.15,1.64c-.13,1.15-.32,2.65-.53,4.46s-.43,4.13-.49,6.63a13.87,13.87,0,0,0,.27,3.84,4,4,0,0,0,2.44,2.92,3.75,3.75,0,0,0,3.62-1,6.7,6.7,0,0,0,1.52-3.41c.44-2.46.86-4.7,1.27-6.55s.78-3.35,1.06-4.37a10.1,10.1,0,0,1,.49-1.58,10.52,10.52,0,0,1-.29,1.62c-.23,1.13-.53,2.61-.9,4.4s-.74,4.08-1.16,6.57A7,7,0,0,1,92.2,224a4.18,4.18,0,0,1-4.13,1.16,4.5,4.5,0,0,1-2.78-3.28,14,14,0,0,1-.26-4,65.46,65.46,0,0,1,.6-6.66c.26-1.89.52-3.4.7-4.45A10.43,10.43,0,0,1,86.68,205.18Z" style="fill:#ff9a6c"></path><path d="M77.33,209.49a7.78,7.78,0,0,1-.13,1.31c-.1.84-.24,2.06-.33,3.57a46.74,46.74,0,0,0,.75,11.74,7.58,7.58,0,0,0,1.15,3,2.78,2.78,0,0,0,2.51,1.16,4.18,4.18,0,0,0,2.4-1.13,4.89,4.89,0,0,0,1.28-2,12.28,12.28,0,0,0,.62-3.48,6.7,6.7,0,0,1,.12-1.31,6.3,6.3,0,0,1,.08,1.32,11,11,0,0,1-.47,3.59,4.93,4.93,0,0,1-4,3.47,3.27,3.27,0,0,1-3-1.33,7.8,7.8,0,0,1-1.26-3.23,42.24,42.24,0,0,1-.61-11.87,34.27,34.27,0,0,1,.5-3.57A5.37,5.37,0,0,1,77.33,209.49Z" style="fill:#ff9a6c"></path><path d="M69,211.82a14.68,14.68,0,0,1,1.06,2.6c.59,1.63,1.37,3.89,2.2,6.4.43,1.26.77,2.47,1.23,3.49a5.64,5.64,0,0,0,1.75,2.31,3.71,3.71,0,0,0,1.81.71c.47,0,.74,0,.75,0a1.26,1.26,0,0,1-.75.18,3.62,3.62,0,0,1-2-.61,5.62,5.62,0,0,1-2-2.41A31.26,31.26,0,0,1,71.72,221c-.83-2.51-1.56-4.79-2.06-6.45A15.13,15.13,0,0,1,69,211.82Z" style="fill:#ff9a6c"></path><path d="M66.92,220.55a8.82,8.82,0,0,1,2.92.63,8.84,8.84,0,0,1,2.77,1.13,8.56,8.56,0,0,1-2.93-.63A8.58,8.58,0,0,1,66.92,220.55Z" style="fill:#ff9a6c"></path><path d="M77.79,244.87a3.78,3.78,0,0,1,.15-1,18.57,18.57,0,0,1,.75-2.57A26.92,26.92,0,0,1,89.6,227.78a18.66,18.66,0,0,1,2.34-1.28,3.83,3.83,0,0,1,.92-.36c0,.09-1.22.69-3.06,2A29.32,29.32,0,0,0,79,241.46C78.2,243.53,77.88,244.89,77.79,244.87Z" style="fill:#ff9a6c"></path><path d="M90.72,249.05,110,323.39l24.27-14,17,44.57s-36.65,24.87-57,25.73c-25,1-24.44-43.83-27.37-69.05-2.5-21.52-4.19-60.51-4.19-60.51Z" style="fill:#ffbf9d"></path><path d="M106.26,339.15a13.78,13.78,0,0,1,.61-2.44c.41-1.49,1-3.55,1.5-5.85s.92-4.39,1.19-5.91a15.35,15.35,0,0,1,.52-2.46,10.63,10.63,0,0,1-.15,2.52,60.91,60.91,0,0,1-2.71,11.81A10.43,10.43,0,0,1,106.26,339.15Z" style="fill:#ff9a6c"></path><path d="M189.39,262c-2.09.42-14.9-1.31-31.79,16.07-16.62,17.11-43.24,40-43.24,40l50,48.06s47.82-34.07,55.21-57.27S226.31,254.63,189.39,262Z" style="fill:#FF725E"></path><path d="M122.26,335.1a3.48,3.48,0,0,1-.47.61l-1.44,1.67L115,343.45c-2.29,2.57-5,5.6-8,9s-6.47,6.95-9.52,11.17A76.09,76.09,0,0,0,90,376.14,29.65,29.65,0,0,0,87,387.61a22.21,22.21,0,0,0,1.08,7.93c.63,1.8,1.17,2.71,1.12,2.74a4.14,4.14,0,0,1-.4-.66,16.79,16.79,0,0,1-.91-2,21.49,21.49,0,0,1-1.26-8,29.31,29.31,0,0,1,2.88-11.66,73.86,73.86,0,0,1,7.52-12.67,145.09,145.09,0,0,1,9.59-11.18l8.08-8.89c2.29-2.48,4.15-4.51,5.48-6l1.51-1.6A5.85,5.85,0,0,1,122.26,335.1Z" style="fill:#ff9a6c"></path><path d="M108.83,439.79,104.65,474l132,.07-5.79-34.65s14.5-92.21,14.84-112.7.72-43.83-7.88-58.42c-11.83-20-20.26-28.27-20.26-28.27l-55.35,31.67s-43.85,93.92-43.84,97.37S108.83,439.79,108.83,439.79Z" style="fill:#FF725E"></path><path d="M115.48,409.36s11,1.36,26.12-4.6,27.22-17.83,27.22-17.83l6.43,2.38s48-36.41,51-61.58l-38,1.36Z" style="opacity:0.30000000000000004"></path><path d="M117.78,341.43l36.33-41.84,44.83,47.94S148.21,391.4,133,401.78c-15.35,10.5-32,11-41.46.66A17.93,17.93,0,0,1,87,391.52c-.38-5.38.08-13.84,5.09-21.22C100.2,358.37,117.78,341.43,117.78,341.43Z" style="fill:#ffbf9d"></path><path d="M194.51,261.59c-2.24.46-13.23,6.08-31.34,24.9C145.34,305,119.43,332.4,119.43,332.4l51.46,49s51.37-37,59.22-62.06S234.29,253.4,194.51,261.59Z" style="fill:#FF725E"></path><path d="M194.51,261.59l.87-.18,2.57-.47a43.08,43.08,0,0,1,10-.33,29.76,29.76,0,0,1,7.07,1.61,24.54,24.54,0,0,1,7.43,4.33,27,27,0,0,1,6.15,7.76,39.58,39.58,0,0,1,3.77,10.45,57.91,57.91,0,0,1,1.28,12.16,74.82,74.82,0,0,1-1.11,13.22,54.73,54.73,0,0,1-4,13.64,68.51,68.51,0,0,1-8.15,12.68A193,193,0,0,1,198,359.73c-8.36,7.48-17.37,14.84-27,21.9l-.17.13-.16-.15-1-.92-50.48-48.12-.17-.16.16-.17,29-30.38,12.22-12.78c3.76-4,7.34-7.56,10.68-10.68A122.29,122.29,0,0,1,187.75,265a42.11,42.11,0,0,1,4.93-2.79,14.23,14.23,0,0,1,1.35-.54l.48-.11s-.15.06-.46.15a14.2,14.2,0,0,0-1.34.58,43.68,43.68,0,0,0-4.88,2.84,125.38,125.38,0,0,0-16.48,13.45q-5,4.69-10.63,10.71l-12.18,12.82L119.6,332.56v-.33l50.51,48.08,1,.92-.34,0c9.58-7,18.58-14.4,26.93-21.86a193.68,193.68,0,0,0,22.4-23.19,69,69,0,0,0,8.11-12.57,54.72,54.72,0,0,0,3.94-13.52,74.12,74.12,0,0,0,1.14-13.14A58.56,58.56,0,0,0,232,284.84a39.85,39.85,0,0,0-3.71-10.38,27,27,0,0,0-6-7.69,24.41,24.41,0,0,0-7.34-4.32,29.67,29.67,0,0,0-7-1.64,43.93,43.93,0,0,0-10,.24l-2.57.41Z" style="fill:#263238"></path><path d="M154.14,294.55c-.13-.05,1.62-5.07,3.92-11.21s4.28-11.08,4.42-11-1.63,5.07-3.93,11.21S154.27,294.6,154.14,294.55Z" style="fill:#263238"></path></g></svg>
